<svg width="248" height="225" viewBox="0 0 248 225" fill="none" xmlns="http://www.w3.org/2000/svg">
<path fill-rule="evenodd" clip-rule="evenodd" d="M43.7054 0.654415C42.0128 0.24718 40.2547 0.98627 39.3322 2.49482C38.4087 4.00336 38.5253 5.94531 39.6227 7.32613C60.0016 34.2936 72.6046 71.464 72.6046 112.481C72.6046 153.497 60.0016 190.667 39.6227 217.635C38.5253 219.016 38.4087 220.958 39.3312 222.466C40.2547 223.975 42.0128 224.714 43.7054 224.306C92.9865 211.832 129.556 166.468 129.556 112.481C129.556 58.4932 92.9865 13.129 43.7054 0.654415Z" fill="#232F3E" fill-opacity="0.4"/>
<path fill-rule="evenodd" clip-rule="evenodd" d="M166.392 114.378C166.035 114.201 165.811 113.828 165.816 113.423C165.823 113.017 166.057 112.651 166.418 112.484C185.342 103.654 198.842 90.2521 208.732 73.8068C208.969 73.4061 209.438 73.2159 209.879 73.3423C210.32 73.4676 210.626 73.8792 210.626 74.348C210.628 88.447 210.628 137.559 210.628 151.001C210.628 151.46 210.336 151.864 209.908 152.001C209.481 152.137 209.016 151.971 208.763 151.594C197.278 134.652 182.908 122.669 166.392 114.378Z" fill="#232F3E" fill-opacity="0.4"/>
<path fill-rule="evenodd" clip-rule="evenodd" d="M190.324 2.45891C189.95 2.20289 189.783 1.72652 189.913 1.28579C190.043 0.845062 190.441 0.543701 190.89 0.543701C211.875 0.544781 228.257 0.579345 246.597 0.580425C247.162 0.580425 247.62 1.04923 247.62 1.62715C247.62 9.15627 247.62 55.1725 247.62 70.032C247.62 70.5202 247.29 70.9437 246.824 71.0517C246.36 71.1608 245.883 70.9253 245.676 70.4867C232.95 44.1499 211.438 17.3162 190.324 2.45891Z" fill="#232F3E" fill-opacity="0.4"/>
<path fill-rule="evenodd" clip-rule="evenodd" d="M190.324 222.5C189.95 222.756 189.783 223.233 189.913 223.673C190.043 224.114 190.441 224.416 190.89 224.416C211.875 224.414 228.257 224.38 246.597 224.379C247.162 224.379 247.62 223.91 247.62 223.332C247.62 215.803 247.62 169.787 247.62 154.927C247.62 154.439 247.29 154.016 246.824 153.908C246.36 153.798 245.883 154.034 245.676 154.472C232.95 180.809 211.438 207.643 190.324 222.5Z" fill="#232F3E" fill-opacity="0.4"/>
</svg>
