<svg width="60" height="60" viewBox="0 0 60 60" fill="none" xmlns="http://www.w3.org/2000/svg">
<path d="M32.5477 56.8969H29.9645H15.3571C14.298 56.8969 13.4327 56.0307 13.4327 54.9706V5.02879C13.4327 3.96867 14.298 3.10247 15.3571 3.10247H22.2281C23.468 3.1154 24.54 4.79608 24.54 6.72238C24.54 8.64869 23.4551 10.3423 22.2152 10.3423C21.3628 10.3423 20.6654 11.0404 20.6654 11.8937C20.6654 12.7469 21.3628 13.4451 22.2152 13.4451H51.6627V32.5789C51.6627 33.4321 52.3601 34.1303 53.2125 34.1303C54.0649 34.1303 54.7624 33.4321 54.7624 32.5789V13.4192C57.6296 13.2511 59.9286 10.3294 59.9286 6.72238C59.9286 3.01198 57.5005 -0.000305176 54.5041 -0.000305176H22.2152H15.3571C12.5931 -0.000305176 10.3329 2.24921 10.3329 5.02879V46.5543H1.55035C0.697928 46.5543 0.000488281 47.2524 0.000488281 48.1057V54.5698C0.000488281 57.5692 2.42861 59.9997 5.42502 59.9997H15.3571H29.9645H32.5477C33.4001 59.9997 34.0975 59.3016 34.0975 58.4483C34.0975 57.595 33.4001 56.8969 32.5477 56.8969ZM26.7873 3.1154H54.5041C55.744 3.1154 56.8289 4.809 56.8289 6.73531C56.8289 8.66162 55.744 10.3552 54.5041 10.3552H26.7873C27.3298 9.30803 27.6397 8.06692 27.6397 6.73531C27.6397 5.4037 27.3298 4.16259 26.7873 3.1154ZM3.10022 54.5698V49.6571H10.3329V54.9706C10.3329 55.6558 10.475 56.3022 10.7204 56.8969H5.42502C4.14638 56.8969 3.10022 55.8497 3.10022 54.5698Z" fill="#ECBF5C"/>
<path d="M49.3381 38.7974C43.5002 38.7974 38.7473 43.555 38.7473 49.3985C38.7473 55.2421 43.5002 59.9997 49.3381 59.9997C55.1759 59.9997 59.9288 55.2421 59.9288 49.3985C59.9288 43.555 55.1759 38.7974 49.3381 38.7974ZM49.3381 56.8969C45.2051 56.8969 41.847 53.5356 41.847 49.3985C41.847 45.2615 45.2051 41.9001 49.3381 41.9001C53.471 41.9001 56.8291 45.2615 56.8291 49.3985C56.8291 53.5356 53.471 56.8969 49.3381 56.8969Z" fill="#ECBF5C"/>
<path d="M24.7983 31.0403H22.2151C21.3627 31.0403 20.6653 31.7385 20.6653 32.5918C20.6653 33.445 21.3627 34.1432 22.2151 34.1432H24.7983C25.6507 34.1432 26.3481 33.445 26.3481 32.5918C26.3481 31.7385 25.6507 31.0403 24.7983 31.0403Z" fill="#ECBF5C"/>
<path d="M32.5477 34.1432H42.8801C43.7325 34.1432 44.4299 33.445 44.4299 32.5918C44.4299 31.7385 43.7325 31.0403 42.8801 31.0403H32.5477C31.6952 31.0403 30.9978 31.7385 30.9978 32.5918C30.9978 33.445 31.6952 34.1432 32.5477 34.1432Z" fill="#ECBF5C"/>
<path d="M37.7134 23.8007C38.5658 23.8007 39.2632 23.1026 39.2632 22.2493C39.2632 21.396 38.5658 20.6979 37.7134 20.6979H27.3809C26.5285 20.6979 25.8311 21.396 25.8311 22.2493C25.8311 23.1026 26.5285 23.8007 27.3809 23.8007H37.7134Z" fill="#ECBF5C"/>
<path d="M32.5476 41.383H22.2151C21.3627 41.383 20.6653 42.0811 20.6653 42.9344C20.6653 43.7877 21.3627 44.4858 22.2151 44.4858H32.5476C33.4 44.4858 34.0974 43.7877 34.0974 42.9344C34.0974 42.0811 33.4 41.383 32.5476 41.383Z" fill="#ECBF5C"/>
</svg>
