<svg width="55" height="60" viewBox="0 0 55 60" fill="none" xmlns="http://www.w3.org/2000/svg">
<path d="M39.444 30.9241C40.1672 31.3895 41.123 31.1697 41.5879 30.4457L54.5035 10.1354C54.9426 9.45024 54.7747 8.54527 54.129 8.06692L43.7965 0.309973C43.7448 0.271188 43.6932 0.271188 43.6415 0.232403C43.5382 0.18069 43.4478 0.128977 43.3445 0.0901926C43.2541 0.0643361 43.1637 0.0514078 43.0603 0.0384796C42.9957 0.0255513 42.9312 -0.000305176 42.8666 -0.000305176H11.8692C11.8047 -0.000305176 11.753 0.0255513 11.6884 0.0384796C11.5851 0.0514078 11.4947 0.0643361 11.4043 0.103121C11.3009 0.141906 11.1976 0.18069 11.1072 0.245332C11.0555 0.271188 10.991 0.284116 10.9522 0.322901L0.619776 8.07985C-0.0260019 8.57112 -0.193892 9.4761 0.245238 10.1484L16.6092 35.8885C14.3232 38.4483 12.9154 41.8226 12.9154 45.5201C12.9154 53.5097 19.399 59.9997 27.3808 59.9997C35.3626 59.9997 41.8462 53.5097 41.8462 45.5201C41.8462 37.5304 35.3626 31.0404 27.3808 31.0404C26.8513 31.0404 26.3347 31.0663 25.8309 31.1309L43.2928 3.81353L51.1454 9.70881L39.0048 28.8168C38.5011 29.502 38.7207 30.4586 39.444 30.9241ZM35.3626 10.3811C35.2722 10.3681 35.1947 10.3294 35.1043 10.3294H19.6057C19.5023 10.3294 19.4119 10.3681 19.3215 10.3811L14.6848 3.08955H40.0252L35.3626 10.3811ZM27.3162 22.9732L21.2589 13.4321H33.4124L27.3162 22.9732ZM38.7207 45.4942C38.7207 51.7644 33.619 56.8711 27.355 56.8711C21.0909 56.8711 15.9893 51.7644 15.9893 45.4942C15.9893 39.224 21.0909 34.1173 27.355 34.1173C33.619 34.1173 38.7207 39.224 38.7207 45.4942ZM18.9082 33.7553L3.60328 9.67002L11.443 3.77474L25.3401 25.6364C25.3789 25.701 25.4435 25.7398 25.4952 25.8045L21.7109 31.7256C21.6076 31.8937 21.543 32.0747 21.5042 32.2557C20.5872 32.6694 19.7219 33.1736 18.9082 33.7553Z" fill="#ECBF5C"/>
</svg>
