<svg width="11" height="10" viewBox="0 0 11 10" fill="none" xmlns="http://www.w3.org/2000/svg">
<path d="M9.80021 6.4922C9.76125 6.4735 8.30319 5.75551 8.0441 5.66226C7.93832 5.62428 7.82501 5.5872 7.70449 5.5872C7.50761 5.5872 7.34222 5.68532 7.21339 5.87804C7.06774 6.09454 6.62683 6.60993 6.4906 6.76389C6.47281 6.78421 6.44852 6.8085 6.43397 6.8085C6.42092 6.8085 6.19527 6.71558 6.12696 6.6859C4.56287 6.00649 3.37566 4.37265 3.21287 4.09714C3.18962 4.05752 3.18865 4.03954 3.18846 4.03954C3.19417 4.01856 3.24677 3.96584 3.27391 3.93863C3.35333 3.86006 3.43936 3.75649 3.52261 3.65629C3.56203 3.60882 3.60151 3.56129 3.64027 3.51649C3.76105 3.37597 3.81482 3.26688 3.87716 3.14051L3.90982 3.07486C4.06203 2.77246 3.93203 2.51726 3.89001 2.43486C3.85553 2.3659 3.23988 0.880057 3.17443 0.723953C3.01703 0.347265 2.80904 0.171875 2.52001 0.171875C2.4932 0.171875 2.52001 0.171875 2.40755 0.176615C2.2706 0.182394 1.52482 0.280576 1.19508 0.488433C0.845404 0.708888 0.253845 1.41162 0.253845 2.64746C0.253845 3.75973 0.959689 4.80993 1.26274 5.20934C1.27027 5.21941 1.2841 5.23986 1.30417 5.26921C2.46475 6.96415 3.91157 8.22025 5.37826 8.80616C6.79027 9.37019 7.45891 9.43538 7.83904 9.43538H7.8391C7.99884 9.43538 8.1267 9.42285 8.23949 9.41175L8.31105 9.40493C8.79884 9.36168 9.87079 8.80623 10.1146 8.12863C10.3067 7.59493 10.3574 7.01181 10.2296 6.80019C10.142 6.65629 9.99118 6.58389 9.80021 6.4922Z" fill="#F6F6F6"/>
</svg>
