<svg width="42" height="28" viewBox="0 0 42 28" fill="none" xmlns="http://www.w3.org/2000/svg">
<path fill-rule="evenodd" clip-rule="evenodd" d="M10.2544 0.6453C10.4566 0.596675 10.6666 0.684924 10.7768 0.865049C10.8871 1.04517 10.8731 1.27705 10.7421 1.44192C8.30791 4.66192 6.80255 9.10017 6.80255 13.9977C6.80255 18.8952 8.30791 23.3334 10.7421 26.5534C10.8731 26.7183 10.8871 26.9502 10.7769 27.1303C10.6666 27.3104 10.4566 27.3987 10.2544 27.3499C4.36804 25.8605 0 20.4439 0 13.9977C0 7.55142 4.36804 2.1348 10.2544 0.6453Z" fill="#B29876"/>
<path fill-rule="evenodd" clip-rule="evenodd" d="M16.6872 0.6453C16.4851 0.596675 16.2751 0.684924 16.1649 0.865049C16.0546 1.04517 16.0685 1.27705 16.1996 1.44192C18.6337 4.66192 20.1391 9.10017 20.1391 13.9977C20.1391 18.8952 18.6337 23.3334 16.1996 26.5534C16.0685 26.7183 16.0546 26.9502 16.1648 27.1303C16.2751 27.3104 16.4851 27.3987 16.6872 27.3499C22.5736 25.8605 26.9417 20.4439 26.9417 13.9977C26.9417 7.55142 22.5736 2.1348 16.6872 0.6453Z" fill="#B29876"/>
<path fill-rule="evenodd" clip-rule="evenodd" d="M31.3415 14.2242C31.2989 14.203 31.2721 14.1585 31.2727 14.1102C31.2735 14.0617 31.3014 14.0181 31.3445 13.9981C33.605 12.9438 35.2175 11.3435 36.3988 9.37991C36.4271 9.33206 36.4831 9.30936 36.5358 9.32445C36.5885 9.33941 36.6249 9.38855 36.6249 9.44453C36.6252 11.128 36.6252 16.9921 36.6252 18.5972C36.6252 18.652 36.5904 18.7002 36.5392 18.7165C36.4882 18.7327 36.4327 18.713 36.4025 18.668C35.0307 16.645 33.3142 15.2143 31.3415 14.2242Z" fill="#B29876"/>
<path fill-rule="evenodd" clip-rule="evenodd" d="M34.1998 0.860761C34.1552 0.830193 34.1352 0.773312 34.1507 0.720688C34.1663 0.668063 34.2138 0.63208 34.2675 0.63208C36.774 0.632209 38.7307 0.636336 40.9213 0.636465C40.9888 0.636465 41.0435 0.692442 41.0435 0.761447C41.0435 1.66045 41.0435 7.15492 41.0435 8.92918C41.0435 8.98748 41.0041 9.03804 40.9485 9.05094C40.893 9.06397 40.8361 9.03585 40.8113 8.98349C39.2912 5.83879 36.7218 2.63477 34.1998 0.860761Z" fill="#B29876"/>
<path fill-rule="evenodd" clip-rule="evenodd" d="M34.1998 27.1344C34.1552 27.1649 34.1352 27.2218 34.1507 27.2744C34.1663 27.3271 34.2138 27.363 34.2675 27.363C36.774 27.3629 38.7307 27.3588 40.9213 27.3587C40.9888 27.3587 41.0435 27.3027 41.0435 27.2337C41.0435 26.3347 41.0435 20.8402 41.0435 19.0659C41.0435 19.0076 41.0041 18.9571 40.9485 18.9442C40.893 18.9311 40.8361 18.9593 40.8113 19.0116C39.2912 22.1563 36.7218 25.3603 34.1998 27.1344Z" fill="#B29876"/>
</svg>
