<svg width="16" height="16" viewBox="0 0 16 16" fill="none" xmlns="http://www.w3.org/2000/svg">
<path d="M13.4193 2.75997C13.2068 2.76747 13.0118 2.87997 12.8993 3.05997L6.87933 12.27L2.97933 8.89997C2.81183 8.72622 2.56058 8.66122 2.32933 8.73372C2.09933 8.80497 1.92808 8.99997 1.88808 9.23747C1.84808 9.47622 1.94433 9.71622 2.13933 9.85997L6.59933 13.72C6.73933 13.8387 6.92433 13.8912 7.10558 13.865C7.28808 13.8375 7.44933 13.7337 7.54933 13.58L13.9793 3.75997C14.1168 3.55872 14.1281 3.29872 14.0093 3.08622C13.8906 2.87497 13.6618 2.74872 13.4193 2.75997Z" fill="white"/>
</svg>
