<svg width="14" height="14" viewBox="0 0 14 14" fill="none" xmlns="http://www.w3.org/2000/svg">
<path d="M1.15831 0.325191C0.992536 0.325235 0.830538 0.374717 0.69303 0.467312C0.555522 0.559907 0.448752 0.691407 0.386371 0.845C0.323991 0.998593 0.308833 1.1673 0.342836 1.32955C0.37684 1.49181 0.458459 1.64023 0.577259 1.75586L5.8214 7L0.577259 12.2441C0.497281 12.3209 0.433429 12.4129 0.389441 12.5147C0.345454 12.6164 0.322216 12.726 0.321088 12.8368C0.31996 12.9477 0.340965 13.0577 0.382873 13.1603C0.42478 13.263 0.486748 13.3562 0.565147 13.4346C0.643546 13.513 0.7368 13.575 0.839448 13.6169C0.942095 13.6588 1.05207 13.6798 1.16294 13.6787C1.27381 13.6776 1.38334 13.6543 1.48511 13.6103C1.58688 13.5664 1.67886 13.5025 1.75564 13.4225L6.99978 8.17838L12.2439 13.4225C12.3207 13.5025 12.4127 13.5664 12.5145 13.6103C12.6162 13.6543 12.7258 13.6776 12.8366 13.6787C12.9475 13.6798 13.0575 13.6588 13.1601 13.6169C13.2628 13.575 13.356 13.513 13.4344 13.4346C13.5128 13.3562 13.5748 13.263 13.6167 13.1603C13.6586 13.0577 13.6796 12.9477 13.6785 12.8368C13.6774 12.726 13.6541 12.6164 13.6101 12.5147C13.5661 12.4129 13.5023 12.3209 13.4223 12.2441L8.17817 7L13.4223 1.75586C13.5427 1.6388 13.625 1.4881 13.6583 1.3235C13.6916 1.1589 13.6744 0.988083 13.6089 0.833428C13.5435 0.678774 13.4328 0.547499 13.2915 0.456808C13.1501 0.366117 12.9847 0.320241 12.8168 0.325191C12.6003 0.331642 12.3949 0.422125 12.2439 0.57747L6.99978 5.82161L1.75564 0.57747C1.67799 0.497641 1.58512 0.434187 1.48252 0.390857C1.37992 0.347526 1.26968 0.325198 1.15831 0.325191Z" fill="black"/>
</svg>
