<svg width="107" height="34" viewBox="0 0 107 34" fill="none" xmlns="http://www.w3.org/2000/svg">
<path fill-rule="evenodd" clip-rule="evenodd" d="M13.3043 7.48341C13.1326 7.24011 12.9083 7.08511 12.6303 7.01349C12.3524 6.94384 12.0129 6.90852 11.6129 6.90852H8.3461C7.95103 6.90852 7.63934 7.01055 7.41103 7.21559C7.18074 7.41964 7.06659 7.67766 7.06659 7.99159C7.06659 8.3742 7.20357 8.64595 7.47853 8.80586C7.7525 8.96479 8.1575 9.04523 8.69451 9.04523H10.925V11.3252C10.3234 11.644 9.72983 11.8903 9.14616 12.0629C8.56051 12.2346 7.93514 12.3219 7.27008 12.3219C5.89925 12.3219 4.83216 11.8775 4.06584 10.9897C3.30052 10.1018 2.91736 8.83431 2.91736 7.18517C2.91736 6.42584 3.01563 5.73421 3.21317 5.10634C3.40971 4.48141 3.6936 3.95263 4.06584 3.52195C4.43709 3.09029 4.88576 2.76164 5.40888 2.53404C5.932 2.3084 6.52659 2.19362 7.19265 2.19362C7.83787 2.19362 8.36992 2.29074 8.78683 2.48204C9.20374 2.67433 9.53428 2.91076 9.78046 3.19134C10.0256 3.47192 10.3264 3.8869 10.6818 4.43727C10.8108 4.60797 10.9706 4.74335 11.1622 4.83949C11.3518 4.93466 11.5503 4.98273 11.7578 4.98273C12.132 4.98273 12.4546 4.85617 12.7226 4.60404C12.9906 4.35192 13.1247 4.04681 13.1247 3.68971C13.1247 3.35714 13.0085 2.97649 12.7762 2.54974C12.543 2.122 12.1975 1.71585 11.7389 1.33226C11.2793 0.949651 10.6818 0.631793 9.94524 0.379664C9.2087 0.127536 8.36198 0 7.40607 0C6.2427 0 5.20142 0.16874 4.28422 0.505238C3.36603 0.839774 2.58781 1.32343 1.94855 1.95522C1.3083 2.588 0.823889 3.35714 0.494334 4.2646C0.164778 5.17109 0 6.17077 0 7.26268C0 8.3742 0.169741 9.38075 0.50823 10.2804C0.847713 11.1819 1.33311 11.9491 1.96741 12.5799C2.60071 13.2127 3.36603 13.6944 4.26536 14.027C5.16271 14.3596 6.15832 14.5254 7.25023 14.5254C8.18727 14.5254 9.05385 14.4194 9.84895 14.2075C10.6431 13.9985 11.4699 13.662 12.3305 13.2029C12.6263 13.043 12.8705 12.8762 13.0621 12.7045C13.2517 12.5319 13.3827 12.3396 13.4542 12.1247C13.5257 11.9109 13.5614 11.6264 13.5614 11.2673V8.57531C13.5614 8.0897 13.4751 7.72573 13.3043 7.48341Z" fill="#020101"/>
<path fill-rule="evenodd" clip-rule="evenodd" d="M19.0604 8.75268C19.113 8.20526 19.2053 7.73534 19.3413 7.33997C19.4773 6.94363 19.6679 6.64539 19.9131 6.4433C20.1593 6.24219 20.4759 6.14212 20.863 6.14212C21.1489 6.14212 21.4765 6.20098 21.8477 6.31969C22.22 6.43741 22.4532 6.49628 22.5505 6.49628C22.8086 6.49628 23.0498 6.39229 23.2732 6.18528C23.4955 5.9773 23.6067 5.71438 23.6067 5.39456C23.6067 4.94132 23.3446 4.57735 22.8215 4.30364C22.2984 4.02797 21.7594 3.8916 21.2025 3.8916C20.6476 3.8916 20.2029 4.02797 19.8694 4.30364C19.5369 4.57735 19.2123 4.98252 18.8956 5.51817C18.8758 4.98252 18.7696 4.57735 18.576 4.30364C18.3814 4.02797 18.0658 3.8916 17.626 3.8916C16.7664 3.8916 16.3366 4.47925 16.3366 5.65356V12.9339C16.3366 13.4578 16.4597 13.8541 16.7049 14.1229C16.9511 14.3898 17.2637 14.5251 17.6449 14.5251C18.033 14.5251 18.3527 14.3917 18.6048 14.1268C18.8569 13.862 18.983 13.4656 18.983 12.9339V10.7501C18.983 9.96427 19.0088 9.29912 19.0604 8.75268Z" fill="#020101"/>
<path fill-rule="evenodd" clip-rule="evenodd" d="M28.1339 6.36736C28.5567 5.91706 29.0987 5.69142 29.7578 5.69142C30.4487 5.69142 31.0065 5.91412 31.4294 6.35657C31.8523 6.80098 32.0965 7.47005 32.162 8.36477H27.3636C27.4529 7.48379 27.71 6.81766 28.1339 6.36736ZM34.1492 9.55772C34.5294 9.36249 34.721 8.93574 34.721 8.27844C34.721 7.57012 34.5364 6.87358 34.1681 6.18881C33.7998 5.50698 33.2449 4.94975 32.5054 4.51809C31.7649 4.08643 30.8785 3.87158 29.8452 3.87158C29.0501 3.87158 28.3254 3.99716 27.6733 4.25027C27.0211 4.50239 26.4712 4.86538 26.0255 5.33628C25.5798 5.81013 25.2403 6.37717 25.008 7.03741C24.7748 7.69864 24.6586 8.41676 24.6586 9.18885C24.6586 10.8301 25.1311 12.13 26.0741 13.0885C27.0171 14.046 28.3383 14.5247 30.0387 14.5247C30.7812 14.5247 31.4393 14.4296 32.0111 14.2373C32.5829 14.046 33.0583 13.8047 33.4365 13.5143C33.8147 13.2229 34.0976 12.9207 34.2842 12.6039C34.4718 12.288 34.5652 12.0123 34.5652 11.7759C34.5652 11.5061 34.4818 11.2991 34.314 11.1519C34.1453 11.0057 33.9259 10.9322 33.6549 10.9322C33.4028 10.9322 33.2082 10.99 33.0732 11.1048C32.7437 11.4119 32.4747 11.6552 32.2682 11.8328C32.0607 12.0123 31.8354 12.1791 31.5892 12.336C31.3431 12.492 31.0909 12.6068 30.8289 12.6814C30.5668 12.754 30.277 12.7903 29.9613 12.7903C29.4888 12.7903 29.058 12.6774 28.6669 12.4469C28.2758 12.2163 27.9621 11.874 27.7269 11.4207C27.4906 10.9665 27.3685 10.4436 27.3636 9.85007H32.5392C33.231 9.85007 33.7671 9.75197 34.1492 9.55772Z" fill="#020101"/>
<path fill-rule="evenodd" clip-rule="evenodd" d="M38.8773 15.8223C38.7384 16.044 38.5815 16.1981 38.4068 16.2873C38.2331 16.3766 37.9929 16.4218 37.6901 16.4218C37.567 16.4218 37.4211 16.4031 37.2534 16.3649C37.1184 16.3266 36.9784 16.307 36.8365 16.307C36.4741 16.307 36.2022 16.3884 36.0175 16.5503C35.8339 16.7141 35.7416 16.9466 35.7416 17.2458C35.7416 17.6863 35.9351 17.9904 36.3233 18.1553C36.7104 18.322 37.2921 18.4054 38.0683 18.4054C38.8624 18.4054 39.4947 18.2857 39.9633 18.0464C40.4308 17.806 40.808 17.4636 41.0919 17.0163C41.3768 16.5689 41.6676 15.9528 41.9644 15.167L45.4158 6.23752C45.5002 6.00796 45.5707 5.78134 45.6292 5.55766C45.6868 5.33398 45.7285 5.1623 45.7553 5.04065C45.7553 4.84248 45.7047 4.65314 45.6044 4.47557C45.5052 4.29604 45.3622 4.15378 45.1786 4.04881C44.994 3.94286 44.8024 3.89185 44.6019 3.89185C44.3229 3.89185 44.1085 3.93894 43.9566 4.03508C43.8048 4.13024 43.6608 4.31566 43.5258 4.59035C43.3898 4.86504 43.238 5.24471 43.0702 5.73032L40.947 11.7176L38.7076 5.28002C38.5587 4.83267 38.3879 4.4893 38.1944 4.24993C37.9998 4.01055 37.712 3.89185 37.3308 3.89185C37.1114 3.89185 36.9 3.94777 36.6965 4.06255C36.493 4.17831 36.3332 4.33135 36.2161 4.52266C36.0999 4.71494 36.0423 4.92194 36.0423 5.14562C36.0423 5.35655 36.1416 5.69501 36.3421 6.161L39.6 14.2664L39.3568 14.8511C39.1761 15.2788 39.0163 15.6026 38.8773 15.8223Z" fill="#020101"/>
<path fill-rule="evenodd" clip-rule="evenodd" d="M49.9622 0.403454C49.7269 0.135628 49.3994 0.000244141 48.9785 0.000244141C48.5655 0.000244141 48.2439 0.133666 48.0136 0.398548C47.7843 0.66343 47.6692 1.06173 47.6692 1.5915V12.9334C47.6692 13.9949 48.1059 14.5256 48.9785 14.5256C49.3994 14.5256 49.7269 14.3892 49.9622 14.1175C50.1984 13.8467 50.3156 13.4523 50.3156 12.9334V9.47616C50.3156 8.47942 50.387 7.78582 50.529 7.39732C50.7166 6.93721 50.9995 6.57423 51.3777 6.30934C51.7559 6.04446 52.1797 5.91202 52.6522 5.91202C53.357 5.91202 53.8345 6.13668 54.0866 6.58796C54.3387 7.03728 54.4648 7.68085 54.4648 8.51768V12.9334C54.4648 13.9949 54.9015 14.5256 55.7731 14.5256C56.1741 14.5256 56.4957 14.3902 56.7379 14.1224C56.9801 13.8546 57.1012 13.4582 57.1012 12.9334V7.92414C57.1012 7.41891 57.0695 6.97351 57.0049 6.58796C56.9404 6.20143 56.8144 5.85218 56.6268 5.53824C56.33 5.00161 55.921 4.5935 55.4008 4.31194C54.8807 4.03136 54.2841 3.89205 53.6121 3.89205C53.1664 3.89205 52.7495 3.94601 52.3614 4.05883C51.9733 4.16968 51.6199 4.33744 51.3003 4.56112C50.9796 4.7848 50.6521 5.08794 50.3156 5.47153V1.5915C50.3156 1.0686 50.1984 0.671279 49.9622 0.403454Z" fill="#020101"/>
<path fill-rule="evenodd" clip-rule="evenodd" d="M66.4385 11.6845C65.963 12.281 65.3247 12.5802 64.5237 12.5802C63.9936 12.5802 63.533 12.4448 63.1429 12.1721C62.7508 11.9013 62.4501 11.5109 62.2406 10.9998C62.0312 10.4886 61.926 9.89118 61.926 9.20837C61.926 8.51674 62.0332 7.91339 62.2456 7.39736C62.459 6.88035 62.7627 6.48892 63.1568 6.22305C63.5509 5.95817 64.0065 5.82573 64.5237 5.82573C65.3247 5.82573 65.963 6.12299 66.4385 6.7175C66.914 7.31103 67.1502 8.141 67.1502 9.20837C67.1502 10.262 66.914 11.0871 66.4385 11.6845ZM69.4432 7.05204C69.201 6.4016 68.8466 5.83848 68.3821 5.3666C67.9165 4.89374 67.3577 4.52977 66.7055 4.27372C66.0514 4.01864 65.3247 3.89209 64.5237 3.89209C63.7345 3.89209 63.0149 4.01766 62.3627 4.26783C61.7086 4.52094 61.1537 4.87902 60.6951 5.34698C60.2355 5.81298 59.8831 6.37511 59.6379 7.0334C59.3917 7.69168 59.2697 8.41667 59.2697 9.20837C59.2697 9.99321 59.3908 10.7104 59.634 11.3578C59.8762 12.0073 60.2305 12.5694 60.7 13.0443C61.1676 13.521 61.7225 13.886 62.3627 14.142C63.002 14.3981 63.7226 14.5256 64.5237 14.5256C65.3317 14.5256 66.0583 14.3991 66.7055 14.147C67.3507 13.8938 67.9066 13.5318 68.3721 13.059C68.8377 12.5861 69.1921 12.021 69.4382 11.3637C69.6844 10.7054 69.8075 9.98732 69.8075 9.20837C69.8075 8.42255 69.6854 7.70247 69.4432 7.05204Z" fill="#020101"/>
<path fill-rule="evenodd" clip-rule="evenodd" d="M79.2982 14.1371C79.5335 14.3952 79.8323 14.5256 80.1946 14.5256C80.5569 14.5256 80.8517 14.402 81.082 14.1519C81.3103 13.9037 81.4264 13.5289 81.4264 13.0305V5.45195C81.4264 4.92807 81.3053 4.53762 81.0671 4.27862C80.8279 4.01963 80.5112 3.89209 80.1171 3.89209C79.7231 3.89209 79.4024 4.02061 79.1573 4.28353C78.9111 4.54547 78.789 4.93494 78.789 5.45195V8.63348C78.789 9.88431 78.7145 10.6956 78.5666 11.0655C78.385 11.4883 78.0971 11.8297 77.704 12.0917C77.309 12.3536 76.8891 12.4841 76.4434 12.4841C75.9838 12.4841 75.6205 12.3673 75.3525 12.1348C75.0845 11.9013 74.8988 11.5796 74.7956 11.1675C74.6914 10.7555 74.6408 10.2453 74.6408 9.63807V5.45195C74.6408 4.93494 74.5177 4.54547 74.2725 4.28353C74.0253 4.02061 73.7027 3.89209 73.3027 3.89209C72.9086 3.89209 72.591 4.01963 72.3527 4.27862C72.1135 4.53762 71.9944 4.92807 71.9944 5.45195V10.6358C71.9944 11.6767 72.1592 12.4753 72.4887 13.0305C72.7657 13.4906 73.1578 13.8517 73.666 14.1136C74.1732 14.3746 74.747 14.506 75.3872 14.506C75.9163 14.506 76.3878 14.4403 76.8017 14.3088C77.2147 14.1783 77.5968 13.9782 77.9462 13.7104C78.2947 13.4426 78.6272 13.11 78.9448 12.7146V13.0501C78.9448 13.5152 79.062 13.8791 79.2982 14.1371Z" fill="#020101"/>
<path fill-rule="evenodd" clip-rule="evenodd" d="M86.5113 4.54203C86.3982 4.32424 86.2473 4.16237 86.0607 4.05347C85.873 3.94458 85.6636 3.8916 85.4303 3.8916C85.0492 3.8916 84.7494 4.01423 84.529 4.25851C84.3087 4.50574 84.1995 4.87657 84.1995 5.37494V12.9339C84.1995 13.446 84.3225 13.8384 84.5677 14.1131C84.8129 14.3868 85.1266 14.5251 85.5078 14.5251C85.9028 14.5251 86.2235 14.3917 86.4726 14.1268C86.7218 13.862 86.8458 13.4656 86.8458 12.9339V9.6572C86.8458 8.59179 86.9104 7.86385 87.0394 7.47242C87.2211 6.98876 87.5049 6.60615 87.8931 6.32852C88.2802 6.05186 88.71 5.91157 89.1815 5.91157C89.9061 5.91157 90.3886 6.14114 90.6308 6.59732C90.874 7.05449 90.9951 7.71375 90.9951 8.57511V12.9339C90.9951 13.446 91.1181 13.8384 91.3633 14.1131C91.6085 14.3868 91.9281 14.5251 92.3222 14.5251C92.7103 14.5251 93.025 14.3898 93.2682 14.1229C93.5104 13.8541 93.6315 13.4578 93.6315 12.9339V8.06791C93.6315 7.49302 93.6047 7.01917 93.5541 6.64932C93.5025 6.27946 93.3893 5.93512 93.2146 5.6153C92.9426 5.06493 92.5327 4.64112 91.9837 4.34092C91.4338 4.04072 90.8104 3.8916 90.1126 3.8916C89.3949 3.8916 88.7606 4.03189 88.2077 4.31738C87.6548 4.60188 87.1466 5.04629 86.6811 5.65356V5.33668C86.6811 5.02373 86.6245 4.75983 86.5113 4.54203Z" fill="#020101"/>
<path fill-rule="evenodd" clip-rule="evenodd" d="M98.8214 7.42209C99.0309 6.91293 99.3267 6.52444 99.7088 6.25171C100.089 5.97996 100.523 5.84653 101.007 5.84653C101.473 5.84653 101.901 5.97701 102.292 6.24288C102.683 6.50776 102.992 6.89037 103.223 7.39168C103.451 7.89398 103.566 8.49241 103.566 9.18896C103.566 9.92964 103.451 10.5477 103.223 11.0421C102.992 11.5366 102.686 11.9035 102.302 12.1439C101.916 12.3852 101.492 12.5039 101.027 12.5039C100.567 12.5039 100.145 12.3774 99.7565 12.1252C99.3694 11.8731 99.0636 11.4974 98.8413 10.999C98.6179 10.5016 98.5068 9.89727 98.5068 9.18896C98.5068 8.51694 98.611 7.92929 98.8214 7.42209ZM104.066 14.1373C104.302 14.3944 104.6 14.5249 104.963 14.5249C105.331 14.5249 105.631 14.4012 105.864 14.1511C106.096 13.9029 106.213 13.5291 106.213 13.0307V1.4956C106.213 1.0041 106.104 0.6313 105.888 0.379172C105.671 0.127043 105.363 0.000488281 104.963 0.000488281C104.561 0.000488281 104.253 0.137835 104.037 0.411546C103.819 0.688201 103.712 1.09337 103.712 1.63V5.49042C103.214 4.95378 102.704 4.55646 102.181 4.29648C101.656 4.03945 101.013 3.90995 100.251 3.90995C98.9326 3.90995 97.8695 4.36712 97.0625 5.27949C96.2535 6.19284 95.8505 7.46722 95.8505 9.10262C95.8505 9.87569 95.9517 10.5928 96.1552 11.258C96.3597 11.9221 96.6575 12.501 97.0525 12.9925C97.4456 13.484 97.9132 13.8617 98.4532 14.1266C98.9922 14.3914 99.5788 14.5249 100.212 14.5249C100.691 14.5249 101.131 14.4601 101.535 14.3286C101.939 14.1982 102.315 14.0059 102.66 13.7547C103.005 13.5006 103.356 13.1749 103.712 12.7717V13.0307C103.712 13.5095 103.829 13.8793 104.066 14.1373Z" fill="#020101"/>
<path fill-rule="evenodd" clip-rule="evenodd" d="M8.54956 22.02H7.50233V28.6058C7.50233 30.1892 7.0745 32.4632 4.45593 32.4632C1.83834 32.4632 1.41051 30.1892 1.41051 28.6058V22.02H0.363281V28.8716C0.363281 31.2389 1.39364 33.4041 4.45593 33.4041C7.51821 33.4041 8.54956 31.2389 8.54956 28.8716V22.02Z" fill="#020101"/>
<path fill-rule="evenodd" clip-rule="evenodd" d="M10.1722 33.1218H11.4269L14.9806 28.1037L18.5342 33.1218H19.8346L15.6625 27.2885L19.4703 22.0203H18.2166L15.0282 26.535L11.7912 22.0203H10.5534L14.3929 27.2885L10.1722 33.1218Z" fill="#020101"/>
<path fill-rule="evenodd" clip-rule="evenodd" d="M33.9219 30.7381C33.1288 31.9301 31.7331 32.4628 30.6065 32.4628C27.6713 32.4628 25.8458 30.33 25.8458 27.5704C25.8458 24.8107 27.6713 22.6779 30.6065 22.6779C31.7331 22.6779 32.9223 23.1488 33.6201 24.1828L34.4778 23.4784C33.4941 22.2384 32.1292 21.7371 30.6065 21.7371C27.1789 21.7371 24.7996 24.1828 24.7996 27.5704C24.7996 30.9579 27.1789 33.4046 30.6065 33.4046C32.2563 33.4046 33.7164 32.8238 34.7785 31.3807L33.9219 30.7381Z" fill="#020101"/>
<path fill-rule="evenodd" clip-rule="evenodd" d="M41.7826 29.4832V29.9698C41.7826 31.1774 41.2595 32.4626 39.2285 32.4626C38.4354 32.4626 37.5629 32.0084 37.5629 31.1137C37.5629 29.8756 39.1491 29.4832 40.7354 29.4832H41.7826ZM42.6392 28.3079C42.6392 26.4733 41.4977 25.6885 39.7209 25.6885C38.769 25.6885 37.6264 26.0495 36.9276 26.7078L37.4835 27.3504C38.1337 26.8029 38.8642 26.5351 39.7209 26.5351C40.8942 26.5351 41.7826 27.0374 41.7826 28.2922V28.7307H40.6728C39.2285 28.7307 36.611 28.9505 36.611 31.1617C36.611 32.6971 37.9441 33.3092 39.1978 33.3092C40.4346 33.3092 41.2277 32.8707 41.7667 31.9456H41.7995C41.7995 32.3537 41.8312 32.7618 41.8938 33.1219H42.7832C42.672 32.2899 42.6392 31.4914 42.6392 30.0796V28.3079Z" fill="#020101"/>
<path fill-rule="evenodd" clip-rule="evenodd" d="M45.5059 33.1219H46.4579V29.1702C46.4579 27.7575 47.2033 26.6303 48.8531 26.6303C48.9494 26.6303 49.0764 26.645 49.2184 26.6931L49.3296 25.767C49.139 25.7199 48.9643 25.6885 48.7747 25.6885C47.6788 25.6885 46.9184 26.3006 46.442 27.1463C46.4102 27.007 46.3953 26.4095 46.3785 25.8768H45.4265C45.4265 26.2536 45.5059 27.3818 45.5059 27.9154V33.1219Z" fill="#020101"/>
<path fill-rule="evenodd" clip-rule="evenodd" d="M57.4583 29.4995C57.4583 31.131 56.1252 32.4633 54.3961 32.4633C52.6034 32.4633 51.4926 31.131 51.4926 29.4995C51.4926 27.8681 52.6034 26.5358 54.3961 26.5358C56.1252 26.5358 57.4583 27.8681 57.4583 29.4995ZM57.363 33.1215H58.315V21.2666H57.363V27.147H57.3313C56.7446 26.1434 55.4919 25.6882 54.3961 25.6882C52.1438 25.6882 50.5406 27.2883 50.5406 29.4995C50.5406 31.7108 52.1438 33.3099 54.3961 33.3099C55.4919 33.3099 56.7446 32.8547 57.3313 31.8511H57.363V33.1215Z" fill="#020101"/>
<path fill-rule="evenodd" clip-rule="evenodd" d="M60.3655 31.8352C60.9372 32.8388 62.0639 33.3097 63.3176 33.3097C64.7132 33.3097 65.9669 32.5573 65.9669 31.068C65.9669 28.1357 61.6192 29.6553 61.6192 27.6962C61.6192 26.9437 62.4927 26.5356 63.1737 26.5356C64.0303 26.5356 64.5385 26.8966 64.9028 27.5549L65.7605 27.0536C65.284 26.1275 64.3638 25.688 63.1737 25.688C61.9676 25.688 60.6672 26.3629 60.6672 27.7747C60.6672 30.5344 65.015 29.1383 65.015 31.1308C65.015 31.9618 64.1574 32.4631 63.3325 32.4631C62.4758 32.4631 61.6033 32.0403 61.2072 31.2721L60.3655 31.8352Z" fill="#020101"/>
</svg>
