<svg width="173" height="35" viewBox="0 0 173 35" fill="none" xmlns="http://www.w3.org/2000/svg">
<path fill-rule="evenodd" clip-rule="evenodd" d="M9.999 2.96843L10 1L0 1.00205V2.97047L3.93933 2.96945L3.93634 14H6.03971L6.04171 2.96945L9.999 2.96843Z" fill="#020101"/>
<path fill-rule="evenodd" clip-rule="evenodd" d="M17.5071 3.60848C15.9019 3.60848 14.7017 4.18688 14.03 5.50108L14.031 0L12.003 0.000965609L12 13L14.029 12.999L14.03 8.40949C14.03 6.76313 15.0365 5.51846 16.7129 5.50011C18.1245 5.50011 18.971 6.35757 18.971 7.75964L18.97 12.9981H20.999L21 7.19862C21.001 4.97482 19.6961 3.60752 17.5071 3.60848Z" fill="#020101"/>
<path fill-rule="evenodd" clip-rule="evenodd" d="M24.9741 8.25947C25.199 6.68552 26.222 5.70358 27.6764 5.70358C29.1841 5.70256 30.1702 6.66612 30.24 8.25845L24.9741 8.25947ZM27.6599 4C24.9227 4.01837 23 6.03736 23 9.0199C22.999 11.982 24.8694 14.001 27.7093 14C29.3034 14 30.6191 13.3876 31.5208 12.3321L30.464 11.1297C29.7891 11.8687 28.8709 12.277 27.8654 12.277C26.411 12.277 25.3193 11.3329 25.008 9.81505L31.9717 9.81402C32.2151 6.25885 30.8984 3.99898 27.6599 4Z" fill="#020101"/>
<path fill-rule="evenodd" clip-rule="evenodd" d="M43.2897 1.87135L44.569 1.87035C45.4638 1.87035 46.0967 2.05707 46.4644 2.43151C46.8332 2.80394 47.0176 3.39421 47.0176 4.19931C47.0176 5.23127 46.7159 6.02432 46.1113 6.57846C45.5089 7.13359 44.6497 7.40965 43.5349 7.40965L42.0911 7.41066L43.2897 1.87135ZM43.7633 8.26293L44.8404 11.8648C45.1023 12.7351 45.4554 13.3093 45.9007 13.5844C46.345 13.8605 47.1036 13.997 48.1754 13.997H48.4216L48.5683 13.2331H48.4216C48.0696 13.2331 47.7794 13.1487 47.5541 12.9791C47.3288 12.8104 47.1077 12.4149 46.8877 11.7925L45.5361 7.89853C47.8454 7.36548 49 6.0956 49 4.09189C49 2.02996 47.5719 0.998997 44.7147 1L39.809 1.001L39.6445 1.76494H39.8908C40.7856 1.76494 41.234 2.00888 41.234 2.49375C41.233 2.60618 41.2099 2.77583 41.1607 3.0007L39.194 12.0164C39.1081 12.4019 38.9457 12.701 38.7047 12.9148C38.4648 13.1276 38.0331 13.2351 37.4118 13.2351H37.1739L37 14L42.8025 13.998L42.9764 13.2341H42.3551C41.453 13.2341 41.0024 12.9921 41.0024 12.5053C41.0024 12.4159 41.0307 12.2473 41.0852 11.9983L41.9088 8.26494L43.7633 8.26293Z" fill="#020101"/>
<path fill-rule="evenodd" clip-rule="evenodd" d="M55.4344 8.63889C55.2131 9.6875 54.7589 10.6538 54.0727 11.5387C53.3866 12.4226 52.731 12.8661 52.106 12.8661C51.3156 12.8661 50.9203 12.1716 50.9203 10.7837C50.9214 9.40675 51.2839 8.06746 52.0101 6.76389C52.7363 5.46032 53.6364 4.80853 54.7093 4.80853C55.3702 4.80853 55.8455 5.0248 56.1332 5.45833L55.4344 8.63889ZM54.8727 12.505C54.8727 13.501 55.3628 13.999 56.343 13.999C57.2125 13.999 58.0978 13.6409 59 12.9256L58.6596 12.3998C58.1073 12.7103 57.6541 12.8651 57.3 12.8651C56.8889 12.8651 56.6834 12.5605 56.6834 11.9514C56.6844 11.4474 56.7751 10.7827 56.9595 9.95734L58.2475 4.19246H57.6414L56.8141 4.6498C56.1954 4.21627 55.4587 4 54.6081 4C53.0209 4 51.6887 4.70635 50.6136 6.11806C49.5375 7.52976 49 9.0625 49 10.7143C49 11.751 49.2118 12.5575 49.6376 13.1349C50.0634 13.7113 50.66 14 51.4252 14C52.8712 13.999 54.0453 13.0357 54.9465 11.1081H55.0656C54.937 11.6587 54.8727 12.125 54.8727 12.505Z" fill="#020101"/>
<path fill-rule="evenodd" clip-rule="evenodd" d="M62.7285 9.06985C62.9385 8.14797 63.3689 7.25947 64.0186 6.40435C64.6683 5.55021 65.3118 5.12118 65.9501 5.12118C66.726 5.12118 67.114 5.81431 67.113 7.19958C67.113 8.53773 66.7571 9.85526 66.0432 11.1512C65.3304 12.4471 64.4593 13.0951 63.431 13.0951C62.8537 13.0951 62.3664 12.884 61.9702 12.4609L62.7285 9.06985ZM62.3923 17.2519C61.5326 17.2529 61.1032 16.977 61.1032 16.4262C61.1032 16.2583 61.1591 15.9275 61.2739 15.4346L61.5274 14.3478C61.575 14.1574 61.6267 13.8697 61.6805 13.4868C62.1802 13.7597 62.7813 13.8952 63.4848 13.8952C65.0966 13.8952 66.4188 13.1805 67.4502 11.7511C68.4827 10.3226 68.999 8.81066 69 7.21725C69 6.17265 68.7962 5.37644 68.3906 4.82567C67.9851 4.2749 67.4058 3.99902 66.6536 4C65.2891 4 64.1604 4.85021 63.2696 6.54769H63.1806L63.6224 4.17476H60.347L60.1846 4.92286H60.3294C61.1891 4.92188 61.6195 5.20365 61.6195 5.76522C61.6195 5.89383 61.5647 6.20701 61.4571 6.70575L59 18H62.474L62.6365 17.2519H62.3923Z" fill="#020101"/>
<path fill-rule="evenodd" clip-rule="evenodd" d="M72.4788 11.8706C71.8935 11.8706 71.6017 11.5443 71.6017 10.8896C71.6017 10.5504 71.6691 10.0371 71.8039 9.34877L72.8028 4.2329L74.7997 4.23191L75 3.20735H73.0041L73.4306 1H72.6745C72.0679 2.67727 71.2278 3.51492 70.1532 3.51492L70 4.2329H71.2574L70.2493 9.40119C70.1422 9.955 70.0877 10.4574 70.0877 10.9074C70.0877 12.3028 70.6859 13.001 71.8824 13C72.6237 13 73.3641 12.7142 74.1054 12.1406L73.8239 11.476C73.3733 11.7391 72.9237 11.8706 72.4788 11.8706Z" fill="#020101"/>
<path fill-rule="evenodd" clip-rule="evenodd" d="M77 4.77055H77.1491C78.034 4.77055 78.4759 5.06039 78.4759 5.63805C78.4759 5.88346 78.4205 6.24601 78.3087 6.72975L77.5644 9.94021C77.3354 10.8946 77.2215 11.5661 77.2204 11.9539C77.2204 13.3072 77.8987 13.9838 79.2543 13.9838C79.9358 13.9828 80.547 13.7889 81.089 13.4011C81.631 13.0143 82.2454 12.2751 82.9323 11.1824H83.0814C83.0185 11.5884 82.9876 11.9489 82.9876 12.265C82.9876 12.7659 83.1346 13.18 83.4285 13.5082C83.7224 13.8364 84.1079 14 84.5849 14C85.3899 14 86.195 13.6597 87 12.98L86.6561 12.4427C86.2046 12.7124 85.7989 12.8457 85.44 12.8457C85.0183 12.8457 84.8075 12.5356 84.8085 11.9156C84.8085 11.4278 84.9044 10.7502 85.0971 9.88568L86.4069 4H84.5679L83.5744 8.5617C83.3444 9.58776 82.8535 10.5522 82.1006 11.4561C81.3488 12.3599 80.6482 12.8114 79.9965 12.8114C79.3778 12.8114 79.069 12.4387 79.069 11.6934C79.069 11.3298 79.1968 10.5936 79.4502 9.48374L80.7046 4.00101L77.1672 4.00202L77 4.77055Z" fill="#020101"/>
<path fill-rule="evenodd" clip-rule="evenodd" d="M95 5.26022C95 4.42007 94.4908 4 93.4714 4C92.8286 4 92.2641 4.19691 91.7789 4.58972C91.2927 4.98455 90.8023 5.72574 90.3046 6.81834H90.1126L90.5049 4.17974L87.2108 4.18075L87.0376 4.94921H87.193C88.1812 4.94921 88.6758 5.23801 88.6747 5.81662C88.6747 6.02464 88.6392 6.2993 88.5662 6.6396L87 14H88.7373L89.4395 10.6646C89.7494 9.25598 90.2273 7.99576 90.8732 6.87994C91.5191 5.76512 92.1306 5.20671 92.7076 5.20671C93.2043 5.20671 93.4536 5.6904 93.4536 6.65576C94.4845 6.65576 95 6.19126 95 5.26022Z" fill="#020101"/>
<path fill-rule="evenodd" clip-rule="evenodd" d="M98.3346 5.95635C98.854 5.22619 99.4129 4.86111 100.01 4.86111C100.73 4.86111 101.089 5.26389 101.089 6.06548C101.089 6.88492 100.734 7.55357 100.024 8.06944C99.3132 8.58532 98.4125 8.84226 97.3187 8.84226H97.1389C97.4163 7.64782 97.8152 6.68552 98.3346 5.95635ZM98.9673 12.8661C97.6085 12.8671 96.9281 12.0536 96.9291 10.4236C96.9291 10.0843 96.9416 9.83333 96.9665 9.66865C97.0808 9.68056 97.1919 9.68552 97.301 9.68552H97.6189C99.1221 9.68552 100.395 9.3254 101.437 8.60516C102.479 7.88393 103 7.0377 103 6.06448C103 5.41468 102.784 4.90774 102.353 4.54563C101.921 4.18155 101.312 4 100.528 4C98.933 4.00099 97.6137 4.65575 96.5686 5.96528C95.5225 7.2748 95 8.71429 95 10.2837C95 11.4375 95.3314 12.3462 95.9952 13.0069C96.66 13.6696 97.5327 14 98.6141 14C99.5927 14 100.373 13.7907 100.956 13.371C101.538 12.9524 101.83 12.503 101.83 12.0228C101.83 11.7996 101.767 11.6498 101.64 11.5744C100.915 12.4355 100.024 12.8661 98.9673 12.8661Z" fill="#020101"/>
<path fill-rule="evenodd" clip-rule="evenodd" d="M114.384 1C111.62 1.00101 109.747 2.37661 109.746 4.57697C109.745 9.14244 116.618 7.54548 116.618 10.4058C116.617 11.3964 115.727 11.9654 114.236 11.9654C112.873 11.9654 111.236 11.3064 109.927 10.0966L109 11.9664C110.308 13.1773 112.2 14.001 114.199 14C116.999 14 118.999 12.588 119 10.2957C119.019 5.67462 112.146 7.18061 112.147 4.37482C112.147 3.51267 112.964 3.03561 114.219 3.03561C115.183 3.03561 116.565 3.3833 117.947 4.22625L118.838 2.319C117.656 1.53164 116.038 1 114.384 1Z" fill="#020101"/>
<path fill-rule="evenodd" clip-rule="evenodd" d="M125.51 10.7012C124.985 10.9736 124.563 11.1172 124.157 11.1182C123.549 11.1182 123.194 10.8099 123.194 9.81517L123.195 5.19855H125.849L125.85 3.64206H123.196V1H121.269L121.268 3.64305H120V5.19955H121.268L121.267 10.1953C121.266 12.1679 122.432 13.001 123.785 13C124.545 13 125.29 12.7466 126 12.2946L125.51 10.7012Z" fill="#020101"/>
<path fill-rule="evenodd" clip-rule="evenodd" d="M130.99 12.3181C129.779 12.3181 129.043 11.7455 129.043 10.8582C129.043 9.91585 129.704 9.54605 131.123 9.54605L133.845 9.54503V10.4507C133.732 11.5234 132.541 12.317 130.99 12.3181ZM133.864 13.9063H136L135.983 7.45558C135.964 5.29381 134.509 4 131.919 4C130.008 4.00102 128.987 4.42685 127.588 5.23981L128.477 6.71801C129.479 6.05277 130.481 5.71964 131.445 5.71964C133.034 5.71964 133.846 6.45925 133.846 7.69601V7.99246H130.802C128.381 8.01182 127.001 9.15791 127 10.9509C127 12.6889 128.362 14 130.535 14C131.992 14 133.145 13.5742 133.864 12.7052V13.9063Z" fill="#020101"/>
<path fill-rule="evenodd" clip-rule="evenodd" d="M139.925 4.07506L138.002 4.07609L138 14H139.923L139.924 8.81337C140.074 7.11671 141.211 5.94036 142.999 6.05244L143 4C141.596 4 140.526 4.70951 139.924 6.05347L139.925 4.07506Z" fill="#020101"/>
<path fill-rule="evenodd" clip-rule="evenodd" d="M149.51 10.7014C148.986 10.9727 148.563 11.1174 148.157 11.1174C147.549 11.1184 147.194 10.8101 147.194 9.81443L147.195 5.1992H149.849V3.64283H147.195L147.196 1H145.269V3.64383H144.001L144 5.2002H145.268L145.267 10.1955C145.267 12.1679 146.433 13 147.785 13C148.546 13 149.289 12.7466 150 12.2936L149.51 10.7014Z" fill="#020101"/>
<path fill-rule="evenodd" clip-rule="evenodd" d="M161 4H158.931L158.93 8.8869C158.929 10.6225 157.956 11.9467 156.301 11.9848C154.916 11.9848 154.069 11.0707 154.069 9.57886L154.071 4.00103L152.001 4.00206L152 10.1762C151.999 12.5451 153.313 14 155.509 14C157.075 13.9794 158.281 13.3636 158.929 11.9848L158.928 13.9239H160.998L161 4Z" fill="#020101"/>
<path fill-rule="evenodd" clip-rule="evenodd" d="M167.992 11.8707C166.281 11.8716 165.072 10.6065 165.073 8.77305C165.073 6.9926 166.282 5.71076 167.993 5.70978C169.704 5.70978 170.911 7.00831 170.911 8.77206C170.91 10.5878 169.702 11.8707 167.992 11.8707ZM168.426 4C166.93 4.00098 165.777 4.60657 165.073 5.71076L165.074 4.07263H163.003L163 17L165.071 16.999L165.072 11.908C165.775 13.0112 166.928 13.6158 168.46 13.6158C171.198 13.6148 173 11.6744 173 8.84371C173.001 5.9581 171.145 4 168.426 4Z" fill="#020101"/>
<path fill-rule="evenodd" clip-rule="evenodd" d="M10.9829 23.9693L11 22L3.00286 22.002L3 35H5.00881L5.00976 29.6704L10.4199 29.6694V27.7206L5.00976 27.7216V23.9703L10.9829 23.9693Z" fill="#020101"/>
<path fill-rule="evenodd" clip-rule="evenodd" d="M14.9246 25.0751L13.0019 25.0761L13 35H14.9227L14.9237 29.8134C15.0743 28.1167 16.2111 26.9404 17.9991 27.0514L18 25C16.5956 25 15.5262 25.7095 14.9237 27.0524L14.9246 25.0751Z" fill="#020101"/>
<path fill-rule="evenodd" clip-rule="evenodd" d="M22.9893 33.3179C21.7795 33.3179 21.0417 32.7453 21.0428 31.8579C21.0428 30.9154 21.7043 30.5456 23.1227 30.5456H25.845V31.4503C25.7317 32.5222 24.541 33.3179 22.9893 33.3179ZM25.864 34.9073L28 34.9063L27.9831 28.4559C27.964 26.2929 26.5086 24.999 23.9186 25C22.0081 25 20.9867 25.4259 19.5874 26.2389L20.4765 27.7183C21.4778 27.053 22.4812 26.7198 23.4455 26.7198C25.0342 26.7178 25.8461 27.4585 25.8461 28.6964V28.9918L22.802 28.9929C20.3813 29.0112 19 30.1584 19 31.9506C19 33.6877 20.3612 35.001 22.5352 35C23.9916 35 25.1454 34.5751 25.864 33.705V34.9073Z" fill="#020101"/>
<path fill-rule="evenodd" clip-rule="evenodd" d="M42.4919 25C40.7469 25 39.4684 25.7279 38.8559 27.3872C38.4055 25.8769 37.2368 25.001 35.5271 25.001C33.9433 25.0021 32.7192 25.5994 32.0533 26.9965V25.0771H30.002L30 35H32.0513L32.0523 30.0941C32.0533 28.3587 33.0608 27.053 34.7161 26.9965C36.1205 26.9965 36.9668 27.9105 36.9658 29.4207L36.9648 34.9979H39.0342L39.0352 30.093C39.0352 28.3577 40.0266 27.052 41.6637 26.9944C43.0672 26.9944 43.9316 27.9084 43.9316 29.4197L43.9296 34.9959H45.999L46 28.8224C46.001 26.4547 44.6882 24.999 42.4919 25Z" fill="#020101"/>
<path fill-rule="evenodd" clip-rule="evenodd" d="M48.9741 29.2599C49.199 27.6858 50.222 26.7038 51.6764 26.7038C53.1841 26.7027 54.1702 27.6654 54.24 29.2589L48.9741 29.2599ZM51.6599 25C48.9227 25.0184 47 27.0376 47 30.0194C46.999 32.9829 48.8694 35.001 51.7093 35C53.3034 35 54.6201 34.3885 55.5208 33.332L54.464 32.1294C53.7891 32.8695 52.8709 33.2779 51.8654 33.2779C50.411 33.2779 49.3193 32.3336 49.008 30.8156L55.9717 30.8146C56.2151 27.2581 54.8984 24.999 51.6599 25Z" fill="#020101"/>
<path fill-rule="evenodd" clip-rule="evenodd" d="M69.5374 34.9979L73 25L70.9123 25.001L68.4851 32.856L66.0788 25.0021H63.9561L61.5649 32.8571L59.1057 25.0031L57 25.0041L60.4935 35L62.5993 34.999L65.0085 27.5955L67.4147 34.9979H69.5374Z" fill="#020101"/>
<path fill-rule="evenodd" clip-rule="evenodd" d="M78.0091 26.8332C79.7208 26.8332 80.9292 28.1285 80.9282 30.0179C80.9282 31.9246 79.7198 33.2209 78.0081 33.2219C76.2782 33.2219 75.0718 31.9266 75.0718 30.0189C75.0728 28.1295 76.2792 26.8332 78.0091 26.8332ZM78.0101 25C75.0375 25.001 73 27.02 73 30.0015C72.999 32.9637 75.0355 35 78.0081 35C80.9635 34.999 82.999 32.9616 83 29.9985C83 27.018 80.9655 25 78.0101 25Z" fill="#020101"/>
<path fill-rule="evenodd" clip-rule="evenodd" d="M86.9246 25.0751L85.0028 25.0761L85 35H86.9227L86.9237 29.8134C87.0743 28.1167 88.2111 26.9404 90 27.0514V25C88.5956 25 87.5271 25.7095 86.9246 27.0524V25.0751Z" fill="#020101"/>
<path fill-rule="evenodd" clip-rule="evenodd" d="M95.7129 29.724L98.5369 33.999L101 33.9981L97.1624 28.288L100.729 24.6783H98.3402L94.084 28.8481L94.086 21H92.003L92 34H94.083V31.3888L95.7129 29.724Z" fill="#020101"/>
</svg>
