<svg width="118" height="34" viewBox="0 0 118 34" fill="none" xmlns="http://www.w3.org/2000/svg">
<path fill-rule="evenodd" clip-rule="evenodd" d="M4.32495 31.6472C9.93525 30.4863 25.953 28.2343 31.8641 28.0183C35.4906 27.897 36.9219 28.3566 36.9993 30.0667C37.0159 30.4338 36.7544 30.8904 35.716 30.9253C24.9519 31.3161 8.24148 33.9321 3.60689 33.999C3.52558 34 3.44525 34 3.36394 34C3.28362 34 3.20231 33.9969 3.12296 33.9949C2.96328 33.9887 2.80654 33.9784 2.65372 33.964C2.34906 33.9383 2.06399 33.8941 1.82006 33.8386C1.33123 33.7285 1.00306 33.5712 1.00012 33.3912C0.983463 32.5161 2.75266 31.9825 4.32495 31.6472Z" fill="#020101"/>
<path fill-rule="evenodd" clip-rule="evenodd" d="M109.245 26.7284C106.896 26.5696 103.427 26.3807 99.3684 26.2329C95.3095 26.0851 90.6587 25.9884 85.95 26.0011C76.5396 26.0057 66.8666 26.5249 61.6151 26.9948C58.4145 27.2896 56.2077 27.5889 54.8329 27.9712C54.1449 28.1629 53.6648 28.3782 53.3678 28.6328C53.2199 28.7615 53.1179 28.8983 53.0592 29.048C53.0298 29.1228 53.0111 29.1985 53.0043 29.2788C53.0004 29.319 52.9994 29.361 53.0004 29.402C53.0023 29.444 53.0062 29.486 53.0141 29.5289C53.0376 29.6758 53.1905 29.8291 53.5775 29.9194C53.7706 29.9632 54.0215 29.9933 54.3429 29.9988C54.5036 30.0016 54.681 29.9997 54.8779 29.9915C55.0739 29.9815 55.2885 29.9669 55.5237 29.9459C74.9942 28.2797 103.125 29.069 110.77 28.6656C112.913 28.5717 115.037 28.2276 115 27.9429C114.901 27.2567 111.901 26.9301 109.245 26.7284Z" fill="#020101"/>
<path fill-rule="evenodd" clip-rule="evenodd" d="M5.47272 8.0092C5.78444 7.31669 6.61195 6.85502 7.50342 6.72393C8.54212 6.57004 9.62042 6.88922 9.84481 7.77266C10.1047 8.7891 9.51076 10.2406 8.85282 11.069C7.57145 10.3432 6.34795 9.47306 5.47272 8.0092ZM2.39825 10.044C3.42274 14.7794 9.45898 14.5286 9.99305 18.4823C10.2459 20.6349 8.61523 21.7501 6.75816 22.0161C5.04729 22.265 4.41981 21.1611 4.27461 19.8597C4.11317 18.4168 4.57414 17.2312 4.40153 16.0362C4.3203 15.4824 3.62479 15.5403 3.23693 15.604C2.27336 15.7674 1.41235 16.609 0.822432 17.7015C0.526965 18.2486 0.298512 18.8566 0.15941 19.4712C0.0883353 19.779 0.0406139 20.0877 0.0172609 20.3926C0.00507674 20.5456 0 20.6957 0 20.8448C0.00101535 20.993 0.00913813 21.1402 0.0223377 21.2846C0.409185 25.0293 3.55981 26.3326 6.8536 25.9298C11.0013 25.452 15.4993 21.8565 14.9551 17.4307C14.486 13.8599 12.1405 12.8169 9.84177 11.5895C11.9374 10.9312 13.0899 9.23842 12.6512 7.48103C11.9476 4.68725 9.33105 3.72211 6.88507 4.06694C3.74968 4.50676 1.58597 6.67833 2.39825 10.044Z" fill="#020101"/>
<path fill-rule="evenodd" clip-rule="evenodd" d="M18.274 8.05949C19.7029 7.8572 21.3808 6.76942 20.8468 4.61391C20.6929 3.9603 19.2383 1.86299 18.0251 2.00707C16.8004 2.1607 16.6902 4.63491 16.9268 5.6139C17.2945 7.0719 18.2731 8.05853 18.274 8.05949ZM19.4084 24.983C22.4401 24.6146 25.2866 20.484 24.9768 17.9201C24.898 17.2359 24.7431 16.9019 24.4676 16.9372C23.9584 16.9783 21.8824 20.9506 20.7851 21.1233C20.2568 21.1939 19.7827 20.9153 19.7229 20.3084C19.5718 18.6538 20.4516 15.1615 20.0801 12.7045C19.9804 12.0661 19.1433 10.1606 17.9804 10.3305C16.0014 10.6053 15.8029 16.0308 16.124 19.5823C16.4413 22.5784 17.2394 25.2387 19.4084 24.983Z" fill="#020101"/>
<path fill-rule="evenodd" clip-rule="evenodd" d="M34.4227 23.629C37.4599 23.3066 40.3093 18.9805 39.9729 16.3388C39.8876 15.6265 39.7295 15.2776 39.4525 15.3031C38.9426 15.309 36.8954 19.3686 35.7961 19.5302C35.5738 19.5538 35.4731 19.3646 35.4386 19.0089C35.3227 17.7263 36.1392 14.5212 35.684 11.8079C35.3553 9.81196 33.7911 8.77036 31.3002 9.04276C29.8309 9.20738 28.8888 9.90504 28.2783 10.7722C27.7723 9.98441 26.8177 9.01239 26.0404 9.11037C25.68 9.15545 25.3628 9.41903 25.105 10.0148C23.5351 13.5874 23.9587 16.3731 24.436 21.8447C24.5999 23.8318 24.9785 25.0988 25.9014 24.994C26.096 24.9704 26.3155 24.8764 26.533 24.747C28.3464 23.6349 28.8006 22.8912 28.7364 22.0544C28.6636 21.1196 27.9869 20.0682 27.8068 18.3867C27.7991 18.3152 27.7914 18.2427 27.7838 18.1712C27.9668 15.5843 29.0594 12.3224 30.5229 12.1568C31.4928 12.0411 31.8398 12.4321 31.9327 13.0337C32.1867 14.7465 31.536 16.1762 31.8666 19.5342C32.0736 21.6859 32.6726 23.7995 34.4227 23.629Z" fill="#020101"/>
<path fill-rule="evenodd" clip-rule="evenodd" d="M44.791 30.5296C44.0746 30.5727 42.9034 29.9845 42.8894 28.7818C42.8775 27.9153 44.1724 27.9506 46.9439 26.9929C46.3792 28.9367 45.6489 30.4835 44.791 30.5296ZM45.1322 19.1902C43.8362 19.2941 43.3753 18.0531 43.2316 16.8278C42.7049 12.455 45.9622 10.028 48.7835 9.4359C48.595 11.0925 48.3166 13.7146 48.173 15.6486C47.7001 17.9424 46.3662 19.102 45.1322 19.1902ZM49.9877 7.00198C49.4979 7.03041 49.025 7.29507 48.9142 8.2508C48.2209 7.96751 46.6356 7.77244 45.5402 7.85086C43.1468 8.01946 41.3501 9.57705 40.2916 11.2395C39.1263 13.1049 38.828 15.5976 39.0864 18.0384C39.4156 21.1095 41.372 23.2543 44.0537 23.0386C45.8964 22.8955 47.1524 22.0593 48.0233 20.9007C47.9355 21.6829 47.8428 22.525 47.7111 23.3572C43.5359 24.9187 40.1579 25.1177 40.2367 28.4711C40.2676 29.9855 40.7884 31.3951 41.6075 32.4096C42.0175 32.9184 42.5024 33.3281 43.0371 33.6045C43.3045 33.7437 43.5848 33.8486 43.8751 33.9143C44.1644 33.9819 44.4637 34.0104 44.77 33.9966C48.8993 33.8173 49.9458 29.4209 50.723 25.1873C54.6657 22.3622 57.2905 17.4964 56.9742 15.2036C56.8864 14.4939 56.7218 14.144 56.4355 14.1567C55.6603 14.191 54.6846 17.363 51.545 20.8693C52.405 15.9015 52.9647 10.9847 52.7003 9.53588C52.5876 8.87128 51.145 6.92944 49.9877 7.00198Z" fill="#020101"/>
<path fill-rule="evenodd" clip-rule="evenodd" d="M61.4366 2.49813C61.7718 2.49053 61.9394 2.66435 62.0023 3.03956C62.2594 4.61445 60.5747 5.54913 58.7167 9.25365C58.7624 4.87662 60.2262 2.55512 61.4366 2.49813ZM61.628 20.9894C64.6145 20.8127 67.2915 16.7957 66.9744 14.2946C66.8954 13.6155 66.742 13.2764 66.4687 13.2792C66.2487 13.2849 65.9268 13.549 65.5868 14.1474C64.7888 15.4905 63.6955 16.9904 61.7537 17.0664C60.3852 17.13 59.3119 16.0386 59.0377 13.8558C58.9881 13.4645 58.9367 13.0798 58.8843 12.6989C61.6452 7.95137 65.3488 5.32971 64.8907 2.21221C64.6764 0.807346 63.5803 -0.0313958 61.9747 0.000900036C56.0664 0.300111 54.2941 7.50873 55.2398 14.7829C55.7474 19.1172 58.611 21.167 61.628 20.9894Z" fill="#020101"/>
<path fill-rule="evenodd" clip-rule="evenodd" d="M71.3959 9.26267C71.9736 9.26267 72.2876 9.52033 72.3457 9.91196C72.5027 10.9885 71.2807 11.4682 69.8855 12.5007C69.9245 10.7543 70.2928 9.26549 71.3959 9.26267ZM72.8415 17.1919C71.8317 17.2097 70.1995 16.8302 70.0225 15.1906C69.9959 14.9442 69.9683 14.6997 69.9397 14.4579C72.6645 13.0197 76.1183 12.5457 75.69 9.46692C75.4844 8.02219 74.2015 7.01031 72.1239 7C68.24 7.05434 65.4476 10.3167 66.0929 16.0516C66.4336 19.3946 68.8519 21.0848 71.3064 20.9967C77.5535 20.755 79.179 16.0498 78.9849 14.5469C78.9135 13.8892 78.766 13.5557 78.4928 13.551C77.8714 13.4938 76.4457 17.0954 72.8415 17.1919Z" fill="#020101"/>
<path fill-rule="evenodd" clip-rule="evenodd" d="M77.5041 6.91602C76.9643 7.60997 76.9406 8.02692 77.0564 8.87928C77.0782 9.03867 77.2025 9.14753 77.4225 9.15142C77.8343 9.15822 78.246 9.16502 78.6577 9.1728C78.4784 10.9261 78.4775 12.8787 78.6606 14.6758C79.0021 17.9113 79.8702 21.0078 81.6499 21C84.6013 20.931 88.2252 17.2202 87.989 14.7671C87.9293 14.0965 87.787 13.7534 87.5147 13.7408C87.2974 13.733 86.9692 13.974 86.6163 14.5397C85.8621 15.7167 83.6848 17.2173 83.034 17.2163C82.6014 17.2115 82.3472 16.3474 82.2276 15.0917C82.1091 13.7865 82.0294 11.1516 82.1318 9.12906C82.9297 9.15142 84.458 9.339 84.8973 9.35649C85.309 9.36912 85.5006 7.90057 85.4646 7.56429C85.4295 7.24841 85.3906 7.14345 85.1136 7.13276C84.5045 7.10846 83.6421 7.04917 82.3662 6.98405C82.6688 6.36981 82.9771 5.76042 83.2911 5.152C82.8936 4.05569 82.4601 3.03226 81.2505 3.00019C80.2373 2.97978 79.4565 4.59996 78.9926 6.91991C78.3883 6.93157 77.8627 6.92185 77.5041 6.91602Z" fill="#020101"/>
<path fill-rule="evenodd" clip-rule="evenodd" d="M97.4982 12.9378C97.4634 12.4918 97.6722 11.9052 98.0161 11.9306C98.4734 11.9618 98.6782 12.4108 98.714 12.8812C98.7558 13.4355 98.6683 14.1519 98.38 14.8429C97.8621 14.3266 97.5559 13.66 97.4982 12.9378ZM94.1451 7.01264C89.1786 6.76474 86.597 10.1933 87.0513 14.634C87.3465 17.5971 89.3387 20.9066 93.6103 20.9984C95.8331 21.0511 97.6344 19.8204 98.8611 18.2617C99.4307 18.413 100.025 18.5057 100.671 18.5418C102.553 18.6472 104.121 17.5483 103.993 15.3309C103.956 14.6848 103.821 14.3159 103.537 14.2924C102.826 14.231 102.536 15.9116 100.418 15.7749C100.361 15.7701 100.305 15.7662 100.248 15.7632C100.605 14.7863 100.763 13.7966 100.701 12.888C100.585 11.184 99.5838 9.85663 97.704 9.72683C95.2148 9.55798 94.0606 11.3274 94.2117 12.9837C94.3618 14.6653 95.2098 16.1243 96.5419 17.1198C95.9743 17.478 95.2834 17.6596 94.4652 17.6244C92.4333 17.5405 91.3428 16.0394 91.1867 14.3305C90.8666 10.9575 93.0238 8.93238 96.365 9.13051C98.042 9.24079 98.6076 9.0983 98.5917 8.85626C98.544 8.08231 96.3063 7.13659 94.1451 7.01264Z" fill="#020101"/>
<path fill-rule="evenodd" clip-rule="evenodd" d="M112.018 21.9938C115.029 22.1465 117.994 19.4426 118 17.2033C118 17.1284 117.998 17.0573 117.994 16.9909C117.991 16.9245 117.985 16.8619 117.977 16.804C117.962 16.6893 117.94 16.5916 117.909 16.51C117.846 16.3488 117.748 16.2587 117.607 16.2426C117.056 16.1696 114.634 19.0803 113.568 18.9987C113.345 18.9769 113.257 18.8081 113.249 18.5141C113.212 17.4613 114.31 14.9793 114.351 12.4318C114.384 10.5625 113.046 9.24513 110.411 9.00233C108.864 8.85722 107.752 9.31247 106.985 9.97257C106.596 9.15503 105.8 8.06814 104.982 8.00364C104.602 7.9714 104.224 8.15065 103.859 8.64004C101.683 11.5517 101.898 14.0792 102.16 18.9342C102.255 20.6954 102.603 21.8553 103.52 21.8904C103.715 21.8999 103.934 21.8506 104.154 21.7709C105.985 21.0862 106.461 20.5551 106.429 19.8409C106.394 19.049 105.761 18.0446 105.685 16.5698C105.682 16.5062 105.678 16.4418 105.675 16.3782C105.995 14.2044 107.519 11.5375 109.054 11.6816C110.058 11.7784 110.347 12.2014 110.356 12.7533C110.381 14.3097 109.543 15.4421 109.662 18.2931C109.738 20.1169 110.278 21.8838 112.018 21.9938Z" fill="#020101"/>
</svg>
