<svg width="77" height="34" viewBox="0 0 77 34" fill="none" xmlns="http://www.w3.org/2000/svg">
<path fill-rule="evenodd" clip-rule="evenodd" d="M4.15258 32.9823C4.16942 32.8666 4.21101 32.757 4.27836 32.6573V32.6075C4.34471 32.3404 4.4794 32.155 4.68143 32.0553C4.81414 31.9546 4.94883 31.8719 5.08352 31.8041C5.21722 31.7383 5.31824 31.6217 5.38558 31.4533C5.41826 31.3526 5.46085 31.2699 5.51136 31.2031C5.56186 31.1363 5.60346 31.0705 5.63713 31.0028C5.70448 30.8363 5.74607 30.6938 5.76291 30.5772C5.77974 30.4595 5.8045 30.318 5.83917 30.1506C5.87185 29.9502 5.92236 29.7578 5.9897 29.5735C6.05605 29.3901 6.05605 29.1817 5.9897 28.9475C6.02238 28.7811 6.04021 28.6305 6.04021 28.496C6.04021 28.3624 5.9897 28.2119 5.88868 28.0445V27.9946V26.7916C5.88868 26.5912 5.87185 26.4407 5.83917 26.3411C5.8045 26.1078 5.81342 25.8806 5.86392 25.6633C5.91443 25.447 5.92236 25.2217 5.88868 24.9875C5.88868 24.8539 5.89661 24.7284 5.91443 24.6107C5.93028 24.4941 5.93919 24.3695 5.93919 24.235C5.87185 23.9679 5.83025 23.6828 5.81342 23.3818C5.79658 23.0818 5.78866 22.7987 5.78866 22.5306C5.78866 22.3641 5.77974 22.1887 5.76291 22.0043C5.74607 21.8209 5.73815 21.6445 5.73815 21.478V21.0763V20.0238C5.73815 19.7228 5.85501 19.4218 6.09072 19.1218C6.15707 19.056 6.22442 18.9802 6.29176 18.8955C6.3591 18.8128 6.34227 18.6882 6.24125 18.5207C6.3086 18.4868 6.35019 18.4699 6.36703 18.4699C6.38386 18.4699 6.42546 18.454 6.4928 18.4211C6.6265 18.3872 6.75228 18.3613 6.87112 18.3443C6.98798 18.3284 7.11376 18.3702 7.24746 18.4699C7.28113 18.5038 7.36531 18.4868 7.5 18.4211C7.53268 18.3533 7.56635 18.3194 7.60003 18.3194C7.6337 18.3194 7.66737 18.3024 7.70104 18.2696C7.80206 18.2696 7.90209 18.2616 8.0031 18.2446C8.10412 18.2287 8.20415 18.2187 8.30516 18.2187C8.57355 18.1529 8.77459 18.12 8.90928 18.12C9.07665 18.12 9.144 18.2028 9.11033 18.3702C9.11033 18.6035 9.1024 18.8297 9.08458 19.047C9.06774 19.2653 9.05982 19.4896 9.05982 19.7228C9.02614 19.8912 9.00931 20.0487 9.00931 20.2002V20.6757C8.97564 20.876 8.95088 21.2109 8.93404 21.6784C8.91721 22.1468 8.89146 22.6392 8.85877 23.1565C8.8251 23.6758 8.79935 24.1682 8.78351 24.6357C8.76568 25.1041 8.75776 25.438 8.75776 25.6384C8.72409 26.1078 8.79143 26.659 8.95979 27.2929C9.02614 27.7624 9.16876 28.188 9.38763 28.5707C9.60452 28.9555 9.83131 29.3322 10.067 29.7C10.2344 29.8994 10.3681 29.8994 10.4691 29.7C10.5701 29.4987 10.7038 29.398 10.8722 29.398C11.0732 29.3322 11.2911 29.3322 11.5268 29.398H11.7278C11.7942 29.398 11.8615 29.3651 11.9289 29.2974C11.9289 29.1987 11.9794 29.1987 12.0804 29.2974C12.2815 29.3651 12.4152 29.3143 12.4825 29.1479L12.5835 28.9475C12.6509 28.7462 12.7677 28.7143 12.9361 28.8468C13.0698 28.9146 13.1698 28.9475 13.2381 28.9475C13.4055 28.9804 13.355 29.0063 13.0866 29.0223C12.8182 29.0392 12.7172 28.9645 12.7846 28.797C12.8856 28.6305 12.9856 28.5967 13.0866 28.6973C13.2887 28.797 13.456 28.797 13.5897 28.6973C13.7244 28.5967 13.8502 28.505 13.968 28.4212C14.0849 28.3375 14.1938 28.2448 14.2949 28.1451C14.4286 28.0126 14.4959 27.9119 14.4959 27.8441C14.5296 27.577 14.5633 27.3348 14.5969 27.1165C14.6296 26.9002 14.5969 26.659 14.4959 26.3899V26.2404C14.4959 26.1397 14.5038 26.0401 14.5217 25.9394C14.5375 25.8387 14.5464 25.739 14.5464 25.6384C14.5791 25.5387 14.5969 25.3553 14.5969 25.0872C14.5969 24.9875 14.6048 24.8868 14.6217 24.7862C14.6385 24.6865 14.6474 24.5858 14.6474 24.4852V21.0275C14.6801 20.9268 14.6969 20.8351 14.6969 20.7514C14.6969 20.6677 14.7138 20.575 14.7475 20.4753V20.1245C14.8148 19.957 14.8653 19.7916 14.899 19.6231C14.9317 19.4567 14.9158 19.2892 14.8485 19.1218V18.9722C14.9495 18.6364 14.9653 18.3373 14.899 18.0682V17.9187C14.9653 17.6845 14.9911 17.4502 14.9743 17.217C14.9574 16.9838 14.9495 16.7485 14.9495 16.5153C14.9822 16.3479 14.9911 16.1894 14.9743 16.0379C14.9574 15.8884 14.9495 15.7299 14.9495 15.5624C14.9158 15.4618 14.9069 15.3541 14.9237 15.2365C14.9406 15.1199 14.9495 15.0113 14.9495 14.9106V13.9587V13.4574C14.9495 13.3906 14.9574 13.3328 14.9743 13.2819C14.9911 13.2321 15 13.1733 15 13.1055C15 12.9391 14.9911 12.7806 14.9743 12.6301C14.9574 12.4796 14.9495 12.3211 14.9495 12.1536V11.9533C14.9158 11.7201 14.8812 11.4858 14.8485 11.2506C14.8148 11.0184 14.798 10.7682 14.798 10.4991C14.7643 10.1662 14.7475 9.84022 14.7475 9.52227V8.54448V8.44381C14.7138 8.14379 14.689 7.85075 14.6722 7.56669C14.6544 7.28262 14.6138 7.00653 14.5464 6.7394L14.3959 5.83736C14.3622 5.67091 14.3365 5.51941 14.3206 5.38684C14.3028 5.25328 14.2612 5.11872 14.1938 4.98516C14.1938 4.95227 14.2018 4.91838 14.2196 4.88449C14.2364 4.85259 14.2444 4.81871 14.2444 4.78482C14.3117 4.65126 14.2949 4.53364 14.1938 4.43397C14.1265 4.26752 14.0344 4.07515 13.9175 3.85686C13.7997 3.64057 13.6571 3.4811 13.4897 3.38142C13.355 3.24786 13.2045 3.18108 13.0361 3.18108C12.8014 3.24786 12.633 3.19803 12.533 3.02958H12.4825C12.2141 3.23092 11.9457 3.24786 11.6773 3.08041C11.5427 3.01363 11.4258 2.98871 11.3248 3.00466C11.2247 3.0216 11.1406 3.02958 11.0732 3.02958C10.9395 2.99669 10.8217 2.99669 10.7207 3.02958C10.6206 3.06347 10.5028 3.09835 10.3681 3.13025C10.2681 3.13025 10.2007 3.18108 10.167 3.28075C10.0997 3.31464 10.0581 3.35651 10.0413 3.40634C10.0244 3.45618 9.98283 3.51499 9.91549 3.58077C9.98283 3.71632 10.0492 3.80005 10.1165 3.83194C10.2849 3.9994 10.4196 4.11701 10.5196 4.18279C10.5523 4.25057 10.587 4.3014 10.6206 4.3333C10.6533 4.36719 10.6711 4.40008 10.6711 4.43397C10.6711 4.53364 10.6781 4.64328 10.6959 4.7589C10.7127 4.87751 10.7038 4.98516 10.6711 5.08583C10.6028 5.45263 10.5523 5.81244 10.5196 6.1623C10.4859 6.51414 10.4354 6.87396 10.3681 7.24076C10.3354 7.50888 10.3186 7.76703 10.3186 8.0182C10.3186 8.26938 10.3007 8.52753 10.2681 8.79565C10.2007 9.12956 10.1581 9.45549 10.1423 9.77245C10.1245 10.0904 10.0997 10.4153 10.067 10.7512C10.0324 10.9845 10.0165 11.2008 10.0165 11.4021C10.0165 11.6024 9.98283 11.8197 9.91549 12.053C9.88182 12.2214 9.86597 12.3789 9.86597 12.5304V13.0058V13.2062C9.83131 13.4065 9.73128 13.4902 9.56292 13.4574H9.21134H8.60722L8.0031 13.6079C7.93576 13.6407 7.85158 13.6577 7.75155 13.6577C7.65053 13.6577 7.56635 13.6916 7.5 13.7574C6.89588 14.0594 6.25809 14.2587 5.58662 14.3584C5.55295 14.3933 5.4866 14.4102 5.38558 14.4102C5.38558 14.177 5.36874 14.0085 5.33507 13.9089C5.33507 13.8421 5.35191 13.7913 5.38558 13.7574C5.41826 13.4902 5.38558 13.2062 5.28555 12.9052C5.25089 12.8394 5.23505 12.7557 5.23505 12.655C5.23505 12.5224 5.26773 12.3211 5.33507 12.053V11.8526C5.3014 11.7519 5.26773 11.6443 5.23505 11.5267C5.20137 11.4101 5.16671 11.2855 5.13403 11.1519C5.10036 11.0851 5.06668 11.0094 5.03301 10.9247C4.99934 10.8429 4.9825 10.7682 4.9825 10.6994C4.94883 10.4991 4.92407 10.2987 4.90724 10.0984C4.8904 9.89803 4.88248 9.71464 4.88248 9.54719C4.8488 9.44652 4.83989 9.33887 4.85673 9.22126C4.87356 9.10464 4.86465 8.99599 4.83197 8.89533C4.83197 8.79565 4.82306 8.69498 4.80721 8.59431C4.78938 8.49464 4.78146 8.39397 4.78146 8.2943C4.74779 7.99329 4.73095 7.6843 4.73095 7.36634V6.38855C4.73095 6.35566 4.76462 6.27293 4.83197 6.13738C4.93299 6.0377 4.94883 5.90514 4.88248 5.73669C4.81414 5.63702 4.7983 5.53635 4.83197 5.43568C4.86465 5.337 4.93299 5.26923 5.03301 5.23634C5.16671 5.23634 5.25089 5.20245 5.28555 5.13666C5.28555 4.96822 5.21722 4.86854 5.08352 4.83565C4.94883 4.76887 4.82306 4.69312 4.70619 4.6084C4.58834 4.52666 4.44573 4.45091 4.27836 4.38314C4.21101 4.31735 4.12782 4.28346 4.02681 4.28346C3.89212 4.28346 3.74059 4.20173 3.57421 4.03328C3.50588 3.93261 3.43952 3.88178 3.37218 3.88178C3.30483 3.84889 3.22858 3.83194 3.14539 3.83194C3.0612 3.83194 2.98594 3.816 2.91859 3.78311L2.86907 3.73227C2.8354 3.83194 2.78489 3.94956 2.71755 4.08212C2.61752 4.01534 2.52443 3.9665 2.44124 3.93261C2.35706 3.89972 2.26495 3.84889 2.16394 3.78311C2.06391 3.94956 1.98765 4.10804 1.93814 4.25854C1.88763 4.40905 1.91239 4.56753 2.0134 4.73498C2.11343 4.83565 2.13027 4.98516 2.06391 5.1855C1.99558 5.62107 1.93814 6.0377 1.88763 6.43839C1.83712 6.84007 1.77869 7.2577 1.71134 7.69227C1.67668 7.96039 1.644 8.21855 1.61033 8.46972C1.57665 8.7199 1.52615 8.97805 1.45979 9.24617C1.35877 9.68174 1.25875 10.0984 1.15773 10.4991C1.05671 10.9007 0.972534 11.3194 0.90618 11.7519C0.837845 12.1536 0.780404 12.5633 0.729896 12.9809C0.679387 13.3985 0.620956 13.8241 0.553612 14.2587C0.486267 14.6275 0.452595 14.9694 0.452595 15.2873C0.452595 15.6043 0.435759 15.9312 0.402086 16.2641C0.402086 16.3648 0.394163 16.4565 0.377327 16.5392C0.359501 16.623 0.352568 16.7157 0.352568 16.8153C0.317906 17.2509 0.284233 17.6675 0.251552 18.0682C0.217879 18.4699 0.184207 18.8875 0.150535 19.3221C0.116863 19.7916 0.0921035 20.2491 0.0752674 20.7016C0.0584313 21.1521 0.0326819 21.6116 0 22.08V23.5333V24.0596C0 24.2439 0.0168361 24.4184 0.0505084 24.5858C0.0831903 24.8201 0.10894 25.0363 0.125776 25.2377C0.142612 25.438 0.150535 25.6553 0.150535 25.8885C0.184207 26.1567 0.217879 26.4158 0.251552 26.666C0.284233 26.9182 0.30206 27.1763 0.30206 27.4434C0.30206 27.7783 0.293147 28.1043 0.276311 28.4212C0.259474 28.7392 0.251552 29.0641 0.251552 29.398C0.251552 29.4658 0.242638 29.5416 0.226793 29.6233C0.208966 29.708 0.201043 29.7828 0.201043 29.8495C0.233725 30.1506 0.259474 30.4506 0.276311 30.7516C0.293147 31.0516 0.352568 31.3526 0.452595 31.6536C0.519939 31.8879 0.595207 32.1061 0.679387 32.3055C0.762578 32.5058 0.837845 32.7411 0.90618 33.0072C0.972534 33.1756 1.05671 33.3082 1.15773 33.4089C1.25875 33.5085 1.37561 33.6092 1.5103 33.7099C1.94507 34.0109 2.38182 34.0777 2.81857 33.9102C2.88591 33.9102 2.93543 33.9272 2.97009 33.9601C3.13746 33.9939 3.27116 33.9272 3.37218 33.7597C3.37218 33.7268 3.3801 33.6939 3.39694 33.659C3.41377 33.6262 3.42269 33.5933 3.42269 33.5594C3.49003 33.4926 3.53163 33.4338 3.54846 33.3839C3.5653 33.3341 3.60689 33.2753 3.67424 33.2085C3.74059 33.2414 3.80001 33.2584 3.85052 33.2584C3.90103 33.2584 3.95946 33.2753 4.02681 33.3082C4.09316 33.2085 4.13476 33.0999 4.15258 32.9823Z" fill="#020101"/>
<path fill-rule="evenodd" clip-rule="evenodd" d="M23.0136 1.87333C23.046 1.941 23.0382 1.98906 22.9881 2.02241C22.938 2.05478 22.9134 2.10382 22.9134 2.16953C22.9468 2.23721 22.9802 2.24407 23.0136 2.19601C23.046 2.14501 23.0637 2.15384 23.0637 2.22053C23.0303 2.38433 23.0048 2.42454 22.9881 2.34313C22.9714 2.26074 22.9301 2.30194 22.8633 2.46671C22.7965 2.59716 22.7296 2.79528 22.6638 3.05813C22.6638 3.1572 22.6461 3.22193 22.6137 3.25528C22.5469 3.51813 22.4811 3.78981 22.4142 4.06934C22.3474 4.34887 22.2806 4.61957 22.2148 4.8834C22.2148 4.98246 22.1804 5.09722 22.1145 5.22766C22.0477 5.39342 22.0222 5.57389 22.0399 5.77103C22.0556 5.96817 21.9976 6.14962 21.865 6.31341C21.8974 6.47818 21.8974 6.61844 21.865 6.73319C21.8316 6.84893 21.7814 6.97251 21.7146 7.10295C21.6812 7.16867 21.6724 7.23536 21.6901 7.3001C21.7058 7.36679 21.6979 7.43152 21.6645 7.49724C21.6645 7.56393 21.6478 7.63847 21.6154 7.7189C21.581 7.80226 21.5476 7.87582 21.5152 7.94154C21.5152 8.00725 21.4985 8.08964 21.465 8.18772C21.4316 8.28678 21.4316 8.37015 21.465 8.43488C21.4985 8.53394 21.4906 8.61633 21.4405 8.68204C21.3904 8.74776 21.3658 8.82916 21.3658 8.92822C21.3324 8.99492 21.298 9.07632 21.2656 9.17538C21.2322 9.27346 21.2155 9.37253 21.2155 9.47159C21.1821 9.56967 21.1487 9.66775 21.1152 9.76779C21.0818 9.86489 21.0818 9.96395 21.1152 10.063C21.1152 10.1611 21.0985 10.2278 21.0661 10.2592C20.9983 10.4573 20.9325 10.6466 20.8657 10.828C20.7988 11.0075 20.733 11.1978 20.6662 11.3949C20.6328 11.5597 20.6239 11.7157 20.6407 11.8628C20.6583 12.0109 20.6328 12.1511 20.566 12.2826V12.4307V12.5788C20.4992 12.7435 20.4667 12.924 20.4667 13.1211C20.4667 13.3173 20.4333 13.4997 20.3665 13.6635C20.3331 13.7292 20.3164 13.8607 20.3164 14.0588C20.3164 14.1559 20.2997 14.2393 20.2673 14.305C20.2329 14.3717 20.225 14.4541 20.2417 14.5512C20.2584 14.6492 20.2673 14.7326 20.2673 14.7983C20.2673 14.8974 20.2496 14.9454 20.2172 14.9454C20.1494 15.0778 20.1248 15.2014 20.1415 15.3162C20.1582 15.4319 20.1494 15.5378 20.1169 15.6369C20.1169 15.7036 20.1336 15.7683 20.167 15.834C20.1995 15.9007 20.1837 15.9655 20.1169 16.0312V16.4019C20.1169 16.5177 20.1002 16.6559 20.0668 16.8207C20 16.9855 19.9833 17.1414 20.0167 17.2895C20.0501 17.4376 20.0668 17.5936 20.0668 17.7574C20.0668 17.8574 20.0835 17.9555 20.1169 18.0536C20.1494 18.1526 20.1336 18.235 20.0668 18.2998V18.3998V18.4479C20.1336 18.5146 20.1494 18.596 20.1169 18.695C20.0835 18.7294 20.0668 18.7941 20.0668 18.8922C20.0668 18.9912 20.0747 19.0903 20.0914 19.1884C20.1081 19.2874 20.1169 19.4022 20.1169 19.5336V20.126V20.6439C20.1169 20.8243 20.1336 21.0136 20.167 21.2118V21.2598C20.1002 21.3913 20.0747 21.5158 20.0914 21.6306C20.1081 21.7463 20.1169 21.8689 20.1169 22.0003V22.987V23.0361C20.0167 23.1351 20.0167 23.2332 20.1169 23.3313C20.1837 23.4647 20.2172 23.5784 20.2172 23.6775C20.2172 23.7766 20.2329 23.8746 20.2673 23.9737C20.2997 24.1375 20.3164 24.2787 20.3164 24.3925C20.3164 24.5082 20.3331 24.6475 20.3665 24.8123C20.4992 25.0751 20.566 25.4371 20.566 25.898C20.5994 26.0618 20.6495 26.2423 20.7163 26.4394C20.7821 26.6376 20.7988 26.819 20.7664 26.9818C20.7664 27.0152 20.7821 27.0318 20.8165 27.0318C20.8824 27.0975 20.9069 27.1554 20.8912 27.2035C20.8735 27.2535 20.8824 27.3123 20.9158 27.3771C20.9158 27.4438 20.9482 27.5742 21.016 27.7714L21.1654 28.3638L21.2155 28.4128C21.2823 28.3804 21.3157 28.4295 21.3157 28.5599C21.3481 28.6266 21.357 28.709 21.3403 28.8071C21.3236 28.9061 21.3324 28.9895 21.3658 29.0542C21.4316 29.2524 21.5152 29.3838 21.6154 29.4485C21.6812 29.5152 21.7058 29.5898 21.6901 29.6712C21.6724 29.7526 21.6812 29.8271 21.7146 29.8928C21.7814 29.9585 21.8404 30.0331 21.8895 30.1155C21.9396 30.1979 21.9809 30.2714 22.0143 30.3361C22.0811 30.5666 22.1971 30.7559 22.3641 30.904C22.5302 31.0521 22.6461 31.2414 22.7139 31.4719C22.8466 31.57 22.9635 31.7024 23.0637 31.8662C23.163 32.032 23.3133 32.13 23.5128 32.1624C23.5796 32.1624 23.6287 32.1791 23.6631 32.2105C23.6955 32.2448 23.7456 32.2605 23.8125 32.2605C23.8449 32.2605 23.8783 32.2771 23.9127 32.3095C23.9451 32.3438 23.9952 32.3762 24.062 32.4086C24.1289 32.4419 24.179 32.4576 24.2124 32.4576C24.2448 32.4576 24.2949 32.4743 24.3617 32.5067C24.5612 32.5734 24.7607 32.6234 24.9611 32.6557C25.1606 32.6881 25.361 32.7538 25.5605 32.8519C25.6263 32.8862 25.702 32.9186 25.7845 32.9519C25.8681 32.9843 25.9427 33 26.0095 33C26.1422 33 26.2591 32.9931 26.3593 32.9755C26.4596 32.9598 26.5755 32.9686 26.7092 33H26.8595C26.9253 32.9343 27 32.9019 27.0835 32.9019C27.1661 32.9019 27.2584 32.8862 27.3577 32.8519C27.5581 32.8519 27.6908 32.8195 27.7576 32.7538C27.8244 32.6881 27.8824 32.6557 27.9325 32.6557C27.9826 32.6557 28.0406 32.64 28.1074 32.6057C28.3737 32.54 28.5731 32.4419 28.7068 32.3095C28.8394 32.2105 28.9642 32.1045 29.0811 31.9888C29.1971 31.874 29.3386 31.8338 29.5056 31.8662C29.6383 31.6681 29.7385 31.5376 29.8053 31.4719C29.938 31.3405 30.0215 31.2738 30.0549 31.2738C30.1207 31.2414 30.2209 31.159 30.3546 31.0276C30.4548 30.8628 30.5707 30.7638 30.7044 30.7314C30.8036 30.7 30.8537 30.6167 30.8537 30.4842C30.8537 30.3871 30.9206 30.2714 31.0542 30.139C31.1534 30.0086 31.2694 29.9017 31.403 29.8193C31.5357 29.7369 31.6526 29.6143 31.7528 29.4485C31.7852 29.3838 31.8275 29.3583 31.8776 29.375C31.9277 29.3916 31.969 29.3671 32.0024 29.3014C32.0692 29.17 32.1439 29.0542 32.2274 28.9562C32.3099 28.8571 32.3846 28.7423 32.4514 28.6099C32.5182 28.4795 32.5851 28.3971 32.6519 28.3638C32.6843 28.3638 32.702 28.2824 32.702 28.1166C32.6018 28.1509 32.5182 28.1833 32.4514 28.2157C32.3846 28.249 32.3188 28.298 32.252 28.3638C32.252 28.4295 32.2186 28.4628 32.1527 28.4628C31.9857 28.4952 31.8353 28.5364 31.7027 28.5854C31.57 28.6345 31.4197 28.6766 31.2536 28.709C31.0866 28.7423 30.9284 28.7669 30.7791 28.7835C30.6287 28.8002 30.4705 28.8247 30.3045 28.8571C29.7051 28.9895 29.0723 29.0876 28.4071 29.1523C28.24 29.1857 28.0907 29.2259 27.957 29.2759C27.8244 29.3259 27.6741 29.3181 27.508 29.2524C27.4412 29.2524 27.4078 29.269 27.4078 29.3014C27.341 29.3671 27.283 29.3838 27.2329 29.3495C27.1837 29.3181 27.1415 29.3014 27.1081 29.3014C27.0413 29.269 26.9587 29.2023 26.8595 29.1033C26.7917 28.8414 26.7416 28.66 26.7092 28.5599L26.6089 28.3638C26.5421 28.298 26.5166 28.249 26.5343 28.2157C26.551 28.1833 26.5421 28.1333 26.5097 28.0676C26.4419 27.9371 26.3918 27.8125 26.3593 27.6978C26.3259 27.583 26.2758 27.4595 26.209 27.328C26.1422 27.2623 26.1098 27.1878 26.1098 27.1064C26.1098 27.025 26.0921 26.9494 26.0597 26.8837C26.0597 26.7533 26.043 26.6375 26.0095 26.5385C25.9761 26.4394 25.9427 26.3247 25.9103 26.1932C25.8769 26.0295 25.8513 25.9225 25.8356 25.8715C25.8179 25.8235 25.8268 25.7333 25.8602 25.6008C25.8602 25.4704 25.8425 25.388 25.8101 25.3547C25.7767 25.3223 25.76 25.2399 25.76 25.1085C25.6932 24.7789 25.6519 24.467 25.6352 24.1708C25.6185 23.8746 25.5929 23.5627 25.5605 23.2332C25.4927 23.1685 25.4927 23.0851 25.5605 22.987C25.5929 22.9546 25.5762 22.9046 25.5104 22.8389C25.5104 22.7389 25.5015 22.6339 25.4858 22.5172C25.4681 22.4044 25.4603 22.2965 25.4603 22.1975C25.4603 21.967 25.4269 21.7865 25.361 21.6551C25.3266 21.5904 25.2932 21.5315 25.2608 21.4825C25.2274 21.4334 25.2441 21.3756 25.3109 21.3089C25.2775 21.2118 25.2687 21.1127 25.2854 21.0136C25.3021 20.9156 25.2775 20.8165 25.2107 20.7174C25.1105 20.6194 25.1105 20.5693 25.2107 20.5693C25.2441 20.5046 25.252 20.4634 25.2353 20.4458C25.2186 20.4301 25.2107 20.3889 25.2107 20.3232C25.2107 20.126 25.2274 19.9769 25.2608 19.8789C25.2608 19.8141 25.2687 19.7553 25.2854 19.7062C25.3021 19.6562 25.2775 19.6003 25.2107 19.5336C25.1439 19.4669 25.1439 19.3786 25.2107 19.2619C25.2775 19.1472 25.361 19.0579 25.4603 18.9912C25.5271 18.9255 25.6018 18.8843 25.6853 18.8677C25.7678 18.852 25.8425 18.8108 25.9103 18.7451C25.9761 18.6793 26.0508 18.647 26.1343 18.647C26.2179 18.647 26.2925 18.596 26.3593 18.4979H26.5097C26.6757 18.4979 26.8339 18.49 26.9843 18.4734C27.1336 18.4577 27.2908 18.4655 27.4579 18.4979H27.7576C27.9236 18.4979 28.0573 18.4655 28.1575 18.3998C28.1899 18.3674 28.2322 18.3586 28.2823 18.3753C28.3324 18.392 28.3894 18.3674 28.4572 18.2998C28.6232 18.235 28.7569 18.1615 28.8561 18.0791C28.9563 17.9967 29.089 17.9222 29.256 17.8574C29.2885 17.8574 29.314 17.8319 29.3307 17.7819C29.3474 17.7329 29.372 17.6917 29.4054 17.6593C29.4722 17.6269 29.5882 17.6093 29.7552 17.6093C29.9881 17.2493 30.2544 17.0669 30.554 17.0669C30.7535 16.805 30.9363 16.6403 31.1033 16.5736C31.1701 16.5736 31.2202 16.549 31.2536 16.501C31.2861 16.451 31.3362 16.3941 31.403 16.3274V16.2293C31.4698 16.1636 31.57 16.0969 31.7027 16.0312C31.7695 15.9655 31.7774 15.9086 31.7282 15.8586C31.6781 15.8085 31.686 15.7516 31.7528 15.6859C31.7852 15.6536 31.8029 15.6045 31.8029 15.5378C31.8029 15.4721 31.853 15.3907 31.9523 15.2926C31.9523 15.2259 31.9601 15.1759 31.9778 15.1436C31.9945 15.1112 32.0024 15.0612 32.0024 14.9955L32.0525 14.9454C32.1851 14.914 32.2854 14.865 32.3522 14.7983C32.418 14.7326 32.4848 14.6669 32.5517 14.6012C32.5851 14.4707 32.6018 14.305 32.6018 14.1078V14.0088C32.6686 13.8773 32.7521 13.795 32.8513 13.7626C33.0842 13.7626 33.2336 13.6469 33.3014 13.4183C33.3672 13.2859 33.4419 13.1702 33.5254 13.0721C33.6089 12.973 33.6836 12.875 33.7504 12.7749C33.7828 12.7092 33.8172 12.6455 33.8506 12.5788C33.8831 12.514 33.9332 12.4473 34 12.3806C33.9008 12.3493 33.8005 12.3326 33.7003 12.3326C33.6335 12.2992 33.5755 12.2904 33.5254 12.3071C33.4753 12.3247 33.4173 12.3326 33.3515 12.3326C33.151 12.2335 32.9339 12.2159 32.702 12.2826C32.535 12.2826 32.3768 12.2904 32.2274 12.3071C32.078 12.3247 31.9189 12.3493 31.7528 12.3806H31.5533C31.3863 12.3149 31.236 12.3149 31.1033 12.3806C30.9707 12.4473 30.837 12.4964 30.7044 12.5297C30.5707 12.5621 30.4548 12.5954 30.3546 12.6268C30.2544 12.6611 30.1374 12.6935 30.0048 12.7259L28.9563 12.875L28.9062 12.924C28.807 12.9897 28.6979 13.0221 28.582 13.0221C28.465 13.0221 28.3393 13.0554 28.2076 13.1211C28.1398 13.1869 28.0072 13.2192 27.8077 13.2192C27.6407 13.2526 27.508 13.2938 27.4078 13.3438C27.3085 13.3928 27.1749 13.4183 27.0088 13.4183C26.942 13.4831 26.8418 13.5154 26.7092 13.5154C26.5755 13.5154 26.4753 13.5654 26.4095 13.6635C26.4095 13.6969 26.3761 13.7126 26.3092 13.7126C26.2424 13.7459 26.1844 13.7626 26.1343 13.7626C26.0842 13.7626 26.0262 13.7793 25.9604 13.8116C25.8926 13.8773 25.8356 13.9107 25.7845 13.9107C25.7354 13.9107 25.6764 13.9283 25.6106 13.9597C25.477 13.9597 25.3935 13.8773 25.361 13.7126C25.2932 13.5488 25.2932 13.385 25.361 13.2192C25.4269 13.0554 25.4436 12.8916 25.4102 12.7259C25.477 12.6611 25.5015 12.5788 25.4858 12.4797C25.4681 12.3806 25.477 12.2992 25.5104 12.2335C25.5104 12.0687 25.4603 11.8873 25.361 11.6902C25.361 11.3616 25.3768 11.1321 25.4102 11.0007C25.4102 10.9349 25.3935 10.8849 25.361 10.8526C25.361 10.7859 25.3522 10.7123 25.3355 10.6299C25.3188 10.5475 25.3109 10.4749 25.3109 10.4083C25.3109 10.3749 25.3188 10.3425 25.3355 10.3102C25.3522 10.2768 25.361 10.2435 25.361 10.2101C25.3266 9.94727 25.3109 9.70109 25.3109 9.47159C25.3109 9.2411 25.2932 8.99492 25.2608 8.7301V8.633C25.2932 8.30345 25.2932 7.95821 25.2608 7.5963C25.2608 7.56393 25.2687 7.53156 25.2854 7.49724C25.3021 7.46487 25.3109 7.43152 25.3109 7.39818C25.2775 7.3001 25.2932 7.20986 25.361 7.12747C25.4269 7.04607 25.4436 6.95485 25.4102 6.85579C25.3433 6.62629 25.361 6.41247 25.4603 6.21533V6.01819C25.4269 5.85342 25.4927 5.65627 25.6597 5.42579C25.7266 5.26297 25.8101 5.22766 25.9103 5.32771C26.043 5.39342 26.1599 5.37577 26.2591 5.27867C26.3259 5.21197 26.3918 5.17961 26.4596 5.17961C26.5254 5.14626 26.6256 5.12958 26.7593 5.12958C26.8919 5.09722 27.0088 5.06387 27.1081 5.0315C27.2083 4.99914 27.3243 4.96481 27.4579 4.93244C27.6239 4.86771 27.7988 4.7765 27.9826 4.66076C28.1654 4.54699 28.357 4.48912 28.5564 4.48912C28.5898 4.48912 28.6065 4.48128 28.6065 4.4646C28.6065 4.44793 28.6232 4.4391 28.6567 4.4391C29.0222 4.27531 29.3386 4.01245 29.6049 3.65054C29.6717 3.58482 29.7385 3.51813 29.8053 3.4534C29.8711 3.38768 29.9547 3.32295 30.0549 3.25528C30.1207 3.25528 30.1551 3.20525 30.1551 3.10717C30.2544 2.87767 30.4047 2.71191 30.6042 2.61383C30.7044 2.58147 30.7535 2.49908 30.7535 2.36765C30.7535 2.16953 30.7702 2.03908 30.8036 1.97239C30.8704 1.90766 30.9284 1.86646 30.9785 1.84881C31.0286 1.83312 31.0866 1.8086 31.1534 1.77525V1.72621V1.67717C31.0866 1.47905 31.1033 1.36429 31.2035 1.33095C31.3038 1.29956 31.3784 1.25739 31.4286 1.20835C31.4787 1.15832 31.5357 1.11811 31.6035 1.08476C31.8029 0.986685 31.9022 0.788563 31.9022 0.493342C31.9022 0.460976 31.911 0.435475 31.9277 0.418802C31.9444 0.403109 31.9523 0.378589 31.9523 0.345242C31.8186 0.246181 31.5858 0.163794 31.2536 0.09808C30.9864 0.0323664 30.7535 0 30.554 0C30.387 0 30.2209 0.0088272 30.0549 0.02452C29.8878 0.0411936 29.7218 0.0666944 29.5557 0.09808C29.3887 0.131427 29.2226 0.163794 29.0556 0.197141C28.8885 0.229507 28.7235 0.262854 28.5564 0.296202L28.5063 0.345242C28.4071 0.378589 28.3147 0.410955 28.2322 0.443322C28.1487 0.476669 28.0573 0.510016 27.957 0.542382C27.8902 0.542382 27.8244 0.559056 27.7576 0.592403C27.6908 0.62477 27.6239 0.657136 27.5581 0.689502C27.3911 0.756197 27.2329 0.830738 27.0835 0.912144C26.9342 0.994531 26.775 1.06907 26.6089 1.13479C26.5097 1.19952 26.3918 1.19265 26.2591 1.11027C26.1255 1.02788 26.0095 1.01905 25.9103 1.08476C25.7433 1.18284 25.6519 1.30643 25.6352 1.45453C25.6185 1.60263 25.5271 1.59478 25.361 1.43001C25.361 1.39862 25.3188 1.40549 25.2353 1.45453C25.1517 1.50455 25.0938 1.51337 25.0604 1.47905C24.9935 1.41431 24.9189 1.43883 24.8363 1.55359C24.7528 1.66932 24.6614 1.70953 24.5612 1.67717C24.4944 1.61047 24.4688 1.59478 24.4865 1.62813C24.5032 1.66049 24.4777 1.67717 24.4118 1.67717C24.2782 1.67717 24.179 1.66049 24.1122 1.62813C24.0119 1.59478 23.9284 1.59478 23.8626 1.62813C23.5629 1.75956 23.3133 1.75956 23.1138 1.62813C23.046 1.66049 23.0136 1.74288 23.0136 1.87333Z" fill="#020101"/>
<mask id="mask0_149_1250" style="mask-type:luminance" maskUnits="userSpaceOnUse" x="38" y="0" width="16" height="34">
<path fill-rule="evenodd" clip-rule="evenodd" d="M53.7331 0.0454102L38.0793 0.0454102L38.0793 33.4184H53.7331V0.0454102V0.0454102Z" fill="white"/>
</mask>
<g mask="url(#mask0_149_1250)">
<path fill-rule="evenodd" clip-rule="evenodd" d="M39.1651 10.5806C39.098 10.6456 39.0478 10.6791 39.0143 10.6791C38.8802 10.6791 38.8644 10.6289 38.964 10.5293C38.9975 10.4643 39.0143 10.3983 39.0143 10.3322C39.0143 10.2662 39.0813 10.2495 39.2153 10.283C39.1818 10.349 39.1651 10.4485 39.1651 10.5806ZM38.9147 21.9307C38.9147 21.7661 38.9975 21.6823 39.1651 21.6823C39.2981 21.6823 39.3652 21.7484 39.3652 21.8804C39.3652 22.0125 39.2981 22.0795 39.1651 22.0795C38.9975 22.0795 38.9147 22.0302 38.9147 21.9307ZM38.7895 13.9264C38.8388 13.9431 38.8802 13.9836 38.9147 14.0496C38.9807 14.1481 38.9975 14.2151 38.964 14.2477C38.964 14.3472 38.9147 14.3965 38.8142 14.3965C38.7472 14.3965 38.6801 14.364 38.6141 14.2969C38.5806 14.1649 38.5806 13.9993 38.6141 13.8012C38.6801 13.8682 38.7393 13.9096 38.7895 13.9264ZM49.3596 5.72204C49.3093 6.01967 49.2334 6.3163 49.1339 6.61393C49.0334 6.84552 48.9161 7.06036 48.783 7.25845C48.649 7.45851 48.5149 7.67138 48.3828 7.90297C48.2153 8.19961 48.0487 8.48935 47.8811 8.77022C47.7136 9.05207 47.547 9.32506 47.3804 9.58819C47.2129 9.88581 47.0374 10.1588 46.8541 10.4062C46.6708 10.6545 46.445 10.9107 46.1779 11.1749C45.9108 11.4064 45.6348 11.6124 45.352 11.7938C45.0671 11.9771 44.7921 12.1495 44.525 12.3151C44.3574 12.4136 44.2076 12.5122 44.0736 12.6127C43.9405 12.7113 43.8065 12.8108 43.6734 12.9084L42.7715 13.5036C42.7715 13.5371 42.7548 13.5539 42.7213 13.5539C42.5537 13.6859 42.4039 13.7027 42.2708 13.6022C42.2038 13.5371 42.1703 13.4632 42.1703 13.3804V13.1577C42.2038 13.0247 42.2285 12.8926 42.2452 12.7605C42.262 12.6295 42.2866 12.4954 42.3211 12.3634V12.1653C42.2866 12.0007 42.2787 11.8519 42.2955 11.7198C42.3122 11.5868 42.3369 11.439 42.3704 11.2744C42.4039 11.1088 42.4207 10.96 42.4207 10.828C42.4207 10.6959 42.4374 10.5471 42.4709 10.3815C42.5044 10.216 42.5212 10.0356 42.5212 9.83654C42.5212 9.63746 42.5537 9.45712 42.6217 9.29057C42.6543 9.125 42.6631 8.97717 42.6464 8.84512C42.6296 8.71306 42.6217 8.56425 42.6217 8.39967C42.6543 8.30013 42.6789 8.19271 42.6966 8.07642C42.7134 7.96112 42.738 7.8537 42.7715 7.75416C42.8721 7.42401 42.9223 7.0781 42.9223 6.71346C42.9223 6.48286 42.9381 6.26013 42.9716 6.04332C43.0051 5.82946 43.0554 5.60674 43.1224 5.37515C43.1895 5.17706 43.2723 5.00361 43.3728 4.8548C43.4733 4.70697 43.5896 4.54929 43.7237 4.38373C43.8903 4.15312 44.0825 3.96193 44.2993 3.8141C44.5161 3.66529 44.7251 3.50859 44.9262 3.34303C45.5934 2.88083 46.2942 2.59996 47.0295 2.50042C47.2631 2.46888 47.5312 2.50042 47.8309 2.59996C47.9974 2.66599 48.1482 2.72413 48.2823 2.77341C48.4154 2.82268 48.5662 2.89659 48.7327 2.99712C48.8333 3.06315 48.9249 3.14593 49.0087 3.24349C49.0915 3.34303 49.1664 3.44158 49.2334 3.54112C49.4345 3.90575 49.535 4.31868 49.535 4.7799C49.467 5.11201 49.4099 5.42541 49.3596 5.72204ZM38.1627 28.4725C38.2297 28.5395 38.3292 28.6055 38.4633 28.6706C38.8309 28.8696 39.0645 29.1505 39.1651 29.5132C39.2656 29.7783 39.3652 30.0434 39.4657 30.3065C39.5652 30.5716 39.6658 30.8357 39.7663 31.0998C39.8323 31.3314 39.9832 31.4467 40.2167 31.4467H40.7677C41.1354 31.4142 41.4192 31.2319 41.6193 30.9018L41.7701 30.6041C41.9032 30.4396 41.9367 30.2415 41.8697 30.0089C41.8362 29.8778 41.8194 29.7113 41.8194 29.5132C41.7859 29.3496 41.778 29.2008 41.7948 29.0677C41.8115 28.9357 41.8027 28.7869 41.7701 28.6213C41.7356 28.4557 41.711 28.2823 41.6942 28.1009C41.6775 27.9206 41.6696 27.7462 41.6696 27.5806C41.6361 27.416 41.6105 27.2751 41.5947 27.1588C41.5769 27.0445 41.5858 26.9036 41.6193 26.738C41.6193 26.672 41.6026 26.6227 41.5691 26.5892C41.502 26.326 41.4774 26.0531 41.4941 25.7712C41.5109 25.4913 41.5198 25.2193 41.5198 24.9542C41.5198 24.7887 41.5267 24.6398 41.5444 24.5078C41.5612 24.3767 41.5355 24.2269 41.4695 24.0613C41.4025 23.8642 41.4025 23.6809 41.4695 23.5164C41.502 23.2858 41.502 23.0374 41.4695 22.7733V22.5249C41.4695 22.2933 41.4774 22.0716 41.4941 21.8558C41.5109 21.6419 41.5198 21.4015 41.5198 21.1373C41.5198 21.0378 41.5109 20.9314 41.4941 20.8151C41.4774 20.6998 41.4695 20.5914 41.4695 20.4928C41.502 20.3273 41.5267 20.1548 41.5444 19.9715C41.5612 19.7921 41.5691 19.6177 41.5691 19.4511C41.6026 19.3861 41.6193 19.3368 41.6193 19.3033C41.6193 19.2708 41.6361 19.2205 41.6696 19.1535C41.7701 18.9574 41.8864 18.9229 42.0205 19.056C42.121 19.1535 42.1871 19.2373 42.2206 19.3033C42.4207 19.5684 42.6129 19.8168 42.7972 20.0464C42.9795 20.278 43.2052 20.5106 43.4733 20.7412L43.5226 20.7895C43.6567 21.0546 43.7818 21.294 43.8991 21.5089C44.0154 21.7247 44.1406 21.9474 44.2747 22.178L45.0257 23.5164C45.1263 23.6809 45.2337 23.8642 45.352 24.0613C45.4683 24.2594 45.5599 24.4575 45.627 24.6566C45.7945 25.0528 45.9611 25.442 46.1277 25.8205C46.2942 26.2009 46.4953 26.5734 46.7289 26.9361C46.929 27.2672 47.1054 27.6141 47.2552 27.9768C47.4051 28.3414 47.5973 28.6883 47.8309 29.0175C47.9974 29.2826 48.1571 29.5467 48.3069 29.8108C48.4577 30.0759 48.6154 30.339 48.783 30.6041C48.85 30.7707 48.9338 30.9431 49.0334 31.1245C49.1339 31.3068 49.2167 31.4802 49.2837 31.6448C49.5173 32.0755 49.7844 32.4056 50.086 32.6362C50.2526 32.7358 50.4024 32.8274 50.5365 32.9092C50.6695 32.992 50.8193 33.0817 50.9869 33.1812C51.188 33.3133 51.4206 33.3882 51.6887 33.404C51.9558 33.4217 52.1894 33.3636 52.3895 33.2305C52.6231 33.1655 52.7906 33.1812 52.8912 33.2808C52.9907 33.4463 53.108 33.4621 53.2411 33.33L53.4421 33.2305C53.7083 33.0659 53.7921 32.8678 53.6925 32.6362C53.5585 32.174 53.3919 31.8104 53.1908 31.5453C53.1248 31.4802 53.0735 31.4053 53.041 31.3226C53.0075 31.2398 52.9572 31.1669 52.8912 31.0998C52.8232 31.0013 52.766 30.9018 52.7157 30.8022C52.6655 30.7027 52.6073 30.6041 52.5403 30.5046C52.4723 30.4051 52.4062 30.2986 52.3402 30.1833C52.2722 30.067 52.2061 29.9606 52.1391 29.8601C52.1056 29.8276 52.0977 29.8029 52.1145 29.7862C52.1312 29.7704 52.1224 29.7458 52.0889 29.7113C52.0218 29.5802 51.9716 29.456 51.939 29.3407C51.9055 29.2244 51.8553 29.118 51.7892 29.0175C51.6887 28.8529 51.5881 28.6952 51.4876 28.5474C51.3881 28.3986 51.2875 28.2419 51.188 28.0753C51.0874 27.9107 50.9869 27.7708 50.8874 27.6545C50.7868 27.5392 50.6863 27.4002 50.5867 27.2337C50.4527 27.0681 50.3275 26.9114 50.2112 26.7616C50.0929 26.6138 49.9855 26.4404 49.885 26.2433C49.7174 25.7476 49.5173 25.3011 49.2837 24.9049C49.2167 24.7719 49.1418 24.6398 49.059 24.5078C48.9752 24.3767 48.8993 24.2427 48.8333 24.1116C48.7662 23.9786 48.6992 23.8554 48.6322 23.7391C48.5662 23.6238 48.5149 23.4838 48.4824 23.3183C48.2488 22.657 47.9482 22.0962 47.5815 21.6321C47.4465 21.4675 47.3055 21.3029 47.1547 21.1373C47.0049 20.9718 46.8452 20.8062 46.6796 20.6416L45.9276 19.8986C45.6595 19.667 45.4091 19.3693 45.1765 19.0057C45.1085 18.9397 45.0671 18.8658 45.0513 18.783C45.0336 18.7012 44.9922 18.6253 44.9262 18.5602C44.6916 18.2626 44.7251 17.9818 45.0257 17.7167C45.1263 17.6516 45.209 17.5688 45.2771 17.4693C45.4091 17.2712 45.6102 17.1224 45.8773 17.0238C46.245 16.8908 46.4953 16.676 46.6294 16.3783C46.6619 16.2473 46.7457 16.1487 46.8797 16.0817C47.0128 16.0157 47.138 15.9575 47.2552 15.9082C47.3716 15.858 47.4967 15.8008 47.6308 15.7348C47.8309 15.7023 47.9817 15.7348 48.0812 15.8333C48.1818 15.9654 48.299 15.9654 48.4321 15.8333L48.7327 15.5357C48.7662 15.5042 48.7998 15.4796 48.8333 15.4628C48.8658 15.4451 48.8993 15.4047 48.9338 15.3376C49.0334 15.2066 49.125 15.0903 49.2088 14.9907C49.2916 14.8922 49.3842 14.7769 49.4848 14.6448C49.4848 14.6113 49.4927 14.5788 49.5094 14.5443C49.5262 14.5128 49.535 14.4793 49.535 14.4448C49.5676 14.4132 49.5843 14.3797 49.5843 14.3472C49.5843 14.3137 49.6011 14.2812 49.6346 14.2477C49.8682 14.0161 50.086 13.752 50.2861 13.4543C50.4527 13.2888 50.5779 13.1163 50.6616 12.934C50.7444 12.7527 50.8371 12.5792 50.9366 12.4136C51.0037 12.2491 51.0786 12.1002 51.1623 11.9672C51.2451 11.8361 51.3378 11.7041 51.4383 11.57C51.4383 11.5385 51.4462 11.5218 51.463 11.5218C51.4797 11.5218 51.4876 11.505 51.4876 11.4725C51.5546 11.2409 51.6384 11.0339 51.739 10.8526C51.8385 10.6713 51.9055 10.4643 51.939 10.2317C51.9716 10.1007 52.0051 9.98535 52.0396 9.88581C52.0721 9.78628 52.1056 9.67097 52.1391 9.53891C52.1726 9.44036 52.2061 9.34871 52.2397 9.26593C52.2722 9.18413 52.2722 9.09248 52.2397 8.99294C52.2061 8.86187 52.2061 8.74558 52.2397 8.64703C52.2722 8.54749 52.3225 8.43219 52.3895 8.30013C52.3895 8.26662 52.3974 8.24199 52.4151 8.22523C52.4309 8.20946 52.4397 8.18384 52.4397 8.15132C52.4062 7.91973 52.4397 7.70488 52.5403 7.5068C52.6398 7.30871 52.6566 7.09387 52.5905 6.86228C52.5561 6.82975 52.5728 6.78048 52.6398 6.71346C52.6398 6.61393 52.6487 6.51538 52.6655 6.41584C52.6822 6.3163 52.6566 6.20199 52.5905 6.06993C52.5225 5.90436 52.4811 5.72204 52.4654 5.52494C52.4476 5.32488 52.423 5.12778 52.3895 4.92871C52.356 4.76413 52.3225 4.60645 52.2899 4.45862C52.2564 4.30981 52.1726 4.15312 52.0396 3.98755C51.939 3.82297 51.8306 3.67317 51.7133 3.54112C51.596 3.41004 51.4876 3.26123 51.3881 3.09567C51.188 2.83057 50.978 2.59996 50.7622 2.40088C50.5443 2.2028 50.3019 2.00471 50.0358 1.80564C49.9352 1.74158 49.8268 1.66668 49.7095 1.5839C49.5922 1.50112 49.4848 1.42622 49.3842 1.36117C49.2502 1.29515 49.125 1.21926 49.0087 1.13746C48.8914 1.05567 48.7662 0.980768 48.6322 0.913754C48.165 0.684131 47.6308 0.485058 47.0295 0.319493C46.4618 0.153928 45.8852 0.0632611 45.3017 0.0465074C44.7162 0.0307393 44.1406 0.153928 43.5729 0.419029C43.2052 0.584594 42.8386 0.765928 42.4709 0.964015C42.1033 1.1621 41.7524 1.3937 41.4192 1.65781C41.1511 1.85688 40.9008 2.05497 40.6672 2.25306C40.4336 2.45115 40.2335 2.68274 40.0669 2.94587C39.9329 3.17845 39.8323 3.45833 39.7663 3.78848C39.7663 3.95503 39.716 4.10483 39.6155 4.23491L39.4657 4.38372C39.3652 4.64883 39.2479 4.90407 39.1148 5.15242C38.9807 5.39978 38.8802 5.657 38.8142 5.92013C38.8142 5.98715 38.7964 6.03642 38.7639 6.06993C38.7304 6.23451 38.6969 6.3912 38.6644 6.54001C38.6308 6.68883 38.5806 6.82975 38.5136 6.96181C38.48 6.96181 38.4633 6.99532 38.4633 7.06036V7.70488C38.4633 7.83694 38.4544 7.969 38.4386 8.10204C38.4209 8.2341 38.4465 8.36616 38.5136 8.49822C38.5136 8.56425 38.4968 8.63126 38.4633 8.6963V8.89538C38.4633 9.25903 38.413 9.63746 38.3135 10.0356C38.2455 10.3658 38.2297 10.6131 38.2632 10.7777C38.3292 10.8457 38.3292 10.9107 38.2632 10.9768C38.1962 11.1088 38.1627 11.232 38.1627 11.3473C38.1627 11.4636 38.1459 11.5868 38.1134 11.7198C38.1134 11.8194 38.1045 11.9258 38.0878 12.0421C38.071 12.1574 38.0789 12.2491 38.1134 12.3151C38.1459 12.4797 38.1627 12.728 38.1627 13.0572V13.2562H38.5136C38.5471 13.2562 38.5638 13.273 38.5638 13.3055C38.5638 13.339 38.5806 13.3558 38.6141 13.3558C38.5471 13.4218 38.4968 13.4543 38.4633 13.4543H38.2632C38.2297 13.5204 38.2129 13.6189 38.2129 13.752C38.1794 13.9175 38.1627 14.1481 38.1627 14.4448C38.1962 14.5443 38.2297 14.636 38.2632 14.7178C38.2957 14.8015 38.28 14.8922 38.2129 14.9907C38.28 15.1898 38.2711 15.3869 38.1883 15.587C38.1045 15.7841 38.1292 15.9822 38.2632 16.1812C38.2632 16.3458 38.28 16.4877 38.3135 16.6011C38.346 16.7183 38.3292 16.8425 38.2632 16.9736C38.2632 17.0731 38.28 17.1559 38.3135 17.2219C38.3135 17.3205 38.3214 17.419 38.3381 17.5186C38.3549 17.6191 38.3637 17.7334 38.3637 17.8664C38.3963 17.9975 38.413 18.1217 38.413 18.238C38.413 18.3543 38.4298 18.4607 38.4633 18.5602C38.5638 18.5602 38.6466 18.577 38.7136 18.6085C38.8142 18.6085 38.8644 18.6923 38.8644 18.8569C38.8309 18.9229 38.8142 18.9899 38.8142 19.056C38.8142 19.122 38.7964 19.2038 38.7639 19.3033C38.6644 19.3033 38.5806 19.3201 38.5136 19.3526V19.799C38.5136 19.9311 38.4968 20.0809 38.4633 20.2445C38.3963 20.5106 38.3963 20.7579 38.4633 20.9895C38.4968 21.2201 38.5303 21.4429 38.5638 21.6577C38.5963 21.8725 38.5806 22.0962 38.5136 22.3269C38.5136 22.4599 38.5303 22.5585 38.5638 22.6245C38.6308 22.7556 38.6466 22.8896 38.6141 23.0207C38.5806 23.0877 38.5638 23.2187 38.5638 23.4168V23.814C38.6308 24.0121 38.6644 24.1441 38.6644 24.2102V24.4575C38.5963 24.5571 38.5963 24.7226 38.6644 24.9542C38.7304 25.1523 38.7895 25.3583 38.8388 25.5731C38.8891 25.7889 38.9147 26.0117 38.9147 26.2433C38.9147 26.4078 38.897 26.5567 38.8644 26.6887C38.897 26.6887 38.9216 26.6808 38.9394 26.6641C38.9561 26.6473 38.9975 26.6562 39.0645 26.6887C39.1651 26.6887 39.2153 26.738 39.2153 26.8385C39.2153 26.9036 39.1473 26.9361 39.0143 26.9361C38.8467 26.9696 38.7964 27.0859 38.8644 27.283C38.9305 27.2514 39.0143 27.2337 39.1148 27.2337C39.2153 27.2997 39.2656 27.3825 39.2656 27.4811C39.2656 27.5806 39.2153 27.6476 39.1148 27.6801C38.9807 27.7462 38.9058 27.7964 38.8891 27.828C38.8723 27.8615 38.897 27.9452 38.964 28.0753C38.964 28.1098 38.9719 28.1423 38.9896 28.1758C39.0064 28.2093 39.0143 28.2419 39.0143 28.2744C38.9807 28.3079 38.964 28.3483 38.964 28.3986C38.964 28.4478 38.9472 28.4892 38.9147 28.5227H38.8142C38.7472 28.5227 38.7136 28.506 38.7136 28.4725C38.5471 28.4074 38.3637 28.3897 38.1627 28.4232V28.4725Z" fill="#020101"/>
</g>
<path fill-rule="evenodd" clip-rule="evenodd" d="M70.4309 9.77509C70.4309 10.0422 70.466 10.2418 70.5363 10.3739C70.6056 10.6073 70.6852 10.8228 70.7731 11.0234C70.86 11.223 70.9386 11.4405 71.0089 11.6729L71.0616 11.7732C71.0968 11.9391 71.1226 12.09 71.1412 12.2221C71.1578 12.3552 71.1671 12.5051 71.1671 12.671C71.2012 12.8388 71.2198 12.9957 71.2198 13.1467V13.6204C71.254 13.8876 71.2798 14.1616 71.2984 14.4447C71.315 14.7277 71.3418 15.0187 71.377 15.3186V16.6176C71.3418 17.4508 71.3418 18.2831 71.377 19.1143C71.377 19.3487 71.3853 19.581 71.4029 19.8134C71.4204 20.0468 71.3946 20.2971 71.3243 20.5632C71.254 20.8969 71.2105 21.2207 71.1929 21.5375C71.1754 21.8543 71.1319 22.1949 71.0616 22.5614V23.185C71.0616 23.4025 71.044 23.6101 71.0089 23.8097C71.0089 23.9775 70.9913 24.1434 70.9562 24.3092C70.921 24.4761 70.8858 24.6419 70.8517 24.8098C70.8517 24.9419 70.8166 25.1752 70.7462 25.5079C70.6759 25.8078 70.6056 26.0998 70.5363 26.3829C70.466 26.6659 70.3957 26.9569 70.3254 27.2578C70.3254 27.3233 70.3171 27.3819 70.2996 27.4306C70.282 27.4812 70.2737 27.5398 70.2737 27.6064C70.1682 28.1059 69.9397 28.4882 69.5902 28.7554C69.4496 28.8875 69.3183 29.0215 69.1963 29.1546C69.0732 29.2877 68.9243 29.4208 68.7496 29.5548C68.5738 29.7207 68.3628 29.8538 68.1188 29.9531C67.7683 30.0872 67.4529 30.0037 67.1727 29.7038C66.8221 29.4039 66.5419 29.0633 66.332 28.6799C66.1221 28.2966 65.9288 27.9222 65.754 27.5557C65.4035 26.8903 65.1574 26.2746 65.0178 25.7075C64.9475 25.4424 64.8689 25.1832 64.782 24.9339C64.6941 24.6836 64.6848 24.4264 64.7551 24.1593C64.7551 23.9934 64.72 23.8941 64.6507 23.8604C64.5794 23.76 64.5535 23.6687 64.5711 23.5853C64.5887 23.5018 64.5794 23.4105 64.5452 23.3102C64.5101 23.1106 64.5101 22.9189 64.5452 22.7371C64.5794 22.5534 64.5794 22.3618 64.5452 22.1621C64.4749 21.896 64.4305 21.6298 64.4139 21.3627C64.3953 21.0965 64.3694 20.8304 64.3343 20.5632C64.3343 20.4639 64.3167 20.3805 64.2826 20.313C64.2112 20.1134 64.1595 19.8978 64.1244 19.6645C64.0892 19.4321 64.0365 19.2146 63.9672 19.015C63.9321 18.9157 63.9145 18.7657 63.9145 18.5651C63.8793 18.3992 63.8524 18.2334 63.8359 18.0656C63.8173 17.9007 63.7739 17.7339 63.7046 17.567C63.6332 17.3674 63.625 17.1678 63.6777 16.9672C63.7304 16.7676 63.7563 16.568 63.7563 16.3673L63.9145 15.1687C63.9486 14.969 63.9848 14.7684 64.0199 14.5698C64.0541 14.3692 64.0892 14.1706 64.1244 13.971C64.1947 13.7376 64.2381 13.5122 64.2557 13.2957C64.2733 13.0792 64.3167 12.8557 64.387 12.6223C64.4573 12.4217 64.5101 12.2301 64.5452 12.0473C64.5794 11.8646 64.6145 11.6908 64.6507 11.523C64.72 11.3561 64.7893 11.1068 64.8606 10.7732C64.9299 10.507 64.9919 10.2488 65.0447 9.99953C65.0974 9.75026 65.176 9.49205 65.2815 9.2259C65.2815 9.19312 65.2887 9.1673 65.3073 9.15042C65.3249 9.13354 65.3332 9.10871 65.3332 9.07494C65.3683 8.91009 65.3942 8.74225 65.4117 8.57541C65.4293 8.40956 65.4552 8.24272 65.4914 8.07687C65.5606 7.74517 65.6134 7.5108 65.6485 7.37673C65.6485 7.21088 65.6837 7.06986 65.754 6.95267C65.8233 6.83648 65.8936 6.71234 65.9639 6.57727C66.1035 6.34588 66.1738 6.09562 66.1738 5.82946C66.209 5.56232 66.2793 5.32894 66.3848 5.12932C66.4892 4.92971 66.6122 4.74797 66.7518 4.58013C66.8573 4.44805 67.0155 4.44805 67.2254 4.58013C67.3298 4.68044 67.426 4.78868 67.5139 4.90388C67.6018 5.02206 67.698 5.12932 67.8034 5.22962C67.943 5.39647 68.0661 5.54643 68.1715 5.67851C68.277 5.81258 68.4156 5.92877 68.5914 6.02808C68.7671 6.19592 68.9243 6.36177 69.0649 6.52762C69.2045 6.69446 69.3452 6.87719 69.4847 7.07681C69.5551 7.1781 69.6336 7.28536 69.7215 7.40155C69.8084 7.51973 69.888 7.626 69.9583 7.72729C70.2024 8.19306 70.3254 8.62606 70.3254 9.02529C70.3254 9.19312 70.343 9.30932 70.3781 9.37486C70.3781 9.57448 70.3957 9.70954 70.4309 9.77509ZM62.0222 32.85C62.1618 32.9175 62.2931 32.984 62.4172 33.0496C62.5392 33.1171 62.6706 33.1847 62.8112 33.2502C63.6167 33.6494 64.4398 33.8659 65.2815 33.8997C65.5255 33.8997 65.7623 33.8918 65.9908 33.8739C66.2172 33.858 66.454 33.8659 66.7001 33.8997C66.9803 33.9662 67.243 34 67.4881 34H68.2243C68.399 34 68.5914 33.9662 68.8023 33.8997C69.0122 33.8659 69.2138 33.8173 69.4062 33.7497C69.5985 33.6822 69.8001 33.6494 70.0111 33.6494C70.2902 33.6167 70.5705 33.5173 70.8517 33.3495C70.921 33.283 70.9913 33.2423 71.0616 33.2254C71.1319 33.2095 71.2012 33.1678 71.2715 33.1002C71.4463 33.0337 71.6138 32.9761 71.771 32.9255C71.9292 32.8758 72.077 32.7844 72.2177 32.6514C72.3573 32.4845 72.4979 32.3346 72.6385 32.2005C72.7781 32.0684 72.9353 31.9512 73.1111 31.8509C73.1111 31.8181 73.1193 31.8013 73.1379 31.8013C73.1545 31.8013 73.1638 31.7854 73.1638 31.7526C73.4088 31.3851 73.6808 31.0525 73.9786 30.7525C74.2754 30.4526 74.5825 30.1527 74.8978 29.8538C75.0374 29.7207 75.1077 29.6204 75.1077 29.5548C75.1429 29.2877 75.2835 29.0374 75.5286 28.8041C75.5286 28.7723 75.5462 28.7554 75.5813 28.7554C75.6154 28.6889 75.6506 28.6392 75.6868 28.6044C75.7209 28.5717 75.7561 28.522 75.7912 28.4555C75.8967 28.3889 75.9929 28.3045 76.0808 28.2062C76.1676 28.1059 76.2648 28.0225 76.3692 27.9559C76.545 27.8556 76.5967 27.6898 76.5275 27.4554C76.5275 27.2906 76.545 27.1555 76.5802 27.0562C76.6143 26.9231 76.6402 26.791 76.6588 26.6579C76.6764 26.5239 76.7022 26.3749 76.7374 26.2071C76.8077 26.0075 76.7901 25.8416 76.6846 25.7075C76.5802 25.5079 76.5967 25.3093 76.7374 25.1077C76.9473 24.8753 77.0176 24.5585 76.9473 24.1593C76.9131 24.0927 76.8863 24.0272 76.8687 23.9597C76.8501 23.8941 76.8242 23.8445 76.7901 23.8097C76.6143 23.7104 76.5181 23.5942 76.5016 23.4591C76.483 23.328 76.4923 23.194 76.5275 23.0599C76.5275 22.9606 76.5357 22.8692 76.5533 22.7858C76.5709 22.7034 76.5802 22.6279 76.5802 22.5614C76.6143 22.3945 76.6329 22.2366 76.6329 22.0867V21.612C76.7022 21.4123 76.7374 21.2624 76.7374 21.1621C76.8077 21.03 76.877 20.8304 76.9473 20.5632C77.0176 20.4639 77.0176 20.3477 76.9473 20.2137C76.8428 20.1134 76.8242 19.9813 76.8945 19.8134C76.9297 19.7141 76.8945 19.581 76.7901 19.4152C76.7549 19.3814 76.7374 19.298 76.7374 19.1649C76.7374 18.9991 76.7549 18.8322 76.7901 18.6654C76.8242 18.4995 76.8428 18.3327 76.8428 18.1649C76.877 18.0656 76.8945 17.9335 76.8945 17.7656C76.8945 17.4339 76.8863 17.1092 76.8687 16.7924C76.8501 16.4756 76.8242 16.1518 76.7901 15.8172C76.7901 15.7516 76.7808 15.702 76.7642 15.6682C76.7456 15.6364 76.7549 15.5858 76.7901 15.5192C76.8594 15.3524 76.877 15.1776 76.8428 14.9929C76.8077 14.8121 76.7715 14.6364 76.7374 14.4695C76.7022 14.104 76.6588 13.7634 76.606 13.4466C76.5533 13.1298 76.5616 12.7882 76.6329 12.4217V12.2718C76.422 12.0394 76.3517 11.7226 76.422 11.3223C76.422 11.2568 76.4044 11.2071 76.3692 11.1734C76.3692 11.1068 76.361 11.0572 76.3434 11.0234C76.3258 10.9907 76.3341 10.94 76.3692 10.8745C76.4044 10.6411 76.3775 10.4325 76.2907 10.2488C76.2028 10.0671 76.1593 9.8744 76.1593 9.67478C76.1593 9.64201 76.1242 9.59136 76.0539 9.52482C75.9494 9.35798 75.9308 9.15936 76.0022 8.92598C76.0022 8.62606 75.967 8.40956 75.8967 8.27648C75.6154 7.67665 75.4934 7.09468 75.5286 6.52762V6.37865C75.4583 6.21181 75.4148 6.03802 75.3973 5.8533C75.3797 5.67057 75.3528 5.49677 75.3187 5.32894C75.3187 5.26339 75.3094 5.21373 75.2928 5.17898C75.2742 5.1462 75.2659 5.11244 75.2659 5.07867L74.9506 4.47983C74.8803 4.31298 74.8099 4.16402 74.7407 4.02995C74.6704 3.89787 74.5473 3.78068 74.3726 3.68037C74.3374 3.64859 74.2671 3.54829 74.1626 3.38244C74.1275 3.2156 74.0055 3.06465 73.7945 2.93256C73.6539 2.86503 73.5319 2.80743 73.4264 2.75678C73.321 2.70713 73.2165 2.64953 73.1111 2.581C73.0066 2.51546 72.8484 2.44892 72.6385 2.38337C72.3924 2.2493 72.1649 2.13311 71.955 2.03181C71.7451 1.9325 71.499 1.86696 71.2198 1.83319C71.1485 1.83319 71.0968 1.82525 71.0616 1.80836C71.0265 1.79148 70.9737 1.78254 70.9045 1.78254C70.5177 1.64947 70.1072 1.57598 69.6688 1.55909C69.2304 1.54221 68.8023 1.53327 68.3814 1.53327H68.277C67.8562 1.63258 67.4881 1.58392 67.1727 1.38331C66.7167 1.05161 66.1738 0.934427 65.5431 1.03473C65.4727 1.03473 65.4035 1.04268 65.3332 1.05956C65.2628 1.07644 65.1936 1.08339 65.1232 1.08339C64.7376 1.08339 64.4925 1.20058 64.387 1.43396C64.387 1.46673 64.3694 1.48362 64.3343 1.48362C64.0199 1.68323 63.7739 1.91661 63.5991 2.18177C63.4585 2.34861 63.3365 2.49957 63.231 2.63165C63.1266 2.76572 63.0025 2.91568 62.8639 3.08153C62.6881 3.3159 62.503 3.54035 62.3117 3.75585C62.1184 3.97235 61.9343 4.19778 61.7596 4.43017C61.6893 4.52948 61.62 4.63972 61.5497 4.75393C61.4794 4.87211 61.4969 4.99724 61.6024 5.12932C61.4969 5.26339 61.3398 5.42924 61.1288 5.62885C61.164 5.76292 61.1371 5.87018 61.0502 5.9536C60.9624 6.03802 60.8838 6.12839 60.8135 6.22869C60.7783 6.26147 60.7607 6.30218 60.7607 6.35382C60.7607 6.40249 60.7431 6.46207 60.709 6.52762C60.709 6.59416 60.6904 6.6458 60.6563 6.67758C60.4464 6.87719 60.2882 7.10163 60.1827 7.3519C60.0783 7.60216 59.9552 7.84349 59.8156 8.07687C59.7805 8.10964 59.7629 8.17618 59.7629 8.27648C59.797 8.40956 59.7453 8.57541 59.6047 8.77602C59.4651 8.91009 59.3948 9.0094 59.3948 9.07494C59.3245 9.20901 59.2717 9.34209 59.2376 9.47517C59.2025 9.60924 59.1497 9.7582 59.0794 9.92405C59.0442 9.99158 59.0349 10.0671 59.0536 10.1495C59.0701 10.2319 59.0618 10.3074 59.0267 10.3739C58.9222 10.5408 58.8602 10.6987 58.8426 10.8496C58.825 10.9986 58.7816 11.1575 58.7123 11.3223L58.5541 11.7732C58.4838 11.9391 58.4393 12.1149 58.4228 12.2976C58.4042 12.4803 58.3783 12.6551 58.3442 12.821C58.308 12.9213 58.2729 13.0285 58.2387 13.1467C58.2036 13.2629 58.186 13.3701 58.186 13.4714C58.2201 13.6383 58.2201 13.7793 58.186 13.8955C58.1509 14.0127 58.1157 14.1368 58.0816 14.2699C58.0102 14.5033 57.9575 14.7277 57.9234 14.9442C57.8882 15.1607 57.8531 15.3693 57.8179 15.5679C57.7827 15.6364 57.7745 15.6771 57.792 15.693C57.8086 15.7109 57.8179 15.7357 57.8179 15.7685C57.7827 15.836 57.7652 15.9006 57.7652 15.9681C57.7652 16.0356 57.7476 16.1012 57.7135 16.1677C57.6421 16.5014 57.608 16.7338 57.608 16.8679C57.5728 16.9334 57.5553 17 57.5553 17.0675C57.4849 17.2661 57.4508 17.4171 57.4508 17.5164C57.3795 17.8838 57.336 18.2582 57.3185 18.6406C57.3009 19.0239 57.2575 19.3983 57.1871 19.7648V20.1888C57.1871 20.306 57.2047 20.448 57.2399 20.6129C57.2399 20.7807 57.2223 20.9128 57.1871 21.0131C57.152 21.1134 57.1168 21.2127 57.0827 21.313C57.0476 21.4123 57.03 21.5126 57.03 21.612V22.1621C57.03 22.3618 57.0476 22.5455 57.0827 22.7113V22.8613C57.0476 23.0599 57.0207 23.2516 57.0041 23.4353C56.9855 23.619 57.03 23.7938 57.1354 23.9597C57.1696 24.0272 57.1789 24.0759 57.1613 24.1106C57.1427 24.1434 57.1354 24.194 57.1354 24.2596C57.2047 24.3937 57.2668 24.5178 57.3185 24.634C57.3722 24.7512 57.4849 24.8425 57.6607 24.9091C57.6949 24.9091 57.73 24.9339 57.7652 24.9836C57.8003 25.0342 57.8355 25.0759 57.8706 25.1077C57.9399 25.2755 57.9234 25.4255 57.8179 25.5586C57.7827 25.5913 57.7652 25.6251 57.7652 25.6579C57.8706 25.6916 57.9399 25.7582 57.9761 25.8585C57.9058 25.925 57.8613 26.0075 57.8448 26.1078C57.8272 26.2071 57.7827 26.2905 57.7135 26.357C57.6421 26.4911 57.6607 26.5745 57.7652 26.6063C58.0454 26.8744 58.0981 27.1237 57.9234 27.3561C58.0288 27.5239 58.1333 27.6808 58.2387 27.8308C58.3442 27.9798 58.4311 28.1397 58.5014 28.3045C58.6069 28.4724 58.6937 28.6223 58.764 28.7554C58.8343 28.8875 58.9388 29.0374 59.0794 29.2043C59.2542 29.1377 59.3596 29.104 59.3948 29.104C59.4289 29.104 59.5002 29.1546 59.6047 29.2549C59.7102 29.3532 59.8063 29.4535 59.8942 29.5548C59.9811 29.6542 60.0783 29.7545 60.1827 29.8538C60.3233 29.9868 60.375 30.1209 60.3409 30.253C60.2003 30.3205 60.0948 30.3116 60.0255 30.2282C59.9552 30.1457 59.8684 30.0871 59.7629 30.0534C59.6574 30.2202 59.6398 30.396 59.7102 30.5768C59.7805 30.7615 59.9025 30.8687 60.0783 30.9025L60.2882 30.7029L60.6563 31.0525C60.7607 31.1518 60.8569 31.2521 60.9458 31.3524C61.0327 31.4527 61.1288 31.5361 61.2343 31.6026C61.4794 31.7695 61.6986 31.9512 61.8909 32.1518C62.0832 32.3504 62.2859 32.5342 62.4958 32.701C62.5299 32.7338 62.5475 32.7844 62.5475 32.85C62.4079 32.9175 62.2859 32.9006 62.1804 32.8003C62.1101 32.7666 62.0574 32.7258 62.0222 32.6762C61.9871 32.6255 61.9178 32.6345 61.8123 32.701C61.9178 32.8003 61.9871 32.85 62.0222 32.85Z" fill="#020101"/>
</svg>
