<svg width="35" height="34" viewBox="0 0 35 34" fill="none" xmlns="http://www.w3.org/2000/svg">
<path d="M7.57725 3.65686C7.28235 3.65686 6.99953 3.77401 6.79101 3.98253C6.58248 4.19106 6.46533 4.47388 6.46533 4.76878C6.46533 4.77022 6.46533 4.77167 6.46533 4.77312V16.9998V29.2266C6.46533 29.228 6.46533 29.2295 6.46533 29.2309C6.46533 29.5258 6.58248 29.8086 6.79101 30.0172C6.99953 30.2257 7.28235 30.3428 7.57725 30.3428C7.80871 30.3422 8.03419 30.2693 8.22225 30.1343L8.22442 30.1365L30.2781 18.0097C30.4717 17.9212 30.6357 17.7789 30.7508 17.5999C30.8659 17.4209 30.9272 17.2127 30.9275 16.9998C30.9276 16.7811 30.8632 16.5671 30.7422 16.3848C30.6213 16.2024 30.4493 16.0598 30.2477 15.9748L8.22442 3.86317H8.22225C8.03393 3.72901 7.80847 3.6569 7.57725 3.65686Z" fill="black"/>
</svg>
