<svg width="21" height="20" viewBox="0 0 21 20" fill="none" xmlns="http://www.w3.org/2000/svg">
<g clip-path="url(#clip0_731_51)">
<path fill-rule="evenodd" clip-rule="evenodd" d="M13.78 5.9747C13.3563 5.99218 12.8546 6.00286 12.3079 5.99513C10.7235 5.97287 8.70119 5.79579 7.10845 5.13993L7.48921 4.21526C8.90177 4.79688 10.7685 4.97335 12.3219 4.99529C13.091 5.00612 13.7686 4.97903 14.2536 4.94922C14.4959 4.93429 14.6896 4.91878 14.8219 4.90704C14.8881 4.9012 14.9389 4.89629 14.9728 4.89285L15.0106 4.88897L15.0196 4.88804L15.0216 4.88778L15.643 4.81876L15.574 5.43986L15.5737 5.44215L15.5728 5.45113L15.5689 5.48896C15.5655 5.52286 15.5605 5.57366 15.5547 5.63981C15.543 5.77218 15.5275 5.96583 15.5125 6.20815C15.4827 6.69311 15.4556 7.37073 15.4665 8.13985C15.4884 9.69325 15.6649 11.56 16.2465 12.9725L15.3218 13.3533C14.666 11.7606 14.4889 9.73826 14.4666 8.15387C14.4589 7.6072 14.4696 7.10555 14.487 6.68188L5.53112 15.6378L4.82401 14.9307L13.78 5.9747Z" fill="white" stroke="white"/>
</g>
<defs>
<clipPath id="clip0_731_51">
<rect width="13" height="15" fill="white" transform="translate(9.79297 19.8997) rotate(-135)"/>
</clipPath>
</defs>
</svg>
