<svg width="30" height="30" viewBox="0 0 30 30" fill="none" xmlns="http://www.w3.org/2000/svg">
<mask id="path-1-inside-1_49:424" fill="white">
<rect width="30" height="30" rx="1"/>
</mask>
<rect width="30" height="30" rx="1" stroke="#ECBF5C" stroke-width="3" mask="url(#path-1-inside-1_49:424)"/>
<path fill-rule="evenodd" clip-rule="evenodd" d="M16.8465 17.9606C16.8247 17.993 16.7842 18.0075 16.7467 17.9962C16.7092 17.9849 16.6836 17.9505 16.6836 17.9116C16.6837 16.0948 16.6866 14.6765 16.6867 13.0886C16.6867 13.0397 16.7266 13 16.7758 13C17.4162 13 21.3306 13 22.5946 13C22.6361 13 22.6722 13.0286 22.6813 13.0689C22.6906 13.1091 22.6706 13.1504 22.6333 13.1683C20.3929 14.2702 18.1103 16.1326 16.8465 17.9606Z" fill="#ECBF5C"/>
<path fill-rule="evenodd" clip-rule="evenodd" d="M12.8371 17.9606C12.8589 17.993 12.8994 18.0075 12.9369 17.9962C12.9744 17.9849 13 17.9505 13 17.9116C12.9999 16.0948 12.997 14.6765 12.9969 13.0886C12.9969 13.0397 12.957 13 12.9078 13C12.2674 13 8.35301 13 7.089 13C7.04746 13 7.01144 13.0286 7.00225 13.0689C6.99297 13.1091 7.01301 13.1504 7.05031 13.1683C9.29065 14.2702 11.5732 16.1326 12.8371 17.9606Z" fill="#ECBF5C"/>
</svg>
