<svg width="60" height="60" viewBox="0 0 60 60" fill="none" xmlns="http://www.w3.org/2000/svg">
<path d="M29.9773 34.1449C33.7374 34.1449 36.9806 32.761 39.5906 30.032C47.7955 21.4568 47.072 2.30185 47.0332 1.48702C46.9944 0.659259 46.3096 -0.000366211 45.4827 -0.000366211H14.472C13.6451 -0.000366211 12.9602 0.659259 12.9215 1.48702C12.8827 2.30185 12.1591 21.4568 20.364 30.032C22.9741 32.761 26.2173 34.1449 29.9773 34.1449ZM43.958 3.10375C43.958 7.66939 43.4282 21.5344 37.3424 27.885C35.3138 30.0061 32.8975 31.0408 29.9773 31.0408C27.0572 31.0408 24.6409 30.0061 22.6123 27.885C16.5394 21.5344 16.0096 7.66939 15.9967 3.10375H43.958Z" fill="#ECBF5C"/>
<path d="M59.5153 3.06495C59.2311 2.76747 58.8176 2.5864 58.4041 2.5864H53.2357C52.3829 2.5864 51.6852 3.28482 51.6852 4.13845C51.6852 4.99209 52.3829 5.69051 53.2357 5.69051H56.7373C56.2722 10.6442 54.1272 25.4793 44.992 28.5316C44.178 28.8032 43.7387 29.6827 44.01 30.4976C44.2297 31.1443 44.837 31.5581 45.483 31.5581C45.651 31.5581 45.8061 31.5323 45.974 31.4805C58.9597 27.1477 59.9159 5.13436 59.9547 4.19019C59.9676 3.77631 59.8125 3.36242 59.5153 3.06495Z" fill="#ECBF5C"/>
<path d="M14.4724 31.5581C15.1184 31.5581 15.7257 31.1443 15.9454 30.4976C16.2167 29.6827 15.7774 28.8032 14.9634 28.5316C5.82817 25.4922 3.68326 10.6442 3.2181 5.69051H6.71972C7.57251 5.69051 8.27025 4.99209 8.27025 4.13845C8.27025 3.28482 7.57251 2.5864 6.71972 2.5864H1.55128C1.12488 2.5864 0.724329 2.75453 0.440064 3.06495C0.142879 3.36242 -0.0121742 3.77631 0.000746925 4.19019C0.0395102 5.12142 0.995672 27.1477 13.9814 31.4676C14.1494 31.5323 14.3173 31.5581 14.4724 31.5581Z" fill="#ECBF5C"/>
<path d="M48.0671 49.1482H43.1183C36.8257 47.5314 36.6965 40.6377 36.6965 40.3532C36.6965 39.4995 35.9987 38.8011 35.1459 38.8011C34.2931 38.8011 33.5954 39.4995 33.5954 40.3532C33.5954 42.6037 34.474 46.3803 37.1616 49.1482H22.7934C25.4809 46.3803 26.3596 42.6037 26.3596 40.3532C26.3596 39.4995 25.6748 38.8011 24.809 38.8011C23.9563 38.8011 23.2585 39.4866 23.2585 40.3402C23.2585 40.6377 23.1293 47.5185 16.8367 49.1352H11.8879C11.0351 49.1352 10.3374 49.8337 10.3374 50.6873V58.4476C10.3374 59.3012 11.0351 59.9997 11.8879 59.9997H29.9775C30.8303 59.9997 31.528 59.3012 31.528 58.4476C31.528 57.594 30.8303 56.8955 29.9775 56.8955H13.4385V52.2394H17.0435C17.0435 52.2394 17.0435 52.2394 17.0564 52.2394H17.0693H42.8986H42.9115C42.9115 52.2394 42.9115 52.2394 42.9245 52.2394H46.5165V56.8955H40.3144C39.4616 56.8955 38.7639 57.594 38.7639 58.4476C38.7639 59.3012 39.4616 59.9997 40.3144 59.9997H48.0671C48.9198 59.9997 49.6176 59.3012 49.6176 58.4476V50.6873C49.6176 49.8466 48.9198 49.1482 48.0671 49.1482Z" fill="#ECBF5C"/>
</svg>
