<svg width="18" height="26" viewBox="0 0 18 26" fill="none" xmlns="http://www.w3.org/2000/svg">
<path d="M16.5433 9.33317C16.5433 10.4974 16.2846 11.5969 15.7995 12.5993C14.603 15.0894 9.07317 22.8182 9.07317 22.8182C9.07317 22.8182 3.70502 15.1864 2.44382 12.7934C1.89407 11.7585 1.60303 10.5944 1.60303 9.33317C1.60303 5.19388 4.93387 1.86304 9.07317 1.86304C13.2125 1.86304 16.5433 5.22622 16.5433 9.33317Z" stroke="#B29876" stroke-width="2.6322" stroke-miterlimit="10" stroke-linecap="square"/>
<path d="M12.0323 10.052C12.4196 8.41851 11.4093 6.78032 9.77581 6.39301C8.14231 6.00571 6.50412 7.01595 6.11681 8.64945C5.7295 10.283 6.73974 11.9212 8.37325 12.3085C10.0068 12.6958 11.6449 11.6855 12.0323 10.052Z" stroke="#B29876" stroke-width="2.6322" stroke-miterlimit="10" stroke-linecap="square"/>
</svg>
