<svg width="17" height="25" viewBox="0 0 17 25" fill="none" xmlns="http://www.w3.org/2000/svg">
<path d="M6.19102 8.97841C6.06167 8.23463 6.19102 8.10528 6.19102 8.10528L7.93729 6.97344C8.39003 6.6824 8.58406 6.13265 8.35769 5.64757L6.99948 2.47842C6.80545 2.02569 6.28804 1.76698 5.80297 1.89633L4.50944 2.25206C4.41242 2.28439 4.28307 2.31673 4.18605 2.38141C1.14626 4.28937 2.1164 9.68986 4.12137 14.4112C6.06167 19.0033 9.29549 23.6923 12.8204 22.7222C12.9174 22.6898 13.0144 22.6575 13.1114 22.5928L14.3079 21.9137C14.7283 21.655 14.9224 21.1376 14.7283 20.6525L13.3701 17.4834C13.1761 16.9983 12.6263 16.7396 12.1089 16.8689L10.0716 17.3217C10.0716 17.3217 9.36017 17.2893 7.51689 12.9884C6.87013 11.4361 6.51441 10.4013 6.32038 9.65752C6.2557 9.36647 6.22336 9.17244 6.19102 8.97841Z" stroke="#B29876" stroke-width="2.6322" stroke-miterlimit="10" stroke-linecap="square"/>
</svg>
