<svg width="30" height="30" viewBox="0 0 30 30" fill="none" xmlns="http://www.w3.org/2000/svg">
<rect width="30" height="30" rx="1" fill="#B29876"/>
<g clip-path="url(#clip0_29:332)">
<path d="M19.8003 16.4922C19.7613 16.4735 18.3033 15.7555 18.0442 15.6623C17.9384 15.6243 17.8251 15.5872 17.7046 15.5872C17.5077 15.5872 17.3423 15.6853 17.2135 15.878C17.0678 16.0945 16.6269 16.6099 16.4907 16.7639C16.4729 16.7842 16.4486 16.8085 16.434 16.8085C16.421 16.8085 16.1953 16.7156 16.127 16.6859C14.5629 16.0065 13.3757 14.3727 13.2129 14.0971C13.1897 14.0575 13.1887 14.0395 13.1885 14.0395C13.1942 14.0186 13.2468 13.9658 13.274 13.9386C13.3534 13.8601 13.4394 13.7565 13.5227 13.6563C13.5621 13.6088 13.6016 13.5613 13.6403 13.5165C13.7611 13.376 13.8149 13.2669 13.8772 13.1405L13.9099 13.0749C14.0621 12.7725 13.9321 12.5173 13.8901 12.4349C13.8556 12.3659 13.2399 10.8801 13.1745 10.724C13.0171 10.3473 12.8091 10.1719 12.5201 10.1719C12.4933 10.1719 12.5201 10.1719 12.4076 10.1766C12.2707 10.1824 11.5249 10.2806 11.1951 10.4884C10.8455 10.7089 10.2539 11.4116 10.2539 12.6475C10.2539 13.7597 10.9598 14.8099 11.2628 15.2093C11.2703 15.2194 11.2842 15.2399 11.3042 15.2692C12.4648 16.9641 13.9116 18.2203 15.3783 18.8062C16.7903 19.3702 17.459 19.4354 17.8391 19.4354H17.8392C17.9989 19.4354 18.1268 19.4229 18.2396 19.4117L18.3111 19.4049C18.7989 19.3617 19.8709 18.8062 20.1147 18.1286C20.3068 17.5949 20.3574 17.0118 20.2296 16.8002C20.1421 16.6563 19.9912 16.5839 19.8003 16.4922Z" fill="#F6F6F6"/>
<path d="M15.1778 5C9.76114 5 5.35438 9.37364 5.35438 14.7495C5.35438 16.4883 5.81971 18.1903 6.7012 19.6799L5.014 24.6569C4.98257 24.7497 5.00594 24.8523 5.07458 24.9221C5.12413 24.9727 5.19133 25 5.25997 25C5.28627 25 5.31276 24.996 5.33861 24.9878L10.5282 23.3387C11.9483 24.0975 13.5534 24.498 15.1778 24.498C20.5939 24.4981 25.0002 20.1249 25.0002 14.7495C25.0002 9.37364 20.5939 5 15.1778 5ZM15.1778 22.4671C13.6493 22.4671 12.1688 22.0258 10.8962 21.1907C10.8534 21.1626 10.8037 21.1482 10.7537 21.1482C10.7273 21.1482 10.7008 21.1522 10.675 21.1604L8.07536 21.9868L8.91458 19.5108C8.94172 19.4307 8.92815 19.3423 8.87815 19.274C7.90906 17.9499 7.39679 16.3854 7.39679 14.7495C7.39679 10.4935 10.8873 7.03091 15.1777 7.03091C19.4676 7.03091 22.9577 10.4935 22.9577 14.7495C22.9578 19.0051 19.4677 22.4671 15.1778 22.4671Z" fill="#F6F6F6"/>
</g>
<defs>
<clipPath id="clip0_29:332">
<rect width="20" height="20" fill="white" transform="translate(5 5)"/>
</clipPath>
</defs>
</svg>
