<svg width="16" height="14" viewBox="0 0 16 14" fill="none" xmlns="http://www.w3.org/2000/svg">
<path d="M0.744165 6.41089L6.5775 0.577559C6.90292 0.252142 7.43042 0.252142 7.75583 0.577559C8.08125 0.902975 8.08125 1.43047 7.75583 1.75589L3.345 6.16672H14.6667C15.1267 6.16672 15.5 6.54006 15.5 7.00006C15.5 7.46006 15.1267 7.83339 14.6667 7.83339H3.345L7.75583 12.2442C8.08125 12.5696 8.08125 13.0971 7.75583 13.4226C7.59292 13.5855 7.38 13.6667 7.16667 13.6667C6.95333 13.6667 6.74042 13.5855 6.5775 13.4226L0.744165 7.58922C0.418749 7.26381 0.418749 6.73631 0.744165 6.41089Z" fill="white"/>
</svg>
