<svg width="16" height="14" viewBox="0 0 16 14" fill="none" xmlns="http://www.w3.org/2000/svg">
<path d="M15.2558 6.41083L9.4225 0.577498C9.09708 0.252081 8.56958 0.252081 8.24417 0.577498C7.91875 0.902914 7.91875 1.43041 8.24417 1.75583L12.655 6.16666H1.33333C0.873333 6.16666 0.5 6.54 0.5 7C0.5 7.46 0.873333 7.83333 1.33333 7.83333H12.655L8.24417 12.2442C7.91875 12.5696 7.91875 13.0971 8.24417 13.4225C8.40708 13.5854 8.62 13.6667 8.83333 13.6667C9.04667 13.6667 9.25958 13.5854 9.4225 13.4225L15.2558 7.58916C15.5813 7.26375 15.5813 6.73625 15.2558 6.41083Z" fill="black"/>
</svg>
