<svg width="12" height="12" viewBox="0 0 12 12" fill="none" xmlns="http://www.w3.org/2000/svg">
<path d="M10.7142 0.452772L2.46465 0.452773C2.00444 0.452774 1.63144 0.825772 1.63144 1.28598C1.63144 1.74619 2.00444 2.11919 2.46465 2.11919L8.70251 2.11919L0.696881 10.1248C0.371612 10.4501 0.371612 10.9781 0.696881 11.3033C1.02215 11.6286 1.55012 11.6286 1.87539 11.3033L9.88102 3.2977L9.88102 9.53556C9.88102 9.99577 10.254 10.3688 10.7142 10.3688C10.9446 10.3688 11.1526 10.2757 11.3035 10.1248C11.4543 9.97397 11.5474 9.76596 11.5474 9.53556V1.28598C11.5474 0.825771 11.1744 0.452772 10.7142 0.452772Z" fill="black"/>
</svg>
