<svg width="75" height="18" viewBox="0 0 75 18" fill="none" xmlns="http://www.w3.org/2000/svg">
<path d="M7.78413 0.1387C6.92049 0.412886 6.155 1.49983 5.84095 2.91971C5.63486 3.84018 5.55634 6.28825 5.69374 7.68855C5.75262 8.33484 5.79188 8.87341 5.77225 8.88321C5.76244 8.893 5.54653 8.86362 5.29136 8.80487C3.8487 8.47193 1.8957 9.48054 1.11058 10.969C-0.449852 13.8675 1.13021 17.4612 4.15293 17.9313C5.48764 18.1369 6.65552 17.755 7.67618 16.7856L8.23558 16.2568L8.44167 16.5897C8.70665 17.0206 9.45252 17.7061 9.7862 17.8334C10.1493 17.9802 10.8069 17.9509 11.3074 17.7844C12.8776 17.2458 14.2712 14.6411 15.0269 10.8515C15.1152 10.401 15.1741 10.2933 15.3017 10.3325C15.39 10.352 15.7237 10.4304 16.0377 10.4891C16.4009 10.5577 16.6364 10.6654 16.6953 10.7829C16.7542 10.8808 16.7934 11.6153 16.7934 12.4182C16.7934 16.2862 17.6178 17.9313 19.5512 17.9313C20.1989 17.9313 20.9448 17.5298 21.7495 16.7562L22.4561 16.0609L22.5739 16.3547C22.7309 16.7268 23.4572 17.4808 23.8693 17.6963C24.4189 17.9704 25.3022 17.99 25.9009 17.7354C26.6467 17.4123 27.4711 16.4918 28.0207 15.3657C28.266 14.8761 28.4819 14.5334 28.5114 14.6117C28.8451 15.7378 29.4732 16.7268 30.1798 17.2556C31.593 18.3132 33.6343 18.0977 34.8905 16.7562C35.4401 16.1687 35.9995 15.0523 36.1565 14.22C36.2645 13.6618 36.2939 13.6129 36.6178 13.515C36.8043 13.4562 37.1968 13.2799 37.4814 13.1233C37.9525 12.8589 37.9918 12.8491 37.9918 13.0253C37.9918 13.3974 38.5021 14.8467 38.9045 15.6203C39.7387 17.236 40.8673 17.9998 42.2609 17.9019C43.7722 17.804 44.8714 17.05 45.5388 15.6399C45.7547 15.209 45.9706 14.6215 46.0393 14.3473C46.1472 13.8675 46.1767 13.8381 46.7066 13.5835C47.0207 13.4366 47.374 13.231 47.5114 13.1331L47.7469 12.9568L47.9726 13.8479C48.2671 14.974 48.8559 16.1687 49.4251 16.8247C50.8187 18.4111 53.1839 18.3915 54.7443 16.766C55.2841 16.2078 55.8337 15.0817 55.9809 14.269L56.079 13.6618L56.6286 13.5541C56.9329 13.4954 57.2469 13.417 57.3254 13.3877C57.4334 13.3485 57.5413 13.515 57.7474 14.0927C58.1204 15.0915 58.6896 16.0414 59.3373 16.7366C60.7505 18.2642 62.5956 18.3915 64.4013 17.0989L64.8822 16.7562L65.4907 17.0891C67.5124 18.1859 69.8187 18.1663 71.7422 17.0304C72.812 16.3939 74.5 14.4354 74.5 13.8283C74.5 13.2604 73.8326 12.3497 73.4303 12.3497C73.3321 12.3497 73.1457 12.5945 72.9592 12.9666C71.8208 15.1307 70.2898 16.1687 68.376 16.0512C67.905 16.0218 67.3946 15.9239 67.1493 15.8161L66.7273 15.6301L67.2769 15.2482C68.1209 14.6704 68.8471 13.8283 69.3182 12.8785C69.6911 12.1245 69.7304 11.958 69.7696 11.1746C69.8187 10.166 69.6617 9.55888 69.1906 8.99092C68.6705 8.35442 68.219 8.18796 67.0904 8.18796C66.2071 8.18796 66.0501 8.21733 65.5201 8.47193C64.421 9.01051 63.6064 10.117 63.312 11.4782C63.1255 12.3203 63.2237 14.22 63.4886 14.8663L63.7045 15.3853L63.1844 15.6791C62.4189 16.1099 61.9576 16.1491 61.3001 15.8357C60.5248 15.4538 59.7495 14.2885 59.3864 12.9568C59.2784 12.5455 59.2882 12.5259 59.6121 12.1636C60.8781 10.7633 61.8301 8.60902 62.2423 6.17075C62.4974 4.68232 62.468 2.32238 62.1932 1.56837C61.9773 0.971045 61.4964 0.412886 61.0155 0.197454C60.4561 -0.0571442 59.406 -0.0473518 58.9055 0.207247C56.923 1.20606 56.1183 5.76926 56.9917 11.0473C57.0506 11.4292 57.031 11.4684 56.8053 11.5565C56.6679 11.6055 56.4127 11.6838 56.2262 11.7132C55.9122 11.7719 55.8926 11.7523 55.765 11.4194C55.608 10.9592 54.4695 9.80368 53.9199 9.51971C53.0563 9.07905 52.4086 9.4022 52.2712 10.3325C52.124 11.2725 52.8698 12.6826 53.7727 13.2016C54.0279 13.3387 54.2536 13.4758 54.2733 13.4856C54.3714 13.5639 53.8414 14.9055 53.547 15.2972C53.1937 15.7868 52.546 16.1687 52.0651 16.1687C51.6136 16.1687 50.9365 15.777 50.5832 15.3069C50.0728 14.6313 49.8471 13.7598 49.8373 12.4868C49.8373 11.4096 49.8471 11.39 50.2397 10.5675C51.3683 8.20754 52.1534 5.37757 52.2908 3.21348C52.3791 1.61734 52.0847 0.784992 51.2211 0.30517C50.7304 0.0309868 49.8766 -0.00818253 49.4153 0.236624C47.9138 1.01021 47.1581 4.23187 47.2366 9.46095L47.266 11.0277L46.7851 11.3411C46.53 11.5173 46.2552 11.6642 46.1865 11.6642C46.108 11.6642 46 11.5075 45.9411 11.3215C45.6958 10.5675 44.3709 9.45116 43.5171 9.26511C42.6632 9.08885 42.2412 10.1758 42.6927 11.3802C43.0165 12.2322 43.5956 12.8883 44.4396 13.3779C44.4494 13.3779 44.4003 13.6129 44.3316 13.8871C44.1353 14.6313 43.6839 15.3853 43.2521 15.6888C41.8879 16.6779 40.3962 15.5811 40.0429 13.3289C39.8564 12.1147 39.984 11.3509 40.5434 10.166C41.6524 7.85502 42.4277 4.8292 42.4473 2.75324C42.4571 1.61734 42.4375 1.49983 42.2118 1.09834C41.8192 0.412886 41.3383 0.0799484 40.6514 0.0309868C39.8957 -0.0277672 39.454 0.128908 39.032 0.598938C37.9132 1.83277 37.4716 3.96748 37.4618 8.19775C37.452 11.1354 37.4716 11.0375 36.7846 11.3802C36.3528 11.6055 36.1271 11.5663 36.1271 11.2627C36.1271 10.45 34.9788 9.39241 33.9386 9.25531C33.1044 9.13781 32.7412 9.61763 32.8099 10.685C32.8786 11.6446 33.5067 12.6826 34.3409 13.2506L34.5765 13.4072L34.3606 14.0829C33.9778 15.2972 33.2025 16.0609 32.3291 16.0707C31.2593 16.0805 30.3662 14.9348 30.1307 13.2701C29.9737 12.1049 30.0816 11.4194 30.6312 10.2052C32.2505 6.63098 33.016 2.47906 32.3094 1.10814C32.0543 0.598938 31.5047 0.1387 31.0729 0.0505714C29.3063 -0.272575 28.374 0.931875 27.8244 4.27104C27.6968 5.01526 27.6478 6.00428 27.6379 8.43276L27.6183 11.6153L27.2944 12.4966C26.843 13.75 26.2738 14.8369 25.8027 15.3461C25.469 15.7084 25.3415 15.777 25.0961 15.7574C24.3895 15.6888 24.1343 14.5236 24.1147 11.39L24.1049 9.09864L23.8595 8.90279C23.6534 8.73632 23.516 8.71674 23.045 8.75591C22.7309 8.78528 22.4169 8.85383 22.3482 8.91258C22.1224 9.09864 21.9851 9.85264 21.8967 11.4586C21.8084 12.9372 21.671 13.7108 21.406 14.2102C21.1607 14.69 20.6013 15.2874 20.1695 15.542C19.7965 15.7672 19.6886 15.7868 19.4825 15.6888C18.9329 15.444 18.8249 14.5138 18.982 11.4684C19.0605 10.0975 19.0507 9.92119 18.8838 9.60784C18.6483 9.15739 18.1085 8.87341 17.1958 8.72653C15.9102 8.53069 15.7041 8.45235 15.125 7.90398C14.8306 7.62 14.4577 7.35561 14.3105 7.31644C13.9277 7.22831 13.2898 7.41437 13.1524 7.66897C13.0837 7.79626 13.0445 8.33484 13.0543 9.0203C13.0837 12.1636 11.8373 15.6791 10.6891 15.6791C10.2769 15.6791 9.7175 15.0915 9.45252 14.3767L9.24642 13.8479L9.68806 12.6826C10.2376 11.2236 10.64 9.80368 10.9737 8.23692C11.1994 7.18914 11.2387 6.76807 11.2387 5.25027C11.2485 3.6933 11.219 3.39953 11.0228 2.72386C10.6498 1.44107 10.1788 0.687069 9.4427 0.236624C9.05014 -0.00818253 8.36316 -0.0473518 7.78413 0.1387ZM60.2304 1.9209C60.5641 2.14612 60.7113 2.87075 60.6916 4.12416C60.6622 6.11199 60.0145 8.35442 59.0134 9.9016L58.6601 10.4402L58.5816 10.0975C58.5325 9.9114 58.4638 8.78528 58.4344 7.60042C58.3952 5.86719 58.4148 5.23069 58.5424 4.41793C58.7288 3.1841 59.141 2.25383 59.6121 1.96007C59.985 1.73484 59.9752 1.73484 60.2304 1.9209ZM8.97163 2.38113C9.26605 3.02742 9.35438 3.51704 9.40345 5.05443C9.4427 6.25888 9.42308 6.866 9.29549 7.67876C9.10903 8.84404 8.72628 10.2443 8.45149 10.7829L8.27483 11.1256L8.15706 10.8319C7.95097 10.2933 7.58785 8.77549 7.4799 8.0019C7.23454 6.23929 7.42101 3.76184 7.87246 2.79241C8.23558 2.02861 8.71646 1.85235 8.97163 2.38113ZM30.7097 3.06659C30.749 4.27104 30.1602 7.06184 29.5713 8.43276L29.3848 8.87341L29.3161 8.01169C29.2376 7.00309 29.3161 5.42653 29.5124 4.14374C29.7185 2.79241 30.0522 2.12653 30.4742 2.18529C30.6607 2.21466 30.6803 2.293 30.7097 3.06659ZM40.5827 2.32238C40.8575 3.02742 40.3079 6.21971 39.5914 8.15858L39.3265 8.87341L39.2381 8.3838C39.0517 7.22831 39.3461 3.74226 39.719 2.87075C39.984 2.23425 40.4355 1.94048 40.5827 2.32238ZM50.4163 2.38113C50.7402 2.90012 50.0041 6.92475 49.3073 8.49152L49.1405 8.87341L49.0816 8.3838C48.9442 7.18914 49.1405 4.31021 49.4251 3.28202C49.6607 2.47906 50.1808 1.99924 50.4163 2.38113ZM67.64 10.2835C68.3466 10.9885 67.7479 12.4476 66.266 13.6618C65.9029 13.9654 65.5496 14.2102 65.5005 14.2102C65.3631 14.2102 65.157 13.4856 65.108 12.7805C64.9804 11.3411 65.8833 9.99953 66.9726 9.99953C67.2572 9.99953 67.4241 10.0681 67.64 10.2835ZM5.71337 10.7437C6.0863 10.9298 6.155 11.0571 6.44942 11.958C6.58682 12.4182 6.84198 13.1135 6.99901 13.5052L7.29343 14.22L7.02845 14.7488C6.2237 16.4037 4.07442 16.7562 2.96544 15.4147C1.94477 14.1906 2.07236 12.0853 3.2206 11.0767C3.48558 10.8515 3.82907 10.6556 4.06461 10.5969C4.55531 10.4891 5.36006 10.5577 5.71337 10.7437Z" fill="black"/>
<path d="M22.5592 4.07822C21.3045 4.52363 21.128 5.98573 22.2259 6.7894C22.6082 7.0702 23.4512 7.0702 23.8236 6.7894C24.3432 6.41177 24.5 6.10192 24.5 5.49191C24.5 5.06587 24.451 4.85285 24.2942 4.64951C23.8727 4.09759 23.1669 3.8652 22.5592 4.07822Z" fill="black"/>
</svg>
