<svg width="210" height="56" viewBox="0 0 210 56" fill="none" xmlns="http://www.w3.org/2000/svg">
<path d="M4.66527 19.88H0V24.5383H4.66527V19.88Z" fill="black"/>
<path d="M9.33887 19.88V24.5383H14.0042V36.1841H18.6694V29.1966C18.6694 26.7257 17.6864 24.356 15.9366 22.6088C14.1868 20.8616 11.8135 19.88 9.33887 19.88Z" fill="black"/>
<path d="M18.6699 19.88V24.5383H23.3352V36.1841H28.0004V29.1966C28.0004 26.7257 27.0174 24.356 25.2676 22.6088C23.5178 20.8616 21.1445 19.88 18.6699 19.88Z" fill="black"/>
<path d="M9.3303 24.5393H4.66504V36.1851H9.3303V24.5393Z" fill="black"/>
<path d="M43.6469 36V34.208C42.4949 35.52 40.8629 36.32 38.9429 36.32C34.2389 36.32 30.8789 32.8 30.8789 28.032C30.8789 23.136 34.2069 19.552 38.9429 19.552C40.8629 19.552 42.4949 20.384 43.6469 21.728V19.872H48.0949V36H43.6469ZM39.4869 23.68C37.1509 23.68 35.4229 25.504 35.4229 28C35.4229 30.432 37.1509 32.192 39.4869 32.192C41.8869 32.192 43.6469 30.432 43.6469 28C43.6469 25.504 41.8869 23.68 39.4869 23.68Z" fill="black"/>
<path d="M57.2052 28.832V36H52.7572V19.872H57.2052V22.592C58.5172 20.64 60.3732 19.552 62.7092 19.552V24.512C59.7972 23.84 57.2052 25.44 57.2052 28.832Z" fill="black"/>
<path d="M77.7432 32.16V36H63.6312L71.1192 23.712H64.4632V19.872H78.0312L70.7672 32.16H77.7432Z" fill="black"/>
<path d="M88.7937 36.32C83.7697 36.32 80.0577 32.832 80.0577 27.84C80.0577 22.976 83.8017 19.552 88.7937 19.552C93.7217 19.552 97.3697 23.008 97.3697 27.84C97.3697 32.8 93.7537 36.32 88.7937 36.32ZM92.8257 27.904C92.8257 25.472 91.1297 23.68 88.7617 23.68C86.3617 23.68 84.6017 25.472 84.6017 27.904C84.6017 30.4 86.3617 32.192 88.7617 32.192C91.1297 32.192 92.8257 30.4 92.8257 27.904Z" fill="black"/>
<path d="M103.049 36.32C101.353 36.32 100.169 35.232 100.169 33.568C100.169 31.936 101.353 30.784 103.049 30.784C104.713 30.784 105.865 31.936 105.865 33.568C105.865 35.232 104.713 36.32 103.049 36.32Z" fill="black"/>
<path d="M121.434 36V34.24C120.25 35.552 118.618 36.32 116.73 36.32C112.026 36.32 108.666 32.8 108.666 28.032C108.666 23.136 112.026 19.552 116.73 19.552C118.618 19.552 120.25 20.352 121.434 21.696V12H125.882V36H121.434ZM117.274 23.68C114.938 23.68 113.21 25.504 113.21 28C113.21 30.432 114.938 32.192 117.274 32.192C119.674 32.192 121.434 30.432 121.434 28C121.434 25.504 119.674 23.68 117.274 23.68Z" fill="black"/>
<path d="M132.753 17.664C131.281 17.664 130.097 16.608 130.097 15.136C130.097 13.664 131.281 12.608 132.753 12.608C134.193 12.608 135.345 13.664 135.345 15.136C135.345 16.608 134.193 17.664 132.753 17.664ZM130.513 36V19.872H134.961V36H130.513Z" fill="black"/>
<path d="M155.679 35.808C155.679 41.248 152.351 44.32 146.911 44.32C144.639 44.32 142.527 43.776 140.479 42.56V38.08C142.431 39.616 144.767 40.32 146.687 40.32C149.567 40.32 151.231 38.848 151.231 36.032V34.272C150.047 35.552 148.415 36.32 146.527 36.32C141.823 36.32 138.463 32.8 138.463 28C138.463 23.136 141.823 19.552 146.527 19.552C148.415 19.552 150.047 20.352 151.231 21.664V19.872H155.679V35.808ZM151.231 28C151.231 25.504 149.471 23.68 147.071 23.68C144.735 23.68 143.007 25.504 143.007 28C143.007 30.432 144.735 32.192 147.071 32.192C149.471 32.192 151.231 30.432 151.231 28Z" fill="black"/>
<path d="M162.549 17.664C161.077 17.664 159.893 16.608 159.893 15.136C159.893 13.664 161.077 12.608 162.549 12.608C163.989 12.608 165.141 13.664 165.141 15.136C165.141 16.608 163.989 17.664 162.549 17.664ZM160.309 36V19.872H164.757V36H160.309Z" fill="black"/>
<path d="M179.363 35.232C178.243 36 176.835 36.32 175.267 36.32C171.427 36.32 169.091 34.528 169.091 29.824V15.2H173.539V19.872H179.267V23.712H173.539V29.76C173.539 31.52 174.659 32.256 176.067 32.256C177.315 32.256 178.371 31.904 179.363 31.296V35.232Z" fill="black"/>
<path d="M194.253 36V34.208C193.101 35.52 191.469 36.32 189.549 36.32C184.845 36.32 181.485 32.8 181.485 28.032C181.485 23.136 184.813 19.552 189.549 19.552C191.469 19.552 193.101 20.384 194.253 21.728V19.872H198.701V36H194.253ZM190.093 23.68C187.757 23.68 186.029 25.504 186.029 28C186.029 30.432 187.757 32.192 190.093 32.192C192.493 32.192 194.253 30.432 194.253 28C194.253 25.504 192.493 23.68 190.093 23.68Z" fill="black"/>
<path d="M203.363 36V12H207.811V36H203.363Z" fill="black"/>
</svg>
