<svg width="128" height="34" viewBox="0 0 128 34" fill="none" xmlns="http://www.w3.org/2000/svg">
<path fill-rule="evenodd" clip-rule="evenodd" d="M9.22882 13.3377C9.44632 12.3421 9.7435 11.0548 10.1193 9.47588C10.4951 7.89693 10.9732 5.92763 11.5546 3.57237C11.4814 3.30482 11.3726 3.09868 11.2273 2.95175C11.1304 2.85526 11.0453 2.79496 10.9732 2.77083C11.5546 2.50219 12.136 2.28399 12.7164 2.11404C13.2979 1.94408 13.8922 1.85965 14.4984 1.85965C15.1283 1.85965 15.7561 1.96162 16.387 2.16886C17.0159 2.375 17.5736 2.72807 18.0582 3.22588C18.5427 3.72368 18.912 4.38048 19.1661 5.19298C19.4213 6.00768 19.487 7.02193 19.3664 8.23684C19.2458 9.5 18.9734 10.6469 18.5492 11.6809C18.1249 12.7127 17.5973 13.636 16.9685 14.4496C16.3386 15.2643 15.6419 15.9792 14.8796 16.5998C14.1162 17.2193 13.3345 17.7478 12.5355 18.1853C11.7366 18.6217 10.9365 18.9693 10.1376 19.2237C9.33864 19.4792 8.61184 19.6557 7.9561 19.7522C8.10254 18.9748 8.22959 18.2752 8.33835 17.6568C8.4471 17.0373 8.53862 16.5329 8.61184 16.1447C8.7572 15.4397 8.96178 14.5033 9.22882 13.3377ZM1.03583 33.6721C1.41054 33.8914 1.81648 34 2.25256 34C3.09996 34 3.71801 33.8125 4.10564 33.4353C4.49327 33.0592 4.80876 32.5559 5.04995 31.9232C5.29222 31.341 5.52803 30.6414 5.75845 29.8289C5.98888 29.0132 6.21284 28.1393 6.43035 27.2039C6.64893 26.2686 6.85459 25.3158 7.04948 24.3443C7.24221 23.3717 7.43603 22.4243 7.63092 21.5011C10.0041 21.3794 12.1113 20.8816 13.9525 20.0077C15.7938 19.1327 17.3561 18.0702 18.6396 16.8191C19.9242 15.568 20.9288 14.2007 21.6556 12.7193C22.3824 11.2368 22.8185 9.81579 22.9638 8.45504C23.036 7.72697 23.0004 6.875 22.8551 5.90461C22.7097 4.93202 22.3888 4.00877 21.8925 3.13487C21.395 2.25987 20.6811 1.51974 19.7487 0.911184C18.8151 0.304825 17.5865 0 16.0608 0C14.534 0 13.1406 0.14693 11.8819 0.4375C10.6211 0.72807 9.52062 1.07566 8.57523 1.47588C7.63092 1.87829 6.83628 2.28399 6.19561 2.69737C5.5528 3.11075 5.07472 3.42544 4.76031 3.64474C4.1541 4.05811 3.85153 4.45833 3.85153 4.84759C3.85153 5.23575 3.92367 5.61294 4.06904 5.97697C4.14118 6.14693 4.22624 6.30482 4.32315 6.45066C4.49327 6.76754 4.73447 7.05811 5.04995 7.32566C5.46235 6.88816 5.88659 6.4693 6.32267 6.06908C6.75768 5.66667 7.17007 5.30921 7.55663 4.99342C7.99379 4.62829 8.44171 4.30044 8.90149 4.00877C8.73244 4.61623 8.50201 5.46711 8.21237 6.56031C7.92057 7.65241 7.59324 8.8739 7.23037 10.2226C6.86751 11.5713 6.49172 12.9912 6.10409 14.4857C5.71538 15.9792 5.33529 17.432 4.95951 18.841C4.58372 20.2511 4.23808 21.5735 3.92367 22.8125C3.60819 24.0515 3.35407 25.0724 3.16026 25.8739C2.79739 27.3805 2.4453 28.5713 2.1072 29.4452C1.76802 30.3202 1.459 30.9879 1.18012 31.4496C0.902316 31.9112 0.660047 32.227 0.454388 32.3969C0.247652 32.568 0.0969074 32.6897 0 32.761C0.314411 33.1502 0.660047 33.455 1.03583 33.6721Z" fill="#020101"/>
<path fill-rule="evenodd" clip-rule="evenodd" d="M25.6784 21.7504C25.7776 21.2498 25.9022 20.7367 26.051 20.2101C26.4224 21.0881 26.9493 21.8069 27.6305 22.3697C28.3139 22.9336 29.1251 23.215 30.0675 23.215C30.2659 23.215 30.4456 23.2105 30.6076 23.1958C30.7685 23.1845 30.9361 23.1653 31.1091 23.1404C30.9361 23.6162 30.731 24.0739 30.4952 24.5101C30.2593 24.9486 29.9937 25.3373 29.6961 25.6764C29.3984 26.0131 29.0634 26.29 28.6908 26.5025C28.3194 26.7138 27.9104 26.82 27.464 26.82C27.0672 26.82 26.7454 26.7138 26.4974 26.5025C26.2494 26.29 26.051 26.0131 25.9022 25.6764C25.7523 25.3373 25.6542 24.9486 25.6046 24.5101C25.555 24.0739 25.5296 23.6286 25.5296 23.1777C25.5296 22.7268 25.5792 22.251 25.6784 21.7504ZM29.1196 15.4602C29.5528 15.1958 30.0058 15.0647 30.4775 15.0647C30.7751 15.0647 31.0286 15.1958 31.2392 15.4602C31.4497 15.7224 31.6239 16.0603 31.7605 16.4728C31.8972 16.8876 31.9898 17.3441 32.0394 17.8436C32.0879 18.3454 32.0879 18.8336 32.0394 19.3082C32.0394 19.5094 32.0074 19.7411 31.9468 20.0044C31.884 20.2677 31.8156 20.5615 31.7418 20.887C31.6172 20.9119 31.4927 20.9311 31.3692 20.9424C31.2458 20.9548 31.1212 20.9616 30.9978 20.9616C30.2295 20.9616 29.6277 20.8429 29.1934 20.6045C28.7592 20.3671 28.4439 20.0733 28.2455 19.7219C28.046 19.3727 27.9226 18.9771 27.873 18.5398C27.8234 18.1013 27.7991 17.6809 27.7991 17.2808C27.7991 17.0311 27.8355 16.7926 27.9104 16.5677C28.2819 16.092 28.6853 15.7224 29.1196 15.4602ZM36.5398 21.1492C37.3588 20.6485 38.1138 20.1355 38.8093 19.61C39.5026 19.0845 40.1044 18.5951 40.6136 18.1454C41.1218 17.6944 41.437 17.3938 41.5616 17.2435C41.7842 16.9689 41.9209 16.7169 41.9705 16.492C42.0201 16.266 42.0069 16.092 41.933 15.9665C41.8592 15.8422 41.7346 15.7925 41.5616 15.8162C41.3874 15.8422 41.1769 15.9665 40.9289 16.1914C40.6313 16.492 40.2345 16.8299 39.7396 17.2062C39.2425 17.5814 38.7024 17.951 38.1204 18.3137C37.5384 18.6765 36.9366 19.0212 36.3161 19.3467C35.6966 19.6733 35.1014 19.9479 34.5315 20.1728C34.5558 19.9727 34.5811 19.7286 34.6065 19.4416C34.6296 19.1534 34.6429 18.9093 34.6429 18.7082C34.6429 17.7317 34.4808 16.9 34.159 16.2106C33.836 15.5224 33.4469 14.9517 32.9884 14.5008C32.5288 14.051 32.0581 13.7131 31.5743 13.4882C31.0904 13.2622 30.687 13.1367 30.3651 13.1108C30.2913 13.087 30.2229 13.061 30.1601 13.0373C30.0995 13.0124 30.03 13 29.9562 13C29.5109 13 29.0512 13.0554 28.5806 13.1684C28.1088 13.2803 27.669 13.443 27.2601 13.6566C26.8501 13.869 26.4908 14.1403 26.181 14.4635C25.8702 14.7901 25.642 15.1653 25.4932 15.5913C25.0711 16.092 24.7052 16.6412 24.3954 17.2435C24.0857 17.8436 23.8311 18.446 23.6338 19.0461C23.4343 19.6473 23.2789 20.2361 23.1686 20.8113C23.0562 21.3876 23 21.9143 23 22.3889C23 23.0647 23.032 23.7925 23.0937 24.5677C23.1554 25.3441 23.3285 26.0572 23.6139 26.7082C23.8994 27.3602 24.3326 27.9038 24.9168 28.3412C25.4988 28.7808 26.2979 29 27.3152 29C28.1827 29 28.9829 28.8294 29.7148 28.4926C30.4456 28.1547 31.1025 27.6846 31.6856 27.0845C32.2687 26.4833 32.7713 25.769 33.1923 24.9429C33.6134 24.1168 33.9485 23.2286 34.1976 22.277C34.9405 22.0261 35.7208 21.6509 36.5398 21.1492Z" fill="#020101"/>
<path fill-rule="evenodd" clip-rule="evenodd" d="M37.0193 26.7803C37.3249 26.2954 37.698 25.7036 38.1384 25.005C38.5788 24.3075 39.0497 23.5565 39.5511 22.7522C40.0524 21.9468 40.5298 21.1777 40.9833 20.4438C41.4357 19.71 41.8327 19.0712 42.1752 18.5264C42.5178 17.9827 42.7386 17.6281 42.8364 17.4615C43.0311 17.5085 43.2399 17.58 43.4596 17.6751C43.6803 17.7691 43.9489 17.8161 44.2665 17.8161C44.4873 17.8161 44.6526 17.8108 44.7624 17.799C44.8733 17.7873 44.9582 17.7808 45.0191 17.7808C45.08 17.7808 45.1419 17.7755 45.2028 17.7638C45.2637 17.752 45.3681 17.7456 45.515 17.7456C45.7357 17.7456 45.8934 17.83 45.9924 17.9934C46.0892 18.159 46.1392 18.3491 46.1392 18.5628C46.1392 18.8939 46.0109 19.303 45.7531 19.7869C45.4965 20.2719 45.1593 20.8583 44.745 21.5441C44.5721 21.8763 44.3829 22.2138 44.1752 22.5556C43.9674 22.8996 43.7717 23.2425 43.5879 23.5854C43.4041 23.9283 43.2453 24.2605 43.1116 24.5788C42.9767 24.8992 42.8962 25.2005 42.8723 25.4846C42.8473 25.8403 42.8908 26.2249 43.0006 26.6393C43.1116 27.0527 43.2954 27.4319 43.552 27.7748C43.8087 28.1177 44.1447 28.4072 44.5612 28.6443C44.9756 28.8814 45.503 29 46.1392 29C46.7493 29 47.392 28.8216 48.0652 28.467C48.7372 28.1123 49.4115 27.6562 50.0847 27.1008C50.7568 26.5442 51.3995 25.9279 52.0106 25.2539C52.6218 24.5788 53.1786 23.9229 53.68 23.2841C54.1813 22.6454 54.6109 22.0643 54.9654 21.5441C55.3188 21.0239 55.5711 20.6446 55.7169 20.4086C55.9376 20.0529 56.029 19.7687 55.992 19.5562C55.9561 19.3425 55.8637 19.2015 55.7169 19.13C55.5711 19.0584 55.3982 19.0584 55.2036 19.13C55.0078 19.2015 54.849 19.3319 54.7262 19.5209C54.5793 19.71 54.3531 20.0176 54.0475 20.4438C53.7409 20.87 53.3689 21.3497 52.9285 21.8816C52.4881 22.4146 52.0106 22.9583 51.4973 23.5138C50.983 24.0703 50.4631 24.5788 49.9368 25.0402C49.4115 25.5017 48.8971 25.8809 48.3958 26.1779C47.8944 26.4727 47.4355 26.6212 47.019 26.6212C46.4567 26.6212 46.1142 26.5271 45.9924 26.337C45.8695 26.1479 45.7847 25.8991 45.7357 25.5904C45.6857 25.1182 45.8325 24.5852 46.1751 23.9934C46.5176 23.4027 46.8602 22.8697 47.2028 22.3965C47.7661 21.6391 48.2424 20.9405 48.635 20.3018C49.0254 19.663 49.1853 19.0466 49.1114 18.4549C49.0874 18.1707 49.032 17.8578 48.946 17.5149C48.8612 17.1709 48.7318 16.8526 48.5611 16.5556C48.3892 16.2597 48.1696 16.0119 47.901 15.81C47.6313 15.6092 47.2876 15.5088 46.8733 15.5088C46.5296 15.5088 46.2795 15.5334 46.1207 15.5793C45.9619 15.6284 45.6857 15.6519 45.2942 15.6519C45.0245 15.6519 44.8298 15.622 44.7069 15.5622C44.5851 15.5035 44.4873 15.4501 44.4144 15.4031C44.683 15.0239 44.8668 14.5977 44.9647 14.1244C45.0626 13.6512 45.0865 13.2603 45.0375 12.9537C44.9886 12.5029 44.8233 12.066 44.5427 11.6398C44.2611 11.2136 43.7771 11 43.0931 11C42.7255 11 42.346 11.1656 41.9555 11.4967C41.564 11.8289 41.2084 12.2252 40.8909 12.6867C40.5733 13.1481 40.3156 13.6277 40.1209 14.1244C39.9241 14.6222 39.8512 15.0239 39.8991 15.3315C39.948 15.6861 40.022 15.9169 40.1209 16.0237C40.2166 16.1305 40.4004 16.3014 40.6701 16.5385C40.5244 16.7992 40.2917 17.219 39.973 17.799C39.6555 18.379 39.3064 19.036 38.9279 19.7687C38.5473 20.5036 38.1504 21.277 37.7338 22.0942C37.3184 22.9113 36.9334 23.6687 36.5789 24.3662C36.2244 25.0659 35.9177 25.663 35.6611 26.1597C35.4044 26.6564 35.2391 26.9758 35.1662 27.1179C35.0183 27.402 34.9694 27.6391 35.0183 27.8271C35.0684 28.0173 35.1728 28.1412 35.3304 28.201C35.4903 28.2587 35.6741 28.248 35.8807 28.1647C36.0895 28.0824 36.2788 27.9104 36.4506 27.6509C36.5234 27.5558 36.7138 27.2653 37.0193 26.7803Z" fill="#020101"/>
<path fill-rule="evenodd" clip-rule="evenodd" d="M65.8476 19.8255C65.4709 20.3054 65.0304 20.8409 64.5274 21.432C64.0244 22.0219 63.4766 22.6263 62.8875 23.2407C62.295 23.8561 61.7104 24.4227 61.1324 24.9393C60.5534 25.4571 59.9944 25.8681 59.4534 26.1759C58.9123 26.4847 58.454 26.6136 58.0773 26.5636C57.5988 26.5403 57.1964 26.3925 56.87 26.1214C56.5928 25.8748 56.3602 25.4748 56.1713 24.9205C55.9835 24.3672 55.9634 23.5606 56.1154 22.5018C56.7683 21.0265 57.3596 19.6344 57.8884 18.3301C58.4171 17.0258 58.8687 15.8693 59.2466 14.8594C59.6736 13.7017 60.0503 12.6319 60.3767 11.6464C60.5288 11.2287 60.6484 10.8287 60.7367 10.4465C60.8239 10.0644 60.9189 9.67774 61.0195 9.28334C61.2196 9.28334 61.4152 9.2789 61.6042 9.26557C61.792 9.25223 61.9619 9.24779 62.1128 9.24779C62.9177 9.24779 63.6219 9.27223 64.2256 9.32C64.8292 9.37 65.3513 9.41999 65.7906 9.46777C66.231 9.51776 66.6089 9.57886 66.923 9.6533C67.2371 9.72774 67.5199 9.77662 67.7726 9.79995C68.0218 9.85106 68.2488 9.79995 68.45 9.6533C68.6523 9.50554 68.7965 9.32667 68.8848 9.11781C68.972 8.90783 69.01 8.70563 68.9977 8.50787C68.9854 8.31123 68.8904 8.18791 68.7138 8.13903C68.5383 8.09014 68.2745 7.99793 67.9224 7.86128C67.5702 7.72685 67.1052 7.59131 66.5261 7.45577C65.9482 7.32134 65.2507 7.19802 64.4324 7.08692C63.6152 6.97583 62.6784 6.92028 61.6232 6.92028C61.8736 5.66486 62.0122 4.63165 62.0379 3.81952C62.0625 3.00627 62.0122 2.50189 61.887 2.30413C61.7607 2.15748 61.5595 2.06416 61.2833 2.0275C61.0061 1.99083 60.7166 1.99083 60.4159 2.0275C60.114 2.06416 59.8301 2.12749 59.5674 2.21192C59.3036 2.29969 59.1326 2.40301 59.0577 2.52633C58.8061 2.87185 58.5222 3.48178 58.2081 4.3539C57.894 5.22825 57.5743 6.25591 57.2467 7.438C56.8186 7.51132 56.3848 7.57354 55.9455 7.62242C55.5051 7.6713 55.0456 7.70796 54.5683 7.73241C53.9144 7.75796 53.3107 7.75129 52.7574 7.71463C52.2051 7.67797 51.6887 7.63353 51.2102 7.58576C51.0593 7.58576 50.8905 7.65353 50.7016 7.78796C50.5127 7.9235 50.3573 8.08459 50.2299 8.2679C50.1047 8.45344 50.0298 8.63786 50.0041 8.82228C49.9795 9.0056 50.0667 9.14891 50.2679 9.24779C50.62 9.41999 51.1532 9.59664 51.8709 9.78218C52.5886 9.9666 53.3476 10.0588 54.1536 10.0588C54.5057 10.0588 54.8947 10.0344 55.3229 9.98549C55.7499 9.9366 56.178 9.88772 56.6051 9.83772C56.2529 11.2653 55.9198 12.7496 55.6057 14.2861C55.2916 15.8248 55.0087 17.2658 54.7572 18.6067C54.5057 19.9488 54.3045 21.1298 54.1536 22.1519C54.0015 23.1729 53.9144 23.8806 53.8898 24.2739C53.8383 24.7438 53.8763 25.2526 54.0015 25.807C54.129 26.3603 54.3481 26.8725 54.6622 27.3391C54.9763 27.8068 55.4101 28.2012 55.9634 28.5212C56.5168 28.84 57.2087 29 58.0393 29C58.6172 29 59.3338 28.6923 60.1889 28.0779C61.0441 27.4624 61.9239 26.6814 62.8305 25.7326C63.7348 24.786 64.5967 23.7706 65.4139 22.6874C66.231 21.6031 66.8917 20.5954 67.3947 19.6599C67.5456 19.3633 67.6138 19.13 67.6015 18.9578C67.5892 18.7856 67.5322 18.6623 67.4327 18.5878C67.331 18.5156 67.1991 18.4956 67.0359 18.5334C66.8727 18.5701 66.7408 18.6623 66.6402 18.81C66.4893 19.0067 66.2254 19.3455 65.8476 19.8255Z" fill="#020101"/>
<path fill-rule="evenodd" clip-rule="evenodd" d="M64.3315 28.3442C64.4788 28.5065 64.6271 28.6383 64.7732 28.7375C64.9445 28.8366 65.1168 28.9121 65.2891 28.9617C65.4854 28.9854 65.6686 29 65.841 29C65.9882 29 66.1474 28.9752 66.3186 28.9245C66.4899 28.8749 66.6371 28.787 66.7614 28.6631C67.8891 24.1436 68.8271 20.3981 69.5763 17.4279C70.3245 14.4577 70.9199 12.1106 71.3605 10.3867C71.8764 8.3652 72.281 6.81813 72.5766 5.74318C72.6987 5.19556 72.8078 4.68175 72.907 4.2085C72.9561 3.80962 72.9866 3.422 72.9986 3.04678C73.0106 2.67269 72.943 2.42367 72.7969 2.2986C72.7478 2.17352 72.6366 2.0924 72.4653 2.05521C72.2941 2.01803 72.1098 2 71.9135 2C71.6921 2 71.4467 2.02479 71.1773 2.07324C70.9068 2.12395 70.6375 2.18592 70.367 2.26141C70.1467 2.31099 69.9198 2.37297 69.6865 2.44846C69.4531 2.52395 69.2382 2.62311 69.0419 2.74818C69.1161 3.09861 69.1531 3.48397 69.1531 3.90877C69.1531 4.33357 69.1281 4.74597 69.0801 5.14373C69.0299 5.59444 68.9688 6.05642 68.8958 6.5308C68.7485 7.20462 68.4781 8.41478 68.0854 10.1624C67.7419 11.6351 67.2446 13.7715 66.5946 16.5659C65.9446 19.3626 65.0808 23.0697 64 27.6884C64.0742 27.9634 64.1843 28.1808 64.3315 28.3442Z" fill="#020101"/>
<path fill-rule="evenodd" clip-rule="evenodd" d="M80.3495 22.3513C80.1654 22.6217 79.9323 22.9142 79.6502 23.2321C79.3692 23.5499 79.0501 23.8556 78.695 24.1492C78.3388 24.4428 77.9837 24.6801 77.6286 24.8644C77.2735 25.0465 76.9239 25.1448 76.5818 25.1569C76.2387 25.1701 75.9316 25.0421 75.6625 24.7728C75.5166 24.626 75.4174 24.3137 75.3684 23.8369C75.3194 23.3601 75.3368 22.8038 75.424 22.167C75.51 21.5324 75.6625 20.8536 75.8825 20.1329C76.1037 19.41 76.3978 18.7334 76.7648 18.0966C77.6482 16.5558 78.4248 15.4985 79.1002 14.9246C79.7733 14.3496 80.2439 14.1719 80.514 14.3926C80.5881 14.4886 80.6371 14.6244 80.661 14.7943C80.6861 14.9422 80.6807 15.1431 80.6436 15.4014C80.6066 15.6574 80.49 15.9819 80.294 16.3726C80.49 16.3241 80.6861 16.2865 80.8822 16.2622C81.0782 16.2391 81.2362 16.2026 81.3603 16.1519C81.5063 16.1033 81.6425 16.0669 81.7644 16.0426C81.8625 16.0183 81.8799 16.2082 81.82 16.611C81.7579 17.015 81.6664 17.5227 81.5444 18.133C81.4202 18.7456 81.2743 19.3802 81.1022 20.0402C80.9312 20.7013 80.783 21.2763 80.661 21.7653C80.6371 21.8867 80.5325 22.0831 80.3495 22.3513ZM91.9652 19.123C92.0262 18.8305 92.0066 18.6098 91.9096 18.463C91.8105 18.3173 91.6646 18.261 91.4685 18.2986C91.2714 18.335 91.0764 18.463 90.8803 18.6826C90.7333 18.8791 90.4936 19.1848 90.1636 19.5998C89.8325 20.017 89.4589 20.4938 89.0417 21.0313C88.6256 21.5688 88.1779 22.1251 87.7008 22.7001C87.2237 23.2751 86.7641 23.7994 86.3218 24.2773C85.8807 24.754 85.4635 25.1448 85.0725 25.4505C84.6804 25.7573 84.3623 25.9096 84.1172 25.9096C83.822 25.9096 83.5955 25.8434 83.4364 25.7087C83.2774 25.5741 83.1609 25.3964 83.0879 25.1768C83.0138 24.956 82.9713 24.7176 82.9593 24.4616C82.9463 24.2044 82.9528 23.9649 82.9779 23.7453C83.0508 23.3788 83.1118 23.0731 83.1609 22.8281C83.2099 22.5842 83.2534 22.3701 83.2894 22.1869C83.3264 22.0025 83.3635 21.8204 83.4005 21.6361C83.4364 21.4529 83.4789 21.2509 83.529 21.0313C83.7741 19.9066 83.9702 18.9895 84.1172 18.2809C84.2643 17.5701 84.3743 17.0094 84.4483 16.5923C84.5213 16.1773 84.5573 15.8903 84.5573 15.7303C84.5573 15.5713 84.5453 15.4676 84.5213 15.419C84.4712 15.3936 84.3743 15.3826 84.2272 15.3826C84.1041 15.3826 83.9266 15.3936 83.6935 15.419C83.4604 15.4433 83.1739 15.4919 82.8297 15.5658C83.3449 14.7833 83.5475 14.1531 83.4364 13.6763C83.3264 13.1995 83.0999 12.8386 82.7567 12.5947C82.3396 12.3254 81.8015 12.13 81.1403 12.0075C80.575 11.9579 79.8659 12.1543 79.0076 12.5947C78.1493 13.0351 77.28 13.6895 76.3978 14.557C75.5166 15.4256 74.6996 16.4708 73.9535 17.6926C73.2052 18.9155 72.6606 20.2731 72.3175 21.7653C72.0484 22.8645 71.9504 23.8126 72.0234 24.6073C72.0974 25.403 72.2684 26.0509 72.5386 26.552C72.8076 27.053 73.1387 27.4195 73.5298 27.6523C73.923 27.8841 74.2901 28 74.6332 28C75.3684 27.9514 76.1037 27.7936 76.8389 27.5232C77.475 27.2793 78.1493 26.8952 78.8605 26.3676C79.5707 25.8434 80.221 25.0907 80.8092 24.1117C80.783 24.7728 80.8266 25.3224 80.9377 25.7628C81.0477 26.2032 81.1632 26.5586 81.2863 26.8268C81.4333 27.1446 81.6174 27.3897 81.8374 27.5596C82.0585 27.7075 82.3156 27.8113 82.6097 27.872C82.9038 27.9338 83.2164 27.9514 83.5475 27.9272C83.8776 27.9018 84.2022 27.8411 84.5213 27.7439C84.8394 27.6457 85.1215 27.5232 85.3666 27.3775C85.7336 27.1325 86.1933 26.7109 86.7456 26.1116C87.2967 25.5134 87.8609 24.8523 88.4361 24.1294C89.0112 23.4097 89.5689 22.6879 90.108 21.9661C90.6472 21.2454 91.0884 20.6395 91.4326 20.1506C91.7256 19.7587 91.9031 19.4166 91.9652 19.123Z" fill="#020101"/>
<path fill-rule="evenodd" clip-rule="evenodd" d="M102.443 27.522C103.046 27.2019 103.656 26.7889 104.273 26.281C104.887 25.7721 105.479 25.2055 106.046 24.5792C106.613 23.9528 107.142 23.3318 107.635 22.7172C108.127 22.1026 108.552 21.5233 108.91 20.9791C109.266 20.4349 109.532 19.9996 109.705 19.6677C109.903 19.2889 110 18.9752 110 18.7277C110 18.4791 109.945 18.319 109.835 18.2497C109.723 18.1771 109.57 18.1899 109.373 18.2849C109.174 18.3788 108.966 18.5805 108.744 18.8878C108.423 19.3604 107.956 19.9804 107.34 20.7486C106.724 21.5179 106.071 22.268 105.382 23.0011C104.691 23.733 104.008 24.3604 103.331 24.879C102.652 25.4008 102.093 25.6601 101.648 25.6601C101.206 25.6601 100.965 25.4712 100.928 25.0924C100.891 24.7157 100.947 24.2665 101.095 23.7448C101.366 22.9424 101.593 22.2029 101.778 21.5286C101.963 20.8553 102.117 20.2706 102.239 19.7734L102.647 18.2123C102.869 17.4558 102.961 16.7591 102.923 16.121C102.887 15.4829 102.763 14.9334 102.555 14.4725C102.345 14.0105 102.055 13.6509 101.686 13.3905C101.316 13.1312 100.897 13 100.429 13C99.8632 13 99.308 13.1131 98.767 13.3382C98.2239 13.5623 97.7136 13.8515 97.2329 14.2068C96.7532 14.561 96.3086 14.9569 95.9024 15.3944C95.4961 15.8318 95.1326 16.2629 94.8117 16.6886C94.9606 16.2864 95.0833 15.8959 95.1818 15.5181C95.2804 15.1874 95.3789 14.8737 95.4775 14.5792C95.576 14.2825 95.6626 14.0531 95.7359 13.8867C95.5881 13.7682 95.4227 13.6797 95.2377 13.621C95.0526 13.5623 94.8741 13.5207 94.7022 13.4972C94.504 13.4727 94.3069 13.462 94.1109 13.462C93.8886 13.4855 93.6783 13.5324 93.4812 13.6039C93.2852 13.6509 93.0947 13.716 92.9096 13.7981C92.7245 13.8813 92.5461 13.9934 92.3741 14.1353C92.1266 15.0337 91.912 15.8606 91.727 16.6172C91.5419 17.3747 91.3875 18.0363 91.2648 18.6029C91.117 19.2655 90.9812 19.8683 90.8586 20.4114C90.6856 21.0975 90.5016 21.8188 90.3034 22.5753C90.1063 23.3318 89.9168 24.0467 89.7318 24.72C89.5467 25.3944 89.3868 25.9791 89.2511 26.4763C89.1153 26.9725 89.0353 27.2915 89.0101 27.4334C88.9609 27.6458 89.0912 27.7525 89.3989 27.7525C89.7066 27.7525 90.0691 27.682 90.4885 27.5401C90.9079 27.3982 91.3021 27.2136 91.6711 26.9895C92.0412 26.7665 92.2624 26.535 92.3369 26.2981C92.4103 25.9674 92.4968 25.6195 92.5953 25.2525C92.6939 24.8854 92.7979 24.4597 92.9096 23.9763C93.0202 23.4919 93.1494 22.9477 93.2973 22.3438C93.4451 21.742 93.6301 21.0388 93.8513 20.2343C94.2697 19.6432 94.6956 19.0702 95.126 18.5143C95.5574 17.9595 95.9878 17.4686 96.4203 17.0429C96.8507 16.6172 97.2756 16.28 97.695 16.0314C98.1133 15.7849 98.5195 15.6601 98.9137 15.6601C99.2335 15.6601 99.4438 15.8318 99.5434 16.1743C99.6398 16.5169 99.666 16.9543 99.6168 17.4868C99.5664 18.0181 99.4624 18.6103 99.3025 19.2601C99.1415 19.911 98.9696 20.5608 98.7845 21.2096C98.5995 21.8604 98.421 22.4633 98.2491 23.0192C98.0771 23.574 97.9534 24.0179 97.88 24.3476C97.7563 24.8449 97.7311 25.3122 97.8056 25.7486C97.88 26.1872 98.0399 26.5713 98.2863 26.901C98.5327 27.2328 98.859 27.4985 99.2653 27.6991C99.6726 27.8997 100.158 28 100.725 28C101.267 28 101.839 27.841 102.443 27.522Z" fill="#020101"/>
<path fill-rule="evenodd" clip-rule="evenodd" d="M115.137 22.2852C114.714 22.8025 114.256 23.3054 113.762 23.7971C113.268 24.29 112.761 24.7074 112.243 25.0515C111.723 25.3957 111.248 25.5688 110.814 25.5688C110.235 25.5688 109.776 25.3113 109.439 24.794C109.101 24.2767 108.956 23.4286 109.004 22.2474C109.052 21.5092 109.245 20.6744 109.583 19.7386C109.921 18.805 110.343 17.9247 110.85 17.101C111.356 16.2773 111.899 15.5758 112.479 14.9985C113.058 14.4201 113.624 14.1315 114.178 14.1315C114.564 14.1315 114.865 14.2858 115.083 14.5922C115.299 14.8997 115.463 15.2561 115.57 15.6623C115.68 16.0675 115.745 16.4616 115.77 16.8424C115.793 17.2243 115.806 17.4896 115.806 17.6361C115.806 17.9325 115.854 18.1467 115.951 18.2822C116.047 18.4176 116.229 18.4232 116.493 18.2999C116.542 18.2766 116.585 18.2511 116.62 18.2267C116.656 18.2022 116.698 18.1767 116.746 18.1523C116.626 18.6452 116.523 19.1247 116.44 19.5921C116.355 20.0594 116.264 20.5268 116.167 20.993C115.903 21.3383 115.559 21.7679 115.137 22.2852ZM120.526 16.6215C121.215 15.2561 121.822 13.8906 122.354 12.5252C122.885 11.1609 123.313 9.8399 123.639 8.55996C123.963 7.28113 124.15 6.1011 124.199 5.01875C124.247 4.1329 124.247 3.43132 124.199 2.91512C124.15 2.39893 124.06 2.0115 123.928 1.75285C123.795 1.4942 123.632 1.33546 123.439 1.27329C123.245 1.21224 123.029 1.18115 122.788 1.18115C122.594 1.18115 122.391 1.2189 122.173 1.29105C121.98 1.34212 121.775 1.41649 121.558 1.51418C121.341 1.61187 121.112 1.7584 120.872 1.956C120.485 3.25925 120.135 4.50145 119.822 5.68148C119.508 6.86262 119.23 7.90944 118.99 8.81861C118.724 9.87653 118.47 10.8601 118.23 11.7692C118.085 12.3853 117.941 13.037 117.795 13.7252C117.651 14.4146 117.494 15.1151 117.325 15.8278C117.253 15.4836 117.138 15.1151 116.982 14.7221C116.825 14.328 116.626 13.965 116.385 13.6331C116.143 13.3001 115.854 13.0303 115.517 12.8205C115.178 12.614 114.804 12.5075 114.395 12.5075C113.455 12.5075 112.52 12.785 111.591 13.3367C110.663 13.8906 109.831 14.6422 109.095 15.588C108.36 16.5349 107.75 17.6494 107.267 18.9271C106.786 20.2071 106.508 21.5603 106.437 22.9856C106.388 23.8959 106.46 24.6708 106.653 25.3113C106.846 25.9507 107.093 26.4658 107.395 26.8599C107.696 27.2529 108.04 27.5359 108.425 27.708C108.812 27.8801 109.174 27.9655 109.511 27.9655C110.451 27.9655 111.434 27.6281 112.459 26.952C113.484 26.276 114.504 25.3601 115.517 24.2034C115.469 24.6219 115.431 24.9172 115.408 25.0882C115.383 25.4823 115.437 25.8752 115.57 26.2704C115.703 26.6634 115.89 27.0197 116.132 27.3394C116.372 27.6591 116.643 27.9167 116.946 28.1132C117.247 28.3097 117.567 28.4085 117.904 28.4085C118.362 28.4085 118.874 28.2553 119.443 27.9478C120.009 27.6403 120.6 27.2406 121.215 26.7489C121.829 26.2582 122.444 25.6921 123.06 25.0515C123.675 24.4132 124.259 23.7605 124.813 23.0967C125.369 22.4317 125.876 21.7867 126.334 21.1584C126.791 20.5323 127.165 19.9851 127.455 19.5177C127.648 19.2224 127.744 18.9771 127.744 18.7795C127.744 18.583 127.696 18.4476 127.6 18.3743C127.503 18.2999 127.377 18.2766 127.22 18.2999C127.063 18.3255 126.912 18.4109 126.768 18.5586C126.647 18.6818 126.424 18.9516 126.099 19.3701C125.773 19.7875 125.375 20.2737 124.905 20.8287C124.434 21.3816 123.922 21.9644 123.367 22.5805C122.812 23.1955 122.258 23.7605 121.702 24.2767C121.147 24.794 120.623 25.2236 120.129 25.5688C119.634 25.913 119.219 26.085 118.881 26.085C118.592 26.085 118.327 25.9507 118.085 25.6787C117.843 25.4079 117.736 24.9661 117.759 24.3511C117.783 23.9326 117.85 23.3797 117.959 22.6904C118.067 22.0032 118.182 21.2761 118.302 20.5146C119.097 19.2846 119.84 17.9869 120.526 16.6215Z" fill="#020101"/>
</svg>
